<svg xmlns="http://www.w3.org/2000/svg" viewBox="0 0 143.82 169.55"><defs><style>.cls-1{fill:#ffc107;}.cls-2{fill:#fff;}</style></defs><g id="Layer_2" data-name="Layer 2"><g id="Layer_1-2" data-name="Layer 1"><g id="Layer_4" data-name="Layer 4"><rect x="95.88" y="162.48" width="6.85" height="7.07"/><rect x="95.88" y="155.42" width="6.85" height="7.06"/><rect x="123.27" y="134.23" width="6.85" height="7.06"/><rect x="116.42" y="134.23" width="6.85" height="7.06"/><rect x="130.12" y="113.03" width="6.85" height="7.06"/><rect x="136.97" y="84.77" width="6.85" height="7.06"/><rect x="136.97" y="98.9" width="6.85" height="7.06"/><rect x="136.97" y="91.84" width="6.85" height="7.07"/><rect x="136.97" y="77.71" width="6.85" height="7.06"/><rect x="136.97" y="63.58" width="6.85" height="7.06"/><rect x="136.97" y="70.65" width="6.85" height="7.07"/><rect x="136.97" y="49.45" width="6.85" height="7.06"/><rect x="136.97" y="56.52" width="6.85" height="7.07"/><rect x="130.12" y="35.32" width="6.85" height="7.07"/><rect x="130.12" y="42.39" width="6.85" height="7.06"/><rect x="130.12" y="49.45" width="6.85" height="7.06"/><rect x="116.42" y="14.13" width="6.85" height="7.07"/><rect x="116.42" y="28.26" width="6.85" height="7.06"/><rect x="116.42" y="21.2" width="6.85" height="7.06"/><rect x="95.88" width="6.85" height="7.07"/><rect x="95.88" y="7.07" width="6.85" height="7.06"/><rect x="82.18" width="6.85" height="7.07"/><rect x="89.03" width="6.85" height="7.07"/><rect x="68.49" width="6.85" height="7.07"/><rect x="75.34" width="6.85" height="7.07"/><rect x="61.64" width="6.85" height="7.07"/><rect x="47.94" width="6.85" height="7.07"/><rect x="54.79" width="6.85" height="7.07"/><rect x="41.09" width="6.85" height="7.07"/><rect x="130.12" y="105.97" width="6.85" height="7.07"/><rect x="130.12" y="98.9" width="6.85" height="7.06"/><rect x="130.12" y="91.84" width="6.85" height="7.07"/><rect x="130.12" y="84.77" width="6.85" height="7.06"/><rect x="130.12" y="77.71" width="6.85" height="7.06"/><rect x="130.12" y="70.65" width="6.85" height="7.07"/><rect x="130.12" y="63.58" width="6.85" height="7.06"/><rect x="130.12" y="56.52" width="6.85" height="7.07"/><rect x="123.27" y="127.16" width="6.85" height="7.07"/><rect x="123.27" y="120.1" width="6.85" height="7.06"/><rect x="123.27" y="113.03" width="6.85" height="7.06"/><rect x="123.27" y="105.97" width="6.85" height="7.07"/><rect x="123.27" y="98.9" width="6.85" height="7.06"/><rect x="123.27" y="91.84" width="6.85" height="7.07"/><rect x="123.27" y="84.77" width="6.85" height="7.06"/><rect x="123.27" y="77.71" width="6.85" height="7.06"/><rect x="123.27" y="70.65" width="6.85" height="7.07"/><rect x="123.27" y="63.58" width="6.85" height="7.06"/><rect x="123.27" y="56.52" width="6.85" height="7.07"/><rect x="123.27" y="49.45" width="6.85" height="7.06"/><rect x="123.27" y="42.39" width="6.85" height="7.06"/><rect x="123.27" y="35.32" width="6.85" height="7.07"/><rect x="116.42" y="127.16" width="6.85" height="7.07"/><rect x="116.42" y="120.1" width="6.85" height="7.06"/><rect class="cls-1" x="116.42" y="113.03" width="6.85" height="7.06"/><rect class="cls-1" x="116.42" y="105.97" width="6.85" height="7.07"/><rect class="cls-1" x="116.42" y="98.9" width="6.85" height="7.06"/><rect class="cls-1" x="116.42" y="91.84" width="6.85" height="7.07"/><rect class="cls-1" x="116.42" y="84.77" width="6.85" height="7.06"/><rect class="cls-1" x="116.42" y="77.71" width="6.85" height="7.06"/><rect class="cls-1" x="116.42" y="70.65" width="6.85" height="7.07"/><rect class="cls-1" x="116.42" y="63.58" width="6.85" height="7.06"/><rect class="cls-1" x="116.42" y="56.52" width="6.85" height="7.07"/><rect class="cls-1" x="116.42" y="49.45" width="6.85" height="7.06"/><rect x="116.42" y="42.39" width="6.85" height="7.06"/><rect x="116.42" y="35.32" width="6.85" height="7.07"/><rect x="109.58" y="148.35" width="6.85" height="7.07"/><rect x="109.58" y="141.29" width="6.85" height="7.06"/><rect x="109.58" y="134.23" width="6.85" height="7.06"/><rect x="109.58" y="127.16" width="6.85" height="7.07"/><rect x="109.58" y="120.1" width="6.85" height="7.06"/><rect class="cls-1" x="109.58" y="113.03" width="6.85" height="7.06"/><rect class="cls-1" x="109.58" y="105.97" width="6.85" height="7.07"/><rect class="cls-1" x="109.58" y="98.9" width="6.85" height="7.06"/><rect class="cls-1" x="109.58" y="91.84" width="6.85" height="7.07"/><rect class="cls-1" x="109.58" y="84.77" width="6.85" height="7.06"/><rect class="cls-1" x="109.58" y="77.71" width="6.85" height="7.06"/><rect class="cls-1" x="109.58" y="70.65" width="6.85" height="7.07"/><rect class="cls-1" x="109.58" y="63.58" width="6.85" height="7.06"/><rect class="cls-1" x="109.58" y="56.52" width="6.85" height="7.07"/><rect class="cls-1" x="109.58" y="49.45" width="6.85" height="7.06"/><rect x="109.58" y="42.39" width="6.85" height="7.06"/><rect x="109.58" y="35.32" width="6.85" height="7.07"/><rect x="109.58" y="28.26" width="6.85" height="7.06"/><rect x="109.58" y="21.2" width="6.85" height="7.06"/><rect x="109.58" y="14.13" width="6.85" height="7.07"/><rect x="102.73" y="148.35" width="6.85" height="7.07"/><rect x="102.73" y="141.29" width="6.85" height="7.06"/><rect class="cls-1" x="102.73" y="134.23" width="6.85" height="7.06"/><rect class="cls-1" x="102.73" y="127.16" width="6.85" height="7.07"/><rect class="cls-1" x="102.73" y="120.1" width="6.85" height="7.06"/><rect class="cls-1" x="102.73" y="113.03" width="6.85" height="7.06"/><rect class="cls-1" x="102.73" y="105.97" width="6.85" height="7.07"/><rect class="cls-1" x="102.73" y="98.9" width="6.85" height="7.06"/><rect class="cls-1" x="102.73" y="91.84" width="6.85" height="7.07"/><rect class="cls-1" x="102.73" y="84.77" width="6.85" height="7.06"/><rect class="cls-1" x="102.73" y="77.71" width="6.85" height="7.06"/><rect class="cls-1" x="102.73" y="70.65" width="6.85" height="7.07"/><rect class="cls-1" x="102.73" y="63.58" width="6.85" height="7.06"/><rect class="cls-1" x="102.73" y="56.52" width="6.85" height="7.07"/><rect class="cls-1" x="102.73" y="49.45" width="6.85" height="7.06"/><rect class="cls-1" x="102.73" y="42.39" width="6.85" height="7.06"/><rect class="cls-1" x="102.73" y="35.32" width="6.85" height="7.07"/><rect class="cls-1" x="102.73" y="28.26" width="6.85" height="7.06"/><rect x="102.73" y="21.2" width="6.85" height="7.06"/><rect x="102.73" y="14.13" width="6.85" height="7.07"/><rect x="95.88" y="148.35" width="6.85" height="7.07"/><rect class="cls-1" x="95.88" y="141.29" width="6.85" height="7.06"/><rect class="cls-1" x="95.88" y="134.23" width="6.85" height="7.06"/><rect class="cls-1" x="95.88" y="127.16" width="6.85" height="7.07"/><rect class="cls-1" x="95.88" y="120.1" width="6.85" height="7.06"/><rect class="cls-1" x="95.88" y="113.03" width="6.85" height="7.06"/><rect class="cls-1" x="95.88" y="105.97" width="6.85" height="7.07"/><rect class="cls-1" x="95.88" y="98.9" width="6.85" height="7.06"/><rect class="cls-1" x="95.88" y="91.84" width="6.85" height="7.07"/><rect class="cls-1" x="95.88" y="84.77" width="6.85" height="7.06"/><rect class="cls-1" x="95.88" y="77.71" width="6.85" height="7.06"/><rect class="cls-1" x="95.88" y="70.65" width="6.85" height="7.07"/><rect class="cls-1" x="95.88" y="63.58" width="6.85" height="7.06"/><rect class="cls-1" x="95.88" y="56.52" width="6.85" height="7.07"/><rect class="cls-1" x="95.88" y="49.45" width="6.85" height="7.06"/><rect class="cls-1" x="95.88" y="42.39" width="6.85" height="7.06"/><rect class="cls-1" x="95.88" y="35.32" width="6.85" height="7.07"/><rect class="cls-1" x="95.88" y="28.26" width="6.85" height="7.06"/><rect class="cls-1" x="95.88" y="21.2" width="6.85" height="7.06"/><rect x="95.88" y="14.13" width="6.85" height="7.07"/><rect x="89.03" y="162.48" width="6.85" height="7.07"/><rect x="89.03" y="155.42" width="6.85" height="7.06"/><rect x="89.03" y="148.35" width="6.85" height="7.07"/><rect class="cls-1" x="89.03" y="141.29" width="6.85" height="7.06"/><rect class="cls-1" x="89.03" y="134.23" width="6.85" height="7.06"/><rect class="cls-1" x="89.03" y="127.16" width="6.85" height="7.07"/><rect class="cls-1" x="89.03" y="120.1" width="6.85" height="7.06"/><rect class="cls-1" x="89.03" y="113.03" width="6.85" height="7.06"/><rect class="cls-1" x="89.03" y="105.97" width="6.85" height="7.07"/><rect class="cls-1" x="89.03" y="98.9" width="6.85" height="7.06"/><rect class="cls-1" x="89.03" y="91.84" width="6.85" height="7.07"/><rect class="cls-1" x="89.03" y="84.77" width="6.85" height="7.06"/><rect class="cls-1" x="89.03" y="77.71" width="6.85" height="7.06"/><rect class="cls-1" x="89.03" y="70.65" width="6.85" height="7.07"/><rect class="cls-1" x="89.03" y="63.58" width="6.85" height="7.06"/><rect class="cls-1" x="89.03" y="56.52" width="6.85" height="7.07"/><rect class="cls-1" x="89.03" y="49.45" width="6.85" height="7.06"/><rect class="cls-1" x="89.03" y="42.39" width="6.85" height="7.06"/><rect class="cls-1" x="89.03" y="35.32" width="6.85" height="7.07"/><rect class="cls-1" x="89.03" y="28.26" width="6.85" height="7.06"/><rect class="cls-1" x="89.03" y="21.2" width="6.85" height="7.06"/><rect x="89.03" y="14.13" width="6.85" height="7.07"/><rect x="89.03" y="7.07" width="6.85" height="7.06"/><rect x="82.18" y="162.48" width="6.85" height="7.07"/><rect x="82.18" y="155.42" width="6.85" height="7.06"/><rect x="82.18" y="148.35" width="6.85" height="7.07"/><rect class="cls-1" x="82.18" y="141.29" width="6.85" height="7.06"/><rect class="cls-1" x="82.18" y="134.23" width="6.85" height="7.06"/><rect x="82.18" y="127.16" width="6.85" height="7.07"/><rect x="82.18" y="120.1" width="6.85" height="7.06"/><rect x="82.18" y="113.03" width="6.85" height="7.06"/><rect x="82.18" y="105.97" width="6.85" height="7.07"/><rect x="82.18" y="98.9" width="6.85" height="7.06"/><rect x="82.18" y="91.84" width="6.85" height="7.07"/><rect x="82.18" y="84.77" width="6.85" height="7.06"/><rect x="82.18" y="77.71" width="6.85" height="7.06"/><rect x="82.18" y="70.65" width="6.85" height="7.07"/><rect x="82.18" y="63.58" width="6.85" height="7.06"/><rect x="82.18" y="56.52" width="6.85" height="7.07"/><rect x="82.18" y="49.45" width="6.85" height="7.06"/><rect x="82.18" y="42.39" width="6.85" height="7.06"/><rect x="82.18" y="35.32" width="6.85" height="7.07"/><rect class="cls-1" x="82.18" y="28.26" width="6.85" height="7.06"/><rect class="cls-1" x="82.18" y="21.2" width="6.85" height="7.06"/><rect x="82.18" y="14.13" width="6.85" height="7.07"/><rect x="82.18" y="7.07" width="6.85" height="7.06"/><rect x="75.34" y="162.48" width="6.85" height="7.07"/><rect class="cls-1" x="75.34" y="155.42" width="6.85" height="7.06"/><rect class="cls-1" x="75.34" y="148.35" width="6.85" height="7.07"/><rect class="cls-1" x="75.34" y="141.29" width="6.85" height="7.06"/><rect class="cls-1" x="75.34" y="134.23" width="6.85" height="7.06"/><rect x="75.34" y="127.16" width="6.85" height="7.07"/><rect class="cls-1" x="75.34" y="120.1" width="6.85" height="7.06"/><rect class="cls-1" x="75.34" y="113.03" width="6.85" height="7.06"/><rect class="cls-1" x="75.34" y="105.97" width="6.85" height="7.07"/><rect class="cls-1" x="75.34" y="98.9" width="6.85" height="7.06"/><rect class="cls-1" x="75.34" y="91.84" width="6.85" height="7.07"/><rect class="cls-1" x="75.34" y="84.77" width="6.85" height="7.06"/><rect class="cls-1" x="75.34" y="77.71" width="6.85" height="7.06"/><rect class="cls-1" x="75.34" y="70.65" width="6.85" height="7.07"/><rect class="cls-1" x="75.34" y="63.58" width="6.85" height="7.06"/><rect class="cls-1" x="75.34" y="56.52" width="6.85" height="7.07"/><rect class="cls-1" x="75.34" y="49.45" width="6.85" height="7.06"/><rect class="cls-1" x="75.34" y="42.39" width="6.85" height="7.06"/><rect class="cls-2" x="75.34" y="35.32" width="6.85" height="7.07"/><rect class="cls-1" x="75.34" y="28.26" width="6.85" height="7.06"/><rect class="cls-1" x="75.34" y="21.2" width="6.85" height="7.06"/><rect class="cls-2" x="75.34" y="14.13" width="6.85" height="7.07"/><rect x="75.34" y="7.07" width="6.85" height="7.06"/><rect x="68.49" y="162.48" width="6.85" height="7.07"/><rect class="cls-1" x="68.49" y="155.42" width="6.85" height="7.06"/><rect class="cls-1" x="68.49" y="148.35" width="6.85" height="7.07"/><rect class="cls-1" x="68.49" y="141.29" width="6.85" height="7.06"/><rect class="cls-1" x="68.49" y="134.23" width="6.85" height="7.06"/><rect x="68.49" y="127.16" width="6.85" height="7.07"/><rect class="cls-1" x="68.49" y="120.1" width="6.85" height="7.06"/><rect class="cls-1" x="68.49" y="113.03" width="6.85" height="7.06"/><rect class="cls-1" x="68.49" y="105.97" width="6.85" height="7.07"/><rect class="cls-1" x="68.49" y="98.9" width="6.85" height="7.06"/><rect class="cls-1" x="68.49" y="91.84" width="6.85" height="7.07"/><rect class="cls-1" x="68.49" y="84.77" width="6.85" height="7.06"/><rect class="cls-1" x="68.49" y="77.71" width="6.85" height="7.06"/><rect class="cls-1" x="68.49" y="70.65" width="6.85" height="7.07"/><rect class="cls-1" x="68.49" y="63.58" width="6.85" height="7.06"/><rect class="cls-1" x="68.49" y="56.52" width="6.85" height="7.07"/><rect class="cls-1" x="68.49" y="49.45" width="6.85" height="7.06"/><rect class="cls-1" x="68.49" y="42.39" width="6.85" height="7.06"/><rect class="cls-2" x="68.49" y="35.32" width="6.85" height="7.07"/><rect class="cls-1" x="68.49" y="28.26" width="6.85" height="7.06"/><rect class="cls-1" x="68.49" y="21.2" width="6.85" height="7.06"/><rect class="cls-2" x="68.49" y="14.13" width="6.85" height="7.07"/><rect x="68.49" y="7.07" width="6.85" height="7.06"/><rect x="61.64" y="162.48" width="6.85" height="7.07"/><rect class="cls-1" x="61.64" y="155.42" width="6.85" height="7.06"/><rect class="cls-1" x="61.64" y="148.35" width="6.85" height="7.07"/><rect class="cls-1" x="61.64" y="141.29" width="6.85" height="7.06"/><rect class="cls-1" x="61.64" y="134.23" width="6.85" height="7.06"/><rect x="61.64" y="127.16" width="6.85" height="7.07"/><rect class="cls-1" x="61.64" y="120.1" width="6.85" height="7.06"/><rect class="cls-1" x="61.64" y="113.03" width="6.85" height="7.06"/><rect class="cls-1" x="61.64" y="105.97" width="6.85" height="7.07"/><rect class="cls-1" x="61.64" y="98.9" width="6.85" height="7.06"/><rect class="cls-1" x="61.64" y="91.84" width="6.85" height="7.07"/><rect class="cls-1" x="61.64" y="84.77" width="6.85" height="7.06"/><rect class="cls-1" x="61.64" y="77.71" width="6.85" height="7.06"/><rect class="cls-1" x="61.64" y="70.65" width="6.85" height="7.07"/><rect class="cls-1" x="61.64" y="63.58" width="6.85" height="7.06"/><rect class="cls-1" x="61.64" y="56.52" width="6.85" height="7.07"/><rect class="cls-1" x="61.64" y="49.45" width="6.85" height="7.06"/><rect class="cls-1" x="61.64" y="42.39" width="6.85" height="7.06"/><rect class="cls-2" x="61.64" y="35.32" width="6.85" height="7.07"/><rect class="cls-1" x="61.64" y="28.26" width="6.85" height="7.06"/><rect class="cls-1" x="61.64" y="21.2" width="6.85" height="7.06"/><rect class="cls-2" x="61.64" y="14.13" width="6.85" height="7.07"/><rect x="61.64" y="7.07" width="6.85" height="7.06"/><rect x="54.79" y="162.48" width="6.85" height="7.07"/><rect class="cls-1" x="54.79" y="155.42" width="6.85" height="7.06"/><rect class="cls-1" x="54.79" y="148.35" width="6.85" height="7.07"/><rect class="cls-1" x="54.79" y="141.29" width="6.85" height="7.06"/><rect class="cls-1" x="54.79" y="134.23" width="6.85" height="7.06"/><rect x="54.79" y="127.16" width="6.85" height="7.07"/><rect class="cls-1" x="54.79" y="120.1" width="6.85" height="7.06"/><rect class="cls-1" x="54.79" y="113.03" width="6.85" height="7.06"/><rect class="cls-1" x="54.79" y="105.97" width="6.85" height="7.07"/><rect class="cls-1" x="54.79" y="98.9" width="6.85" height="7.06"/><rect class="cls-1" x="54.79" y="91.84" width="6.85" height="7.07"/><rect class="cls-1" x="54.79" y="84.77" width="6.85" height="7.06"/><rect class="cls-1" x="54.79" y="77.71" width="6.85" height="7.06"/><rect class="cls-1" x="54.79" y="70.65" width="6.85" height="7.07"/><rect class="cls-1" x="54.79" y="63.58" width="6.85" height="7.06"/><rect class="cls-1" x="54.79" y="56.52" width="6.85" height="7.07"/><rect class="cls-1" x="54.79" y="49.45" width="6.85" height="7.06"/><rect class="cls-1" x="54.79" y="42.39" width="6.85" height="7.06"/><rect class="cls-2" x="54.79" y="35.32" width="6.85" height="7.07"/><rect class="cls-1" x="54.79" y="28.26" width="6.85" height="7.06"/><rect class="cls-1" x="54.79" y="21.2" width="6.85" height="7.06"/><rect class="cls-2" x="54.79" y="14.13" width="6.85" height="7.07"/><rect x="54.79" y="7.07" width="6.85" height="7.06"/><rect x="47.94" y="162.48" width="6.85" height="7.07"/><rect class="cls-1" x="47.94" y="155.42" width="6.85" height="7.06"/><rect class="cls-1" x="47.94" y="148.35" width="6.85" height="7.07"/><rect class="cls-1" x="47.94" y="141.29" width="6.85" height="7.06"/><rect class="cls-1" x="47.94" y="134.23" width="6.85" height="7.06"/><rect x="47.94" y="127.16" width="6.85" height="7.07"/><rect class="cls-2" x="47.94" y="120.1" width="6.85" height="7.06"/><rect class="cls-2" x="47.94" y="113.03" width="6.85" height="7.06"/><rect class="cls-2" x="47.94" y="105.97" width="6.85" height="7.07"/><rect class="cls-2" x="47.94" y="98.9" width="6.85" height="7.06"/><rect class="cls-2" x="47.94" y="91.84" width="6.85" height="7.07"/><rect class="cls-2" x="47.94" y="84.77" width="6.85" height="7.06"/><rect class="cls-2" x="47.94" y="77.71" width="6.85" height="7.06"/><rect class="cls-2" x="47.94" y="70.65" width="6.85" height="7.07"/><rect class="cls-2" x="47.94" y="63.58" width="6.85" height="7.06"/><rect class="cls-2" x="47.94" y="56.52" width="6.85" height="7.07"/><rect class="cls-2" x="47.94" y="49.45" width="6.85" height="7.06"/><rect class="cls-2" x="47.94" y="42.39" width="6.85" height="7.06"/><rect class="cls-2" x="47.94" y="35.32" width="6.85" height="7.07"/><rect class="cls-1" x="47.94" y="28.26" width="6.85" height="7.06"/><rect class="cls-1" x="47.94" y="21.2" width="6.85" height="7.06"/><rect class="cls-2" x="47.94" y="14.13" width="6.85" height="7.07"/><rect x="47.94" y="7.07" width="6.85" height="7.06"/><rect x="41.09" y="162.48" width="6.85" height="7.07"/><rect x="41.09" y="155.42" width="6.85" height="7.06"/><rect x="41.09" y="148.35" width="6.85" height="7.07"/><rect class="cls-1" x="41.09" y="141.29" width="6.85" height="7.06"/><rect class="cls-1" x="41.09" y="134.23" width="6.85" height="7.06"/><rect class="cls-1" x="41.09" y="127.16" width="6.85" height="7.07"/><rect class="cls-1" x="41.09" y="120.1" width="6.85" height="7.06"/><rect class="cls-1" x="41.09" y="113.03" width="6.85" height="7.06"/><rect class="cls-1" x="41.09" y="105.97" width="6.85" height="7.07"/><rect class="cls-1" x="41.09" y="98.9" width="6.85" height="7.06"/><rect class="cls-1" x="41.09" y="91.84" width="6.85" height="7.07"/><rect class="cls-1" x="41.09" y="84.77" width="6.85" height="7.06"/><rect class="cls-1" x="41.09" y="77.71" width="6.85" height="7.06"/><rect class="cls-1" x="41.09" y="70.65" width="6.85" height="7.07"/><rect class="cls-1" x="41.09" y="63.58" width="6.85" height="7.06"/><rect class="cls-1" x="41.09" y="56.52" width="6.85" height="7.07"/><rect class="cls-1" x="41.09" y="49.45" width="6.85" height="7.06"/><rect class="cls-1" x="41.09" y="42.39" width="6.85" height="7.06"/><rect class="cls-1" x="41.09" y="35.32" width="6.85" height="7.07"/><rect class="cls-2" x="41.09" y="28.26" width="6.85" height="7.06"/><rect class="cls-2" x="41.09" y="21.2" width="6.85" height="7.06"/><rect x="41.09" y="14.13" width="6.85" height="7.07"/><rect x="41.09" y="7.07" width="6.85" height="7.06"/><rect x="34.25" y="148.35" width="6.85" height="7.07"/><rect class="cls-2" x="34.25" y="141.29" width="6.85" height="7.06"/><rect class="cls-2" x="34.25" y="134.23" width="6.85" height="7.06"/><rect class="cls-1" x="34.25" y="127.16" width="6.85" height="7.07"/><rect class="cls-1" x="34.25" y="120.1" width="6.85" height="7.06"/><rect class="cls-1" x="34.25" y="113.03" width="6.85" height="7.06"/><rect class="cls-1" x="34.25" y="105.97" width="6.85" height="7.07"/><rect class="cls-1" x="34.25" y="98.9" width="6.85" height="7.06"/><rect class="cls-1" x="34.25" y="91.84" width="6.85" height="7.07"/><rect class="cls-1" x="34.25" y="84.77" width="6.85" height="7.06"/><rect class="cls-1" x="34.25" y="77.71" width="6.85" height="7.06"/><rect class="cls-1" x="34.25" y="70.65" width="6.85" height="7.07"/><rect class="cls-1" x="34.25" y="63.58" width="6.85" height="7.06"/><rect class="cls-1" x="34.25" y="56.52" width="6.85" height="7.07"/><rect class="cls-1" x="34.25" y="49.45" width="6.85" height="7.06"/><rect class="cls-1" x="34.25" y="42.39" width="6.85" height="7.06"/><rect class="cls-1" x="34.25" y="35.32" width="6.85" height="7.07"/><rect class="cls-2" x="34.25" y="28.26" width="6.85" height="7.06"/><rect class="cls-2" x="34.25" y="21.2" width="6.85" height="7.06"/><rect x="34.25" y="14.13" width="6.85" height="7.07"/><rect x="27.4" y="148.35" width="6.85" height="7.07"/><rect class="cls-2" x="27.4" y="141.29" width="6.85" height="7.06"/><rect class="cls-2" x="27.4" y="134.23" width="6.85" height="7.06"/><rect class="cls-1" x="27.4" y="127.16" width="6.85" height="7.07"/><rect class="cls-1" x="27.4" y="120.1" width="6.85" height="7.06"/><rect class="cls-1" x="27.4" y="113.03" width="6.85" height="7.06"/><rect class="cls-1" x="27.4" y="105.97" width="6.85" height="7.07"/><rect class="cls-1" x="27.4" y="98.9" width="6.85" height="7.06"/><rect class="cls-1" x="27.4" y="91.84" width="6.85" height="7.07"/><rect class="cls-1" x="27.4" y="84.77" width="6.85" height="7.06"/><rect class="cls-1" x="27.4" y="77.71" width="6.85" height="7.06"/><rect class="cls-1" x="27.4" y="70.65" width="6.85" height="7.07"/><rect class="cls-1" x="27.4" y="63.58" width="6.85" height="7.06"/><rect class="cls-1" x="27.4" y="56.52" width="6.85" height="7.07"/><rect class="cls-1" x="27.4" y="49.45" width="6.85" height="7.06"/><rect class="cls-1" x="27.4" y="42.39" width="6.85" height="7.06"/><rect class="cls-1" x="27.4" y="35.32" width="6.85" height="7.07"/><rect class="cls-2" x="27.4" y="28.26" width="6.85" height="7.06"/><rect class="cls-2" x="27.4" y="21.2" width="6.85" height="7.06"/><rect x="27.4" y="14.13" width="6.85" height="7.07"/><rect x="20.55" y="148.35" width="6.85" height="7.07"/><rect x="20.55" y="141.29" width="6.85" height="7.06"/><rect x="20.55" y="134.23" width="6.85" height="7.06"/><rect class="cls-2" x="20.55" y="127.16" width="6.85" height="7.07"/><rect class="cls-2" x="20.55" y="120.1" width="6.85" height="7.06"/><rect class="cls-2" x="20.55" y="113.03" width="6.85" height="7.06"/><rect class="cls-1" x="20.55" y="105.97" width="6.85" height="7.07"/><rect class="cls-1" x="20.55" y="98.9" width="6.85" height="7.06"/><rect class="cls-1" x="20.55" y="91.84" width="6.85" height="7.07"/><rect class="cls-1" x="20.55" y="84.77" width="6.85" height="7.06"/><rect class="cls-1" x="20.55" y="77.71" width="6.85" height="7.06"/><rect class="cls-1" x="20.55" y="70.65" width="6.85" height="7.07"/><rect class="cls-1" x="20.55" y="63.58" width="6.85" height="7.06"/><rect class="cls-1" x="20.55" y="56.52" width="6.85" height="7.07"/><rect class="cls-2" x="20.55" y="49.45" width="6.85" height="7.06"/><rect class="cls-2" x="20.55" y="42.39" width="6.85" height="7.06"/><rect class="cls-2" x="20.55" y="35.32" width="6.85" height="7.07"/><rect x="20.55" y="28.26" width="6.85" height="7.06"/><rect x="20.55" y="21.2" width="6.85" height="7.06"/><rect x="20.55" y="14.13" width="6.85" height="7.07"/><rect x="13.7" y="134.23" width="6.85" height="7.06"/><rect x="13.7" y="127.16" width="6.85" height="7.07"/><rect x="13.7" y="120.1" width="6.85" height="7.06"/><rect x="13.7" y="113.03" width="6.85" height="7.06"/><rect class="cls-2" x="13.7" y="105.97" width="6.85" height="7.07"/><rect class="cls-2" x="13.7" y="98.9" width="6.85" height="7.06"/><rect class="cls-2" x="13.7" y="91.84" width="6.85" height="7.07"/><rect class="cls-2" x="13.7" y="84.77" width="6.85" height="7.06"/><rect class="cls-2" x="13.7" y="77.71" width="6.85" height="7.06"/><rect class="cls-2" x="13.7" y="70.65" width="6.85" height="7.07"/><rect class="cls-2" x="13.7" y="63.58" width="6.85" height="7.06"/><rect class="cls-2" x="13.7" y="56.52" width="6.85" height="7.07"/><rect x="13.7" y="49.45" width="6.85" height="7.06"/><rect x="13.7" y="42.39" width="6.85" height="7.06"/><rect x="13.7" y="35.32" width="6.85" height="7.07"/><rect x="13.7" y="28.26" width="6.85" height="7.06"/><rect x="6.85" y="113.03" width="6.85" height="7.06"/><rect class="cls-2" x="6.85" y="105.97" width="6.85" height="7.07"/><rect class="cls-2" x="6.85" y="98.9" width="6.85" height="7.06"/><rect class="cls-2" x="6.85" y="91.84" width="6.85" height="7.07"/><rect class="cls-2" x="6.85" y="84.77" width="6.85" height="7.06"/><rect class="cls-2" x="6.85" y="77.71" width="6.85" height="7.06"/><rect class="cls-2" x="6.85" y="70.65" width="6.85" height="7.07"/><rect class="cls-2" x="6.85" y="63.58" width="6.85" height="7.06"/><rect class="cls-2" x="6.85" y="56.52" width="6.85" height="7.07"/><rect x="6.85" y="49.45" width="6.85" height="7.06"/><rect y="113.03" width="6.85" height="7.06"/><rect y="105.97" width="6.85" height="7.07"/><rect y="98.9" width="6.85" height="7.06"/><rect y="91.84" width="6.85" height="7.07"/><rect y="84.77" width="6.85" height="7.06"/><rect y="77.71" width="6.85" height="7.06"/><rect y="70.65" width="6.85" height="7.07"/><rect y="63.58" width="6.85" height="7.06"/><rect y="56.52" width="6.85" height="7.07"/><rect y="49.45" width="6.85" height="7.06"/></g></g></g></svg>