<svg xmlns="http://www.w3.org/2000/svg" viewBox="0 0 248.29 1125.6"><defs><style>.cls-1{fill:#010101;}.cls-2{fill:#f6cf41;}</style></defs><g id="Layer_2" data-name="Layer 2"><g id="Layer_1-2" data-name="Layer 1"><rect class="cls-1" x="235.88" y="176.57" width="12.41" height="22.07"/><rect class="cls-1" x="235.88" y="154.5" width="12.41" height="22.07"/><rect class="cls-1" x="235.88" y="132.42" width="12.41" height="22.07"/><rect class="cls-2" x="223.47" y="176.57" width="12.41" height="22.07"/><rect class="cls-2" x="223.47" y="154.5" width="12.41" height="22.07"/><rect class="cls-2" x="223.47" y="132.42" width="12.41" height="22.07"/><rect class="cls-2" x="211.05" y="176.57" width="12.42" height="22.07"/><rect class="cls-2" x="211.05" y="154.5" width="12.42" height="22.07"/><rect class="cls-2" x="211.05" y="132.42" width="12.42" height="22.07"/><rect class="cls-1" x="198.64" y="1037.33" width="12.41" height="22.07"/><rect class="cls-1" x="198.64" y="860.76" width="12.41" height="22.07"/><rect class="cls-1" x="198.64" y="684.19" width="12.41" height="22.07"/><rect class="cls-1" x="198.64" y="507.63" width="12.41" height="22.07"/><rect class="cls-1" x="198.64" y="331.06" width="12.41" height="22.07"/><rect class="cls-2" x="198.64" y="176.57" width="12.41" height="22.07"/><rect class="cls-1" x="198.64" y="154.5" width="12.41" height="22.07"/><rect class="cls-2" x="198.64" y="132.42" width="12.41" height="22.07"/><rect class="cls-1" x="198.64" y="110.35" width="12.41" height="22.07"/><rect class="cls-1" x="186.23" y="1059.4" width="12.41" height="22.07"/><rect class="cls-2" x="186.23" y="1037.33" width="12.41" height="22.07"/><rect class="cls-1" x="186.23" y="1015.25" width="12.41" height="22.07"/><rect class="cls-1" x="186.23" y="882.83" width="12.41" height="22.07"/><rect class="cls-2" x="186.23" y="860.76" width="12.41" height="22.07"/><rect class="cls-1" x="186.23" y="838.69" width="12.41" height="22.07"/><rect class="cls-1" x="186.23" y="706.26" width="12.41" height="22.07"/><rect class="cls-2" x="186.23" y="684.19" width="12.41" height="22.07"/><rect class="cls-1" x="186.23" y="662.12" width="12.41" height="22.07"/><rect class="cls-1" x="186.23" y="529.7" width="12.41" height="22.07"/><rect class="cls-2" x="186.23" y="507.63" width="12.41" height="22.07"/><rect class="cls-1" x="186.23" y="485.56" width="12.41" height="22.07"/><rect class="cls-1" x="186.23" y="353.13" width="12.41" height="22.07"/><rect class="cls-2" x="186.23" y="331.06" width="12.41" height="22.07"/><rect class="cls-1" x="186.23" y="308.99" width="12.41" height="22.07"/><rect class="cls-1" x="186.23" y="198.64" width="12.41" height="22.07"/><rect class="cls-2" x="186.23" y="176.57" width="12.41" height="22.07"/><rect class="cls-2" x="186.23" y="132.42" width="12.41" height="22.07"/><rect class="cls-2" x="186.23" y="110.35" width="12.41" height="22.07"/><rect class="cls-1" x="186.23" y="88.28" width="12.41" height="22.07"/><rect class="cls-1" x="173.81" y="1081.47" width="12.42" height="22.07"/><rect class="cls-2" x="173.81" y="1059.4" width="12.42" height="22.07"/><rect class="cls-2" x="173.81" y="1037.33" width="12.42" height="22.07"/><rect class="cls-2" x="173.81" y="1015.25" width="12.42" height="22.07"/><rect class="cls-1" x="173.81" y="993.18" width="12.42" height="22.07"/><rect class="cls-1" x="173.81" y="904.9" width="12.42" height="22.07"/><rect class="cls-2" x="173.81" y="882.83" width="12.42" height="22.07"/><rect class="cls-2" x="173.81" y="860.76" width="12.42" height="22.07"/><rect class="cls-2" x="173.81" y="838.69" width="12.42" height="22.07"/><rect class="cls-1" x="173.81" y="816.62" width="12.42" height="22.07"/><rect class="cls-1" x="173.81" y="728.33" width="12.42" height="22.07"/><rect class="cls-2" x="173.81" y="706.26" width="12.42" height="22.07"/><rect class="cls-2" x="173.81" y="684.19" width="12.42" height="22.07"/><rect class="cls-2" x="173.81" y="662.12" width="12.42" height="22.07"/><rect class="cls-1" x="173.81" y="640.05" width="12.42" height="22.07"/><rect class="cls-1" x="173.81" y="551.77" width="12.42" height="22.07"/><rect class="cls-2" x="173.81" y="529.7" width="12.42" height="22.07"/><rect class="cls-2" x="173.81" y="507.63" width="12.42" height="22.07"/><rect class="cls-2" x="173.81" y="485.56" width="12.42" height="22.07"/><rect class="cls-1" x="173.81" y="463.49" width="12.42" height="22.07"/><rect class="cls-1" x="173.81" y="375.2" width="12.42" height="22.07"/><rect class="cls-2" x="173.81" y="353.13" width="12.42" height="22.07"/><rect class="cls-2" x="173.81" y="331.06" width="12.42" height="22.07"/><rect class="cls-2" x="173.81" y="308.99" width="12.42" height="22.07"/><rect class="cls-1" x="173.81" y="286.92" width="12.42" height="22.07"/><rect class="cls-1" x="173.81" y="220.71" width="12.42" height="22.07"/><rect class="cls-2" x="173.81" y="198.64" width="12.42" height="22.07"/><rect class="cls-2" x="173.81" y="176.57" width="12.42" height="22.07"/><rect class="cls-2" x="173.81" y="132.42" width="12.42" height="22.07"/><rect class="cls-2" x="173.81" y="110.35" width="12.42" height="22.07"/><rect class="cls-2" x="173.81" y="88.28" width="12.42" height="22.07"/><rect class="cls-1" x="161.39" y="1103.54" width="12.41" height="22.06"/><rect class="cls-2" x="161.39" y="1081.47" width="12.41" height="22.07"/><rect class="cls-2" x="161.39" y="1059.4" width="12.41" height="22.07"/><rect class="cls-2" x="161.39" y="1037.33" width="12.41" height="22.07"/><rect class="cls-2" x="161.39" y="1015.25" width="12.41" height="22.07"/><rect class="cls-2" x="161.39" y="993.18" width="12.41" height="22.07"/><rect class="cls-1" x="161.39" y="971.11" width="12.41" height="22.07"/><rect class="cls-1" x="161.39" y="926.97" width="12.41" height="22.07"/><rect class="cls-2" x="161.39" y="904.9" width="12.41" height="22.07"/><rect class="cls-2" x="161.39" y="882.83" width="12.41" height="22.07"/><rect class="cls-2" x="161.39" y="860.76" width="12.41" height="22.07"/><rect class="cls-2" x="161.39" y="838.69" width="12.41" height="22.07"/><rect class="cls-2" x="161.39" y="816.62" width="12.41" height="22.07"/><rect class="cls-1" x="161.39" y="794.55" width="12.41" height="22.07"/><rect class="cls-1" x="161.39" y="750.41" width="12.41" height="22.07"/><rect class="cls-2" x="161.39" y="728.33" width="12.41" height="22.07"/><rect class="cls-2" x="161.39" y="706.26" width="12.41" height="22.07"/><rect class="cls-2" x="161.39" y="684.19" width="12.41" height="22.07"/><rect class="cls-2" x="161.39" y="662.12" width="12.41" height="22.07"/><rect class="cls-2" x="161.39" y="640.05" width="12.41" height="22.07"/><rect class="cls-1" x="161.39" y="617.98" width="12.41" height="22.07"/><rect class="cls-1" x="161.39" y="573.84" width="12.41" height="22.07"/><rect class="cls-2" x="161.39" y="551.77" width="12.41" height="22.07"/><rect class="cls-2" x="161.39" y="529.7" width="12.41" height="22.07"/><rect class="cls-2" x="161.39" y="507.63" width="12.41" height="22.07"/><rect class="cls-2" x="161.39" y="485.56" width="12.41" height="22.07"/><rect class="cls-2" x="161.39" y="463.49" width="12.41" height="22.07"/><rect class="cls-1" x="161.39" y="441.42" width="12.41" height="22.07"/><rect class="cls-1" x="161.39" y="397.27" width="12.41" height="22.07"/><rect class="cls-2" x="161.39" y="375.2" width="12.41" height="22.07"/><rect class="cls-2" x="161.39" y="353.13" width="12.41" height="22.07"/><rect class="cls-2" x="161.39" y="331.06" width="12.41" height="22.07"/><rect class="cls-2" x="161.39" y="308.99" width="12.41" height="22.07"/><rect class="cls-2" x="161.39" y="286.92" width="12.41" height="22.07"/><rect class="cls-1" x="161.39" y="264.85" width="12.41" height="22.07"/><rect class="cls-2" x="161.39" y="220.71" width="12.41" height="22.07"/><rect class="cls-2" x="161.39" y="198.64" width="12.41" height="22.07"/><rect class="cls-2" x="161.39" y="176.57" width="12.41" height="22.07"/><rect class="cls-2" x="161.39" y="132.42" width="12.41" height="22.07"/><rect class="cls-1" x="161.39" y="110.35" width="12.41" height="22.07"/><rect class="cls-2" x="161.39" y="88.28" width="12.41" height="22.07"/><rect class="cls-2" x="148.98" y="1103.54" width="12.41" height="22.06"/><rect class="cls-2" x="148.98" y="1081.47" width="12.41" height="22.07"/><rect class="cls-2" x="148.98" y="1059.4" width="12.41" height="22.07"/><rect class="cls-1" x="148.98" y="1037.33" width="12.41" height="22.07"/><rect class="cls-2" x="148.98" y="1015.25" width="12.41" height="22.07"/><rect class="cls-2" x="148.98" y="993.18" width="12.41" height="22.07"/><rect class="cls-2" x="148.98" y="971.11" width="12.41" height="22.07"/><rect class="cls-1" x="148.98" y="949.04" width="12.41" height="22.07"/><rect class="cls-2" x="148.98" y="926.97" width="12.41" height="22.07"/><rect class="cls-2" x="148.98" y="904.9" width="12.41" height="22.07"/><rect class="cls-2" x="148.98" y="882.83" width="12.41" height="22.07"/><rect class="cls-1" x="148.98" y="860.76" width="12.41" height="22.07"/><rect class="cls-2" x="148.98" y="838.69" width="12.41" height="22.07"/><rect class="cls-2" x="148.98" y="816.62" width="12.41" height="22.07"/><rect class="cls-2" x="148.98" y="794.55" width="12.41" height="22.07"/><rect class="cls-1" x="148.98" y="772.48" width="12.41" height="22.07"/><rect class="cls-2" x="148.98" y="750.41" width="12.41" height="22.07"/><rect class="cls-2" x="148.98" y="728.33" width="12.41" height="22.07"/><rect class="cls-2" x="148.98" y="706.26" width="12.41" height="22.07"/><rect class="cls-1" x="148.98" y="684.19" width="12.41" height="22.07"/><rect class="cls-2" x="148.98" y="662.12" width="12.41" height="22.07"/><rect class="cls-2" x="148.98" y="640.05" width="12.41" height="22.07"/><rect class="cls-2" x="148.98" y="617.98" width="12.41" height="22.07"/><rect class="cls-1" x="148.98" y="595.91" width="12.41" height="22.07"/><rect class="cls-2" x="148.98" y="573.84" width="12.41" height="22.07"/><rect class="cls-2" x="148.98" y="551.77" width="12.41" height="22.07"/><rect class="cls-2" x="148.98" y="529.7" width="12.41" height="22.07"/><rect class="cls-1" x="148.98" y="507.63" width="12.41" height="22.07"/><rect class="cls-2" x="148.98" y="485.56" width="12.41" height="22.07"/><rect class="cls-2" x="148.98" y="463.49" width="12.41" height="22.07"/><rect class="cls-2" x="148.98" y="441.42" width="12.41" height="22.07"/><rect class="cls-1" x="148.98" y="419.34" width="12.41" height="22.07"/><rect class="cls-2" x="148.98" y="397.27" width="12.41" height="22.07"/><rect class="cls-2" x="148.98" y="375.2" width="12.41" height="22.07"/><rect class="cls-2" x="148.98" y="353.13" width="12.41" height="22.07"/><rect class="cls-1" x="148.98" y="331.06" width="12.41" height="22.07"/><rect class="cls-2" x="148.98" y="308.99" width="12.41" height="22.07"/><rect class="cls-2" x="148.98" y="286.92" width="12.41" height="22.07"/><rect class="cls-2" x="148.98" y="264.85" width="12.41" height="22.07"/><rect class="cls-1" x="148.98" y="242.78" width="12.41" height="22.07"/><rect class="cls-2" x="148.98" y="220.71" width="12.41" height="22.07"/><rect class="cls-2" x="148.98" y="198.64" width="12.41" height="22.07"/><rect class="cls-2" x="148.98" y="176.57" width="12.41" height="22.07"/><rect class="cls-2" x="148.98" y="132.42" width="12.41" height="22.07"/><rect class="cls-2" x="148.98" y="88.28" width="12.41" height="22.07"/><rect class="cls-2" x="136.57" y="1103.54" width="12.41" height="22.06"/><rect class="cls-2" x="136.57" y="1081.47" width="12.41" height="22.07"/><rect class="cls-1" x="136.57" y="1059.4" width="12.41" height="22.07"/><rect class="cls-1" x="136.57" y="1015.25" width="12.41" height="22.07"/><rect class="cls-2" x="136.57" y="993.18" width="12.41" height="22.07"/><rect class="cls-2" x="136.57" y="971.11" width="12.41" height="22.07"/><rect class="cls-2" x="136.57" y="949.04" width="12.41" height="22.07"/><rect class="cls-2" x="136.57" y="926.97" width="12.41" height="22.07"/><rect class="cls-2" x="136.57" y="904.9" width="12.41" height="22.07"/><rect class="cls-1" x="136.57" y="882.83" width="12.41" height="22.07"/><rect class="cls-1" x="136.57" y="838.69" width="12.41" height="22.07"/><rect class="cls-2" x="136.57" y="816.62" width="12.41" height="22.07"/><rect class="cls-2" x="136.57" y="794.55" width="12.41" height="22.07"/><rect class="cls-2" x="136.57" y="772.48" width="12.41" height="22.07"/><rect class="cls-2" x="136.57" y="750.41" width="12.41" height="22.07"/><rect class="cls-2" x="136.57" y="728.33" width="12.41" height="22.07"/><rect class="cls-1" x="136.57" y="706.26" width="12.41" height="22.07"/><rect class="cls-1" x="136.57" y="662.12" width="12.41" height="22.07"/><rect class="cls-2" x="136.57" y="640.05" width="12.41" height="22.07"/><rect class="cls-2" x="136.57" y="617.98" width="12.41" height="22.07"/><rect class="cls-2" x="136.57" y="595.91" width="12.41" height="22.07"/><rect class="cls-2" x="136.57" y="573.84" width="12.41" height="22.07"/><rect class="cls-2" x="136.57" y="551.77" width="12.41" height="22.07"/><rect class="cls-1" x="136.57" y="529.7" width="12.41" height="22.07"/><rect class="cls-1" x="136.57" y="485.56" width="12.41" height="22.07"/><rect class="cls-2" x="136.57" y="463.49" width="12.41" height="22.07"/><rect class="cls-2" x="136.57" y="441.42" width="12.41" height="22.07"/><rect class="cls-2" x="136.57" y="419.34" width="12.41" height="22.07"/><rect class="cls-2" x="136.57" y="397.27" width="12.41" height="22.07"/><rect class="cls-2" x="136.57" y="375.2" width="12.41" height="22.07"/><rect class="cls-1" x="136.57" y="353.13" width="12.41" height="22.07"/><rect class="cls-1" x="136.57" y="308.99" width="12.41" height="22.07"/><rect class="cls-2" x="136.57" y="286.92" width="12.41" height="22.07"/><rect class="cls-2" x="136.57" y="264.85" width="12.41" height="22.07"/><rect class="cls-2" x="136.57" y="242.78" width="12.41" height="22.07"/><rect class="cls-2" x="136.57" y="220.71" width="12.41" height="22.07"/><rect class="cls-1" x="136.57" y="198.64" width="12.41" height="22.07"/><rect class="cls-2" x="136.57" y="176.57" width="12.41" height="22.07"/><rect class="cls-2" x="136.57" y="132.42" width="12.41" height="22.07"/><rect class="cls-2" x="136.57" y="88.28" width="12.41" height="22.07"/><rect class="cls-1" x="136.57" y="66.21" width="12.41" height="22.07"/><rect class="cls-1" x="136.57" y="44.14" width="12.41" height="22.07"/><rect class="cls-1" x="136.57" y="22.07" width="12.41" height="22.07"/><rect class="cls-2" x="124.15" y="1103.54" width="12.42" height="22.06"/><rect class="cls-1" x="124.15" y="1081.47" width="12.42" height="22.07"/><rect class="cls-1" x="124.15" y="993.18" width="12.42" height="22.07"/><rect class="cls-2" x="124.15" y="971.11" width="12.42" height="22.07"/><rect class="cls-2" x="124.15" y="949.04" width="12.42" height="22.07"/><rect class="cls-2" x="124.15" y="926.97" width="12.42" height="22.07"/><rect class="cls-1" x="124.15" y="904.9" width="12.42" height="22.07"/><rect class="cls-1" x="124.15" y="816.62" width="12.42" height="22.07"/><rect class="cls-2" x="124.15" y="794.55" width="12.42" height="22.07"/><rect class="cls-2" x="124.15" y="772.48" width="12.42" height="22.07"/><rect class="cls-2" x="124.15" y="750.41" width="12.42" height="22.07"/><rect class="cls-1" x="124.15" y="728.33" width="12.42" height="22.07"/><rect class="cls-1" x="124.15" y="640.05" width="12.42" height="22.07"/><rect class="cls-2" x="124.15" y="617.98" width="12.42" height="22.07"/><rect class="cls-2" x="124.15" y="595.91" width="12.42" height="22.07"/><rect class="cls-2" x="124.15" y="573.84" width="12.42" height="22.07"/><rect class="cls-1" x="124.15" y="551.77" width="12.42" height="22.07"/><rect class="cls-1" x="124.15" y="463.49" width="12.42" height="22.07"/><rect class="cls-2" x="124.15" y="441.42" width="12.42" height="22.07"/><rect class="cls-2" x="124.15" y="419.34" width="12.42" height="22.07"/><rect class="cls-2" x="124.15" y="397.27" width="12.42" height="22.07"/><rect class="cls-1" x="124.15" y="375.2" width="12.42" height="22.07"/><rect class="cls-1" x="124.15" y="286.92" width="12.42" height="22.07"/><rect class="cls-2" x="124.15" y="264.85" width="12.42" height="22.07"/><rect class="cls-2" x="124.15" y="242.78" width="12.42" height="22.07"/><rect class="cls-1" x="124.15" y="220.71" width="12.42" height="22.07"/><rect class="cls-2" x="124.15" y="176.57" width="12.42" height="22.07"/><rect class="cls-2" x="124.15" y="132.42" width="12.42" height="22.07"/><rect class="cls-2" x="124.15" y="88.28" width="12.42" height="22.07"/><rect class="cls-2" x="124.15" y="66.21" width="12.42" height="22.07"/><rect class="cls-2" x="124.15" y="44.14" width="12.42" height="22.07"/><rect class="cls-2" x="124.15" y="22.07" width="12.42" height="22.07"/><rect class="cls-1" x="124.15" width="12.42" height="22.07"/><rect class="cls-2" x="111.74" y="1103.54" width="12.41" height="22.06"/><rect class="cls-1" x="111.74" y="1081.47" width="12.41" height="22.07"/><rect class="cls-1" x="111.74" y="993.18" width="12.41" height="22.07"/><rect class="cls-2" x="111.74" y="971.11" width="12.41" height="22.07"/><rect class="cls-2" x="111.74" y="949.04" width="12.41" height="22.07"/><rect class="cls-2" x="111.74" y="926.97" width="12.41" height="22.07"/><rect class="cls-1" x="111.74" y="904.9" width="12.41" height="22.07"/><rect class="cls-1" x="111.74" y="816.62" width="12.41" height="22.07"/><rect class="cls-2" x="111.74" y="794.55" width="12.41" height="22.07"/><rect class="cls-2" x="111.74" y="772.48" width="12.41" height="22.07"/><rect class="cls-2" x="111.74" y="750.41" width="12.41" height="22.07"/><rect class="cls-1" x="111.74" y="728.33" width="12.41" height="22.07"/><rect class="cls-1" x="111.74" y="640.05" width="12.41" height="22.07"/><rect class="cls-2" x="111.74" y="617.98" width="12.41" height="22.07"/><rect class="cls-2" x="111.74" y="595.91" width="12.41" height="22.07"/><rect class="cls-2" x="111.74" y="573.84" width="12.41" height="22.07"/><rect class="cls-1" x="111.74" y="551.77" width="12.41" height="22.07"/><rect class="cls-1" x="111.74" y="463.49" width="12.41" height="22.07"/><rect class="cls-2" x="111.74" y="441.42" width="12.41" height="22.07"/><rect class="cls-2" x="111.74" y="419.34" width="12.41" height="22.07"/><rect class="cls-2" x="111.74" y="397.27" width="12.41" height="22.07"/><rect class="cls-1" x="111.74" y="375.2" width="12.41" height="22.07"/><rect class="cls-1" x="111.74" y="286.92" width="12.41" height="22.07"/><rect class="cls-2" x="111.74" y="264.85" width="12.41" height="22.07"/><rect class="cls-2" x="111.74" y="242.78" width="12.41" height="22.07"/><rect class="cls-1" x="111.74" y="220.71" width="12.41" height="22.07"/><rect class="cls-2" x="111.74" y="176.57" width="12.41" height="22.07"/><rect class="cls-2" x="111.74" y="132.42" width="12.41" height="22.07"/><rect class="cls-2" x="111.74" y="88.28" width="12.41" height="22.07"/><rect class="cls-2" x="111.74" y="66.21" width="12.41" height="22.07"/><rect class="cls-2" x="111.74" y="44.14" width="12.41" height="22.07"/><rect class="cls-2" x="111.74" y="22.07" width="12.41" height="22.07"/><rect class="cls-1" x="111.74" width="12.41" height="22.07"/><rect class="cls-2" x="99.33" y="1103.54" width="12.41" height="22.06"/><rect class="cls-2" x="99.33" y="1081.47" width="12.41" height="22.07"/><rect class="cls-1" x="99.33" y="1059.4" width="12.41" height="22.07"/><rect class="cls-1" x="99.33" y="1015.25" width="12.41" height="22.07"/><rect class="cls-2" x="99.33" y="993.18" width="12.41" height="22.07"/><rect class="cls-2" x="99.33" y="971.11" width="12.41" height="22.07"/><rect class="cls-2" x="99.33" y="949.04" width="12.41" height="22.07"/><rect class="cls-2" x="99.33" y="926.97" width="12.41" height="22.07"/><rect class="cls-2" x="99.33" y="904.9" width="12.41" height="22.07"/><rect class="cls-1" x="99.33" y="882.83" width="12.41" height="22.07"/><rect class="cls-1" x="99.33" y="838.69" width="12.41" height="22.07"/><rect class="cls-2" x="99.33" y="816.62" width="12.41" height="22.07"/><rect class="cls-2" x="99.33" y="794.55" width="12.41" height="22.07"/><rect class="cls-2" x="99.33" y="772.48" width="12.41" height="22.07"/><rect class="cls-2" x="99.33" y="750.41" width="12.41" height="22.07"/><rect class="cls-2" x="99.33" y="728.33" width="12.41" height="22.07"/><rect class="cls-1" x="99.33" y="706.26" width="12.41" height="22.07"/><rect class="cls-1" x="99.33" y="662.12" width="12.41" height="22.07"/><rect class="cls-2" x="99.33" y="640.05" width="12.41" height="22.07"/><rect class="cls-2" x="99.33" y="617.98" width="12.41" height="22.07"/><rect class="cls-2" x="99.33" y="595.91" width="12.41" height="22.07"/><rect class="cls-2" x="99.33" y="573.84" width="12.41" height="22.07"/><rect class="cls-2" x="99.33" y="551.77" width="12.41" height="22.07"/><rect class="cls-1" x="99.33" y="529.7" width="12.41" height="22.07"/><rect class="cls-1" x="99.33" y="485.56" width="12.41" height="22.07"/><rect class="cls-2" x="99.33" y="463.49" width="12.41" height="22.07"/><rect class="cls-2" x="99.33" y="441.42" width="12.41" height="22.07"/><rect class="cls-2" x="99.33" y="419.34" width="12.41" height="22.07"/><rect class="cls-2" x="99.33" y="397.27" width="12.41" height="22.07"/><rect class="cls-2" x="99.33" y="375.2" width="12.41" height="22.07"/><rect class="cls-1" x="99.33" y="353.13" width="12.41" height="22.07"/><rect class="cls-1" x="99.33" y="308.99" width="12.41" height="22.07"/><rect class="cls-2" x="99.33" y="286.92" width="12.41" height="22.07"/><rect class="cls-2" x="99.33" y="264.85" width="12.41" height="22.07"/><rect class="cls-2" x="99.33" y="242.78" width="12.41" height="22.07"/><rect class="cls-2" x="99.33" y="220.71" width="12.41" height="22.07"/><rect class="cls-1" x="99.33" y="198.64" width="12.41" height="22.07"/><rect class="cls-2" x="99.33" y="176.57" width="12.41" height="22.07"/><rect class="cls-2" x="99.33" y="132.42" width="12.41" height="22.07"/><rect class="cls-2" x="99.33" y="88.28" width="12.41" height="22.07"/><rect class="cls-1" x="99.33" y="66.21" width="12.41" height="22.07"/><rect class="cls-1" x="99.33" y="44.14" width="12.41" height="22.07"/><rect class="cls-1" x="99.33" y="22.07" width="12.41" height="22.07"/><rect class="cls-2" x="86.9" y="1103.54" width="12.42" height="22.06"/><rect class="cls-2" x="86.9" y="1081.47" width="12.42" height="22.07"/><rect class="cls-2" x="86.9" y="1059.4" width="12.42" height="22.07"/><rect class="cls-1" x="86.9" y="1037.33" width="12.42" height="22.07"/><rect class="cls-2" x="86.9" y="1015.25" width="12.42" height="22.07"/><rect class="cls-2" x="86.9" y="993.18" width="12.42" height="22.07"/><rect class="cls-2" x="86.9" y="971.11" width="12.42" height="22.07"/><rect class="cls-1" x="86.9" y="949.04" width="12.42" height="22.07"/><rect class="cls-2" x="86.9" y="926.97" width="12.42" height="22.07"/><rect class="cls-2" x="86.9" y="904.9" width="12.42" height="22.07"/><rect class="cls-2" x="86.9" y="882.83" width="12.42" height="22.07"/><rect class="cls-1" x="86.9" y="860.76" width="12.42" height="22.07"/><rect class="cls-2" x="86.9" y="838.69" width="12.42" height="22.07"/><rect class="cls-2" x="86.9" y="816.62" width="12.42" height="22.07"/><rect class="cls-2" x="86.9" y="794.55" width="12.42" height="22.07"/><rect class="cls-1" x="86.9" y="772.48" width="12.42" height="22.07"/><rect class="cls-2" x="86.9" y="750.41" width="12.42" height="22.07"/><rect class="cls-2" x="86.9" y="728.33" width="12.42" height="22.07"/><rect class="cls-2" x="86.9" y="706.26" width="12.42" height="22.07"/><rect class="cls-1" x="86.9" y="684.19" width="12.42" height="22.07"/><rect class="cls-2" x="86.9" y="662.12" width="12.42" height="22.07"/><rect class="cls-2" x="86.9" y="640.05" width="12.42" height="22.07"/><rect class="cls-2" x="86.9" y="617.98" width="12.42" height="22.07"/><rect class="cls-1" x="86.9" y="595.91" width="12.42" height="22.07"/><rect class="cls-2" x="86.9" y="573.84" width="12.42" height="22.07"/><rect class="cls-2" x="86.9" y="551.77" width="12.42" height="22.07"/><rect class="cls-2" x="86.9" y="529.7" width="12.42" height="22.07"/><rect class="cls-1" x="86.9" y="507.63" width="12.42" height="22.07"/><rect class="cls-2" x="86.9" y="485.56" width="12.42" height="22.07"/><rect class="cls-2" x="86.9" y="463.49" width="12.42" height="22.07"/><rect class="cls-2" x="86.9" y="441.42" width="12.42" height="22.07"/><rect class="cls-1" x="86.9" y="419.34" width="12.42" height="22.07"/><rect class="cls-2" x="86.9" y="397.27" width="12.42" height="22.07"/><rect class="cls-2" x="86.9" y="375.2" width="12.42" height="22.07"/><rect class="cls-2" x="86.9" y="353.13" width="12.42" height="22.07"/><rect class="cls-1" x="86.9" y="331.06" width="12.42" height="22.07"/><rect class="cls-2" x="86.9" y="308.99" width="12.42" height="22.07"/><rect class="cls-2" x="86.9" y="286.92" width="12.42" height="22.07"/><rect class="cls-2" x="86.9" y="264.85" width="12.42" height="22.07"/><rect class="cls-1" x="86.9" y="242.78" width="12.42" height="22.07"/><rect class="cls-2" x="86.9" y="220.71" width="12.42" height="22.07"/><rect class="cls-2" x="86.9" y="198.64" width="12.42" height="22.07"/><rect class="cls-2" x="86.9" y="176.57" width="12.42" height="22.07"/><rect class="cls-2" x="86.9" y="132.42" width="12.42" height="22.07"/><rect class="cls-2" x="86.9" y="88.28" width="12.42" height="22.07"/><rect class="cls-1" x="74.49" y="1103.54" width="12.41" height="22.06"/><rect class="cls-2" x="74.49" y="1081.47" width="12.41" height="22.07"/><rect class="cls-2" x="74.49" y="1059.4" width="12.41" height="22.07"/><rect class="cls-2" x="74.49" y="1037.33" width="12.41" height="22.07"/><rect class="cls-2" x="74.49" y="1015.25" width="12.41" height="22.07"/><rect class="cls-2" x="74.49" y="993.18" width="12.41" height="22.07"/><rect class="cls-1" x="74.49" y="971.11" width="12.41" height="22.07"/><rect class="cls-1" x="74.49" y="926.97" width="12.41" height="22.07"/><rect class="cls-2" x="74.49" y="904.9" width="12.41" height="22.07"/><rect class="cls-2" x="74.49" y="882.83" width="12.41" height="22.07"/><rect class="cls-2" x="74.49" y="860.76" width="12.41" height="22.07"/><rect class="cls-2" x="74.49" y="838.69" width="12.41" height="22.07"/><rect class="cls-2" x="74.49" y="816.62" width="12.41" height="22.07"/><rect class="cls-1" x="74.49" y="794.55" width="12.41" height="22.07"/><rect class="cls-1" x="74.49" y="750.41" width="12.41" height="22.07"/><rect class="cls-2" x="74.49" y="728.33" width="12.41" height="22.07"/><rect class="cls-2" x="74.49" y="706.26" width="12.41" height="22.07"/><rect class="cls-2" x="74.49" y="684.19" width="12.41" height="22.07"/><rect class="cls-2" x="74.49" y="662.12" width="12.41" height="22.07"/><rect class="cls-2" x="74.49" y="640.05" width="12.41" height="22.07"/><rect class="cls-1" x="74.49" y="617.98" width="12.41" height="22.07"/><rect class="cls-1" x="74.49" y="573.84" width="12.41" height="22.07"/><rect class="cls-2" x="74.49" y="551.77" width="12.41" height="22.07"/><rect class="cls-2" x="74.49" y="529.7" width="12.41" height="22.07"/><rect class="cls-2" x="74.49" y="507.63" width="12.41" height="22.07"/><rect class="cls-2" x="74.49" y="485.56" width="12.41" height="22.07"/><rect class="cls-2" x="74.49" y="463.49" width="12.41" height="22.07"/><rect class="cls-1" x="74.49" y="441.42" width="12.41" height="22.07"/><rect class="cls-1" x="74.49" y="397.27" width="12.41" height="22.07"/><rect class="cls-2" x="74.49" y="375.2" width="12.41" height="22.07"/><rect class="cls-2" x="74.49" y="353.13" width="12.41" height="22.07"/><rect class="cls-2" x="74.49" y="331.06" width="12.41" height="22.07"/><rect class="cls-2" x="74.49" y="308.99" width="12.41" height="22.07"/><rect class="cls-2" x="74.49" y="286.92" width="12.41" height="22.07"/><rect class="cls-1" x="74.49" y="264.85" width="12.41" height="22.07"/><rect class="cls-2" x="74.49" y="220.71" width="12.41" height="22.07"/><rect class="cls-2" x="74.49" y="198.64" width="12.41" height="22.07"/><rect class="cls-2" x="74.49" y="176.57" width="12.41" height="22.07"/><rect class="cls-2" x="74.49" y="132.42" width="12.41" height="22.07"/><rect class="cls-1" x="74.49" y="110.35" width="12.41" height="22.07"/><rect class="cls-2" x="74.49" y="88.28" width="12.41" height="22.07"/><rect class="cls-1" x="62.08" y="1081.47" width="12.41" height="22.07"/><rect class="cls-2" x="62.08" y="1059.4" width="12.41" height="22.07"/><rect class="cls-2" x="62.08" y="1037.33" width="12.41" height="22.07"/><rect class="cls-2" x="62.08" y="1015.25" width="12.41" height="22.07"/><rect class="cls-1" x="62.08" y="993.18" width="12.41" height="22.07"/><rect class="cls-1" x="62.08" y="904.9" width="12.41" height="22.07"/><rect class="cls-2" x="62.08" y="882.83" width="12.41" height="22.07"/><rect class="cls-2" x="62.08" y="860.76" width="12.41" height="22.07"/><rect class="cls-2" x="62.08" y="838.69" width="12.41" height="22.07"/><rect class="cls-1" x="62.08" y="816.62" width="12.41" height="22.07"/><rect class="cls-1" x="62.08" y="728.33" width="12.41" height="22.07"/><rect class="cls-2" x="62.08" y="706.26" width="12.41" height="22.07"/><rect class="cls-2" x="62.08" y="684.19" width="12.41" height="22.07"/><rect class="cls-2" x="62.08" y="662.12" width="12.41" height="22.07"/><rect class="cls-1" x="62.08" y="640.05" width="12.41" height="22.07"/><rect class="cls-1" x="62.08" y="551.77" width="12.41" height="22.07"/><rect class="cls-2" x="62.08" y="529.7" width="12.41" height="22.07"/><rect class="cls-2" x="62.08" y="507.63" width="12.41" height="22.07"/><rect class="cls-2" x="62.08" y="485.56" width="12.41" height="22.07"/><rect class="cls-1" x="62.08" y="463.49" width="12.41" height="22.07"/><rect class="cls-1" x="62.08" y="375.2" width="12.41" height="22.07"/><rect class="cls-2" x="62.08" y="353.13" width="12.41" height="22.07"/><rect class="cls-2" x="62.08" y="331.06" width="12.41" height="22.07"/><rect class="cls-2" x="62.08" y="308.99" width="12.41" height="22.07"/><rect class="cls-1" x="62.08" y="286.92" width="12.41" height="22.07"/><rect class="cls-1" x="62.08" y="220.71" width="12.41" height="22.07"/><rect class="cls-2" x="62.08" y="198.64" width="12.41" height="22.07"/><rect class="cls-2" x="62.08" y="176.57" width="12.41" height="22.07"/><rect class="cls-2" x="62.08" y="132.42" width="12.41" height="22.07"/><rect class="cls-2" x="62.08" y="110.35" width="12.41" height="22.07"/><rect class="cls-2" x="62.08" y="88.28" width="12.41" height="22.07"/><rect class="cls-1" x="49.66" y="1059.4" width="12.42" height="22.07"/><rect class="cls-2" x="49.66" y="1037.33" width="12.42" height="22.07"/><rect class="cls-1" x="49.66" y="1015.25" width="12.42" height="22.07"/><rect class="cls-1" x="49.66" y="882.83" width="12.42" height="22.07"/><rect class="cls-2" x="49.66" y="860.76" width="12.42" height="22.07"/><rect class="cls-1" x="49.66" y="838.69" width="12.42" height="22.07"/><rect class="cls-1" x="49.66" y="706.26" width="12.42" height="22.07"/><rect class="cls-2" x="49.66" y="684.19" width="12.42" height="22.07"/><rect class="cls-1" x="49.66" y="662.12" width="12.42" height="22.07"/><rect class="cls-1" x="49.66" y="529.7" width="12.42" height="22.07"/><rect class="cls-2" x="49.66" y="507.63" width="12.42" height="22.07"/><rect class="cls-1" x="49.66" y="485.56" width="12.42" height="22.07"/><rect class="cls-1" x="49.66" y="353.13" width="12.42" height="22.07"/><rect class="cls-2" x="49.66" y="331.06" width="12.42" height="22.07"/><rect class="cls-1" x="49.66" y="308.99" width="12.42" height="22.07"/><rect class="cls-1" x="49.66" y="198.64" width="12.42" height="22.07"/><rect class="cls-2" x="49.66" y="176.57" width="12.42" height="22.07"/><rect class="cls-2" x="49.66" y="132.42" width="12.42" height="22.07"/><rect class="cls-2" x="49.66" y="110.35" width="12.42" height="22.07"/><rect class="cls-1" x="49.66" y="88.28" width="12.42" height="22.07"/><rect class="cls-1" x="37.25" y="1037.33" width="12.41" height="22.07"/><rect class="cls-1" x="37.25" y="860.76" width="12.41" height="22.07"/><rect class="cls-1" x="37.25" y="684.19" width="12.41" height="22.07"/><rect class="cls-1" x="37.25" y="507.63" width="12.41" height="22.07"/><rect class="cls-1" x="37.25" y="331.06" width="12.41" height="22.07"/><rect class="cls-2" x="37.25" y="176.57" width="12.41" height="22.07"/><rect class="cls-1" x="37.25" y="154.5" width="12.41" height="22.07"/><rect class="cls-2" x="37.25" y="132.42" width="12.41" height="22.07"/><rect class="cls-1" x="37.25" y="110.35" width="12.41" height="22.07"/><rect class="cls-2" x="24.84" y="176.57" width="12.41" height="22.07"/><rect class="cls-2" x="24.84" y="154.5" width="12.41" height="22.07"/><rect class="cls-2" x="24.84" y="132.42" width="12.41" height="22.07"/><rect class="cls-2" x="12.42" y="176.57" width="12.41" height="22.07"/><rect class="cls-2" x="12.42" y="154.5" width="12.41" height="22.07"/><rect class="cls-2" x="12.42" y="132.42" width="12.41" height="22.07"/><rect class="cls-1" y="176.57" width="12.42" height="22.07"/><rect class="cls-1" y="154.5" width="12.42" height="22.07"/><rect class="cls-1" y="132.42" width="12.42" height="22.07"/></g></g></svg>