<svg xmlns="http://www.w3.org/2000/svg" viewBox="0 0 432.66 136.85"><defs><style>.cls-1{fill:#f4d1b4;}.cls-2{fill:#010101;}.cls-3{fill:#e76224;}.cls-4{fill:#f39f44;}</style></defs><g id="Layer_2" data-name="Layer 2"><g id="Layer_1-2" data-name="Layer 1"><rect class="cls-1" x="339.11" width="11.7" height="11.4"/><rect class="cls-1" x="327.41" width="11.7" height="11.4"/><rect class="cls-1" x="409.27" width="11.69" height="11.4"/><rect class="cls-1" x="397.58" width="11.7" height="11.4"/><rect class="cls-1" x="385.88" width="11.7" height="11.4"/><rect class="cls-1" x="374.19" width="11.7" height="11.4"/><rect class="cls-1" x="362.5" width="11.69" height="11.4"/><rect class="cls-1" x="350.8" width="11.7" height="11.4"/><rect class="cls-1" x="292.34" width="11.7" height="11.4"/><rect class="cls-1" x="315.73" width="11.69" height="11.4"/><rect class="cls-1" x="304.03" width="11.7" height="11.4"/><rect class="cls-1" x="128.63" width="11.69" height="11.4"/><rect class="cls-1" x="116.94" width="11.7" height="11.4"/><rect class="cls-1" x="105.24" width="11.7" height="11.4"/><rect class="cls-1" x="93.55" width="11.7" height="11.4"/><rect class="cls-1" x="81.86" width="11.69" height="11.4"/><rect class="cls-1" x="70.17" width="11.7" height="11.4"/><rect class="cls-1" x="58.47" width="11.7" height="11.4"/><rect class="cls-1" x="46.78" width="11.7" height="11.4"/><rect class="cls-1" x="35.09" width="11.69" height="11.4"/><rect class="cls-1" x="23.39" width="11.7" height="11.4"/><rect class="cls-1" x="11.7" width="11.7" height="11.4"/><rect class="cls-2" x="420.96" y="114.05" width="11.7" height="11.4"/><rect class="cls-2" x="420.96" y="102.64" width="11.7" height="11.41"/><rect class="cls-2" x="420.96" y="91.24" width="11.7" height="11.4"/><rect class="cls-2" x="420.96" y="79.83" width="11.7" height="11.4"/><rect class="cls-2" x="420.96" y="68.43" width="11.7" height="11.4"/><rect class="cls-2" x="420.96" y="57.02" width="11.7" height="11.4"/><rect class="cls-2" x="420.96" y="45.62" width="11.7" height="11.4"/><rect class="cls-2" x="420.96" y="34.22" width="11.7" height="11.4"/><rect class="cls-2" x="420.96" y="22.81" width="11.7" height="11.4"/><rect class="cls-2" x="420.96" y="11.4" width="11.7" height="11.41"/><rect class="cls-2" x="409.27" y="125.45" width="11.69" height="11.4"/><rect class="cls-3" x="409.27" y="114.05" width="11.69" height="11.4"/><rect class="cls-3" x="409.27" y="102.64" width="11.69" height="11.41"/><rect class="cls-2" x="409.27" y="91.24" width="11.69" height="11.4"/><rect class="cls-3" x="409.27" y="79.83" width="11.69" height="11.4"/><rect class="cls-3" x="409.27" y="68.43" width="11.69" height="11.4"/><rect class="cls-2" x="409.27" y="57.02" width="11.69" height="11.4"/><rect class="cls-3" x="409.27" y="45.62" width="11.69" height="11.4"/><rect class="cls-3" x="409.27" y="34.22" width="11.69" height="11.4"/><rect class="cls-2" x="409.27" y="22.81" width="11.69" height="11.4"/><rect class="cls-3" x="409.27" y="11.4" width="11.69" height="11.41"/><rect class="cls-2" x="397.58" y="125.45" width="11.7" height="11.4"/><rect class="cls-3" x="397.58" y="114.05" width="11.7" height="11.4"/><rect class="cls-3" x="397.58" y="102.64" width="11.7" height="11.41"/><rect class="cls-2" x="397.58" y="91.24" width="11.7" height="11.4"/><rect class="cls-3" x="397.58" y="79.83" width="11.7" height="11.4"/><rect class="cls-3" x="397.58" y="68.43" width="11.7" height="11.4"/><rect class="cls-2" x="397.58" y="57.02" width="11.7" height="11.4"/><rect class="cls-3" x="397.58" y="45.62" width="11.7" height="11.4"/><rect class="cls-3" x="397.58" y="34.22" width="11.7" height="11.4"/><rect class="cls-2" x="397.58" y="22.81" width="11.7" height="11.4"/><rect class="cls-3" x="397.58" y="11.4" width="11.7" height="11.41"/><rect class="cls-2" x="385.88" y="125.45" width="11.7" height="11.4"/><rect class="cls-2" x="385.88" y="114.05" width="11.7" height="11.4"/><rect class="cls-2" x="385.88" y="102.64" width="11.7" height="11.41"/><rect class="cls-2" x="385.88" y="91.24" width="11.7" height="11.4"/><rect class="cls-3" x="385.88" y="79.83" width="11.7" height="11.4"/><rect class="cls-3" x="385.88" y="68.43" width="11.7" height="11.4"/><rect class="cls-2" x="385.88" y="57.02" width="11.7" height="11.4"/><rect class="cls-2" x="385.88" y="45.62" width="11.7" height="11.4"/><rect class="cls-2" x="385.88" y="34.22" width="11.7" height="11.4"/><rect class="cls-2" x="385.88" y="22.81" width="11.7" height="11.4"/><rect class="cls-3" x="385.88" y="11.4" width="11.7" height="11.41"/><rect class="cls-2" x="374.19" y="125.45" width="11.7" height="11.4"/><rect class="cls-3" x="374.19" y="114.05" width="11.7" height="11.4"/><rect class="cls-3" x="374.19" y="102.64" width="11.7" height="11.41"/><rect class="cls-2" x="374.19" y="91.24" width="11.7" height="11.4"/><rect class="cls-3" x="374.19" y="79.83" width="11.7" height="11.4"/><rect class="cls-3" x="374.19" y="68.43" width="11.7" height="11.4"/><rect class="cls-2" x="374.19" y="57.02" width="11.7" height="11.4"/><rect class="cls-3" x="374.19" y="45.62" width="11.7" height="11.4"/><rect class="cls-3" x="374.19" y="34.22" width="11.7" height="11.4"/><rect class="cls-2" x="374.19" y="22.81" width="11.7" height="11.4"/><rect class="cls-3" x="374.19" y="11.4" width="11.7" height="11.41"/><rect class="cls-2" x="362.5" y="125.45" width="11.69" height="11.4"/><rect class="cls-3" x="362.5" y="114.05" width="11.69" height="11.4"/><rect class="cls-3" x="362.5" y="102.64" width="11.69" height="11.41"/><rect class="cls-2" x="362.5" y="91.24" width="11.69" height="11.4"/><rect class="cls-3" x="362.5" y="79.83" width="11.69" height="11.4"/><rect class="cls-3" x="362.5" y="68.43" width="11.69" height="11.4"/><rect class="cls-2" x="362.5" y="57.02" width="11.69" height="11.4"/><rect class="cls-3" x="362.5" y="45.62" width="11.69" height="11.4"/><rect class="cls-3" x="362.5" y="34.22" width="11.69" height="11.4"/><rect class="cls-2" x="362.5" y="22.81" width="11.69" height="11.4"/><rect class="cls-3" x="362.5" y="11.4" width="11.69" height="11.41"/><rect class="cls-2" x="350.8" y="125.45" width="11.7" height="11.4"/><rect class="cls-3" x="350.8" y="114.05" width="11.7" height="11.4"/><rect class="cls-3" x="350.8" y="102.64" width="11.7" height="11.41"/><rect class="cls-2" x="350.8" y="91.24" width="11.7" height="11.4"/><rect class="cls-2" x="350.8" y="79.83" width="11.7" height="11.4"/><rect class="cls-2" x="350.8" y="68.43" width="11.7" height="11.4"/><rect class="cls-2" x="350.8" y="57.02" width="11.7" height="11.4"/><rect class="cls-3" x="350.8" y="45.62" width="11.7" height="11.4"/><rect class="cls-3" x="350.8" y="34.22" width="11.7" height="11.4"/><rect class="cls-2" x="350.8" y="22.81" width="11.7" height="11.4"/><rect class="cls-2" x="350.8" y="11.4" width="11.7" height="11.41"/><rect class="cls-2" x="339.11" y="125.45" width="11.7" height="11.4"/><rect class="cls-3" x="339.11" y="114.05" width="11.7" height="11.4"/><rect class="cls-3" x="339.11" y="102.64" width="11.7" height="11.41"/><rect class="cls-2" x="339.11" y="91.24" width="11.7" height="11.4"/><rect class="cls-3" x="339.11" y="79.83" width="11.7" height="11.4"/><rect class="cls-3" x="339.11" y="68.43" width="11.7" height="11.4"/><rect class="cls-2" x="339.11" y="57.02" width="11.7" height="11.4"/><rect class="cls-3" x="339.11" y="45.62" width="11.7" height="11.4"/><rect class="cls-3" x="339.11" y="34.22" width="11.7" height="11.4"/><rect class="cls-2" x="339.11" y="22.81" width="11.7" height="11.4"/><rect class="cls-3" x="339.11" y="11.4" width="11.7" height="11.41"/><rect class="cls-2" x="327.41" y="125.45" width="11.7" height="11.4"/><rect class="cls-3" x="327.41" y="114.05" width="11.7" height="11.4"/><rect class="cls-3" x="327.41" y="102.64" width="11.7" height="11.41"/><rect class="cls-2" x="327.41" y="91.24" width="11.7" height="11.4"/><rect class="cls-3" x="327.41" y="79.83" width="11.7" height="11.4"/><rect class="cls-3" x="327.41" y="68.43" width="11.7" height="11.4"/><rect class="cls-2" x="327.41" y="57.02" width="11.7" height="11.4"/><rect class="cls-3" x="327.41" y="45.62" width="11.7" height="11.4"/><rect class="cls-3" x="327.41" y="34.22" width="11.7" height="11.4"/><rect class="cls-2" x="327.41" y="22.81" width="11.7" height="11.4"/><rect class="cls-3" x="327.41" y="11.4" width="11.7" height="11.41"/><rect class="cls-2" x="315.73" y="125.45" width="11.69" height="11.4"/><rect class="cls-2" x="315.73" y="114.05" width="11.69" height="11.4"/><rect class="cls-2" x="315.73" y="102.64" width="11.69" height="11.41"/><rect class="cls-2" x="315.73" y="91.24" width="11.69" height="11.4"/><rect class="cls-3" x="315.73" y="79.83" width="11.69" height="11.4"/><rect class="cls-3" x="315.73" y="68.43" width="11.69" height="11.4"/><rect class="cls-2" x="315.73" y="57.02" width="11.69" height="11.4"/><rect class="cls-2" x="315.73" y="45.62" width="11.69" height="11.4"/><rect class="cls-2" x="315.73" y="34.22" width="11.69" height="11.4"/><rect class="cls-2" x="315.73" y="22.81" width="11.69" height="11.4"/><rect class="cls-3" x="315.73" y="11.4" width="11.69" height="11.41"/><rect class="cls-2" x="304.03" y="125.45" width="11.7" height="11.4"/><rect class="cls-3" x="304.03" y="114.05" width="11.7" height="11.4"/><rect class="cls-3" x="304.03" y="102.64" width="11.7" height="11.41"/><rect class="cls-2" x="304.03" y="91.24" width="11.7" height="11.4"/><rect class="cls-3" x="304.03" y="79.83" width="11.7" height="11.4"/><rect class="cls-3" x="304.03" y="68.43" width="11.7" height="11.4"/><rect class="cls-2" x="304.03" y="57.02" width="11.7" height="11.4"/><rect class="cls-3" x="304.03" y="45.62" width="11.7" height="11.4"/><rect class="cls-3" x="304.03" y="34.22" width="11.7" height="11.4"/><rect class="cls-2" x="304.03" y="22.81" width="11.7" height="11.4"/><rect class="cls-3" x="304.03" y="11.4" width="11.7" height="11.41"/><rect class="cls-2" x="292.34" y="125.45" width="11.7" height="11.4"/><rect class="cls-3" x="292.34" y="114.05" width="11.7" height="11.4"/><rect class="cls-3" x="292.34" y="102.64" width="11.7" height="11.41"/><rect class="cls-2" x="292.34" y="91.24" width="11.7" height="11.4"/><rect class="cls-3" x="292.34" y="79.83" width="11.7" height="11.4"/><rect class="cls-3" x="292.34" y="68.43" width="11.7" height="11.4"/><rect class="cls-2" x="292.34" y="57.02" width="11.7" height="11.4"/><rect class="cls-3" x="292.34" y="45.62" width="11.7" height="11.4"/><rect class="cls-3" x="292.34" y="34.22" width="11.7" height="11.4"/><rect class="cls-2" x="292.34" y="22.81" width="11.7" height="11.4"/><rect class="cls-3" x="292.34" y="11.4" width="11.7" height="11.41"/><rect class="cls-2" x="280.64" y="114.05" width="11.7" height="11.4"/><rect class="cls-2" x="280.64" y="102.64" width="11.7" height="11.41"/><rect class="cls-2" x="280.64" y="91.24" width="11.7" height="11.4"/><rect class="cls-2" x="280.64" y="79.83" width="11.7" height="11.4"/><rect class="cls-2" x="280.64" y="68.43" width="11.7" height="11.4"/><rect class="cls-2" x="280.64" y="57.02" width="11.7" height="11.4"/><rect class="cls-2" x="280.64" y="45.62" width="11.7" height="11.4"/><rect class="cls-2" x="280.64" y="34.22" width="11.7" height="11.4"/><rect class="cls-2" x="280.64" y="22.81" width="11.7" height="11.4"/><rect class="cls-2" x="280.64" y="11.4" width="11.7" height="11.41"/><rect class="cls-2" x="268.95" y="125.45" width="11.69" height="11.4"/><rect class="cls-4" x="268.95" y="114.05" width="11.69" height="11.4"/><rect class="cls-4" x="268.95" y="102.64" width="11.69" height="11.41"/><rect class="cls-4" x="268.95" y="91.24" width="11.69" height="11.4"/><rect class="cls-4" x="268.95" y="79.83" width="11.69" height="11.4"/><rect class="cls-4" x="268.95" y="68.43" width="11.69" height="11.4"/><rect class="cls-4" x="268.95" y="57.02" width="11.69" height="11.4"/><rect class="cls-4" x="268.95" y="45.62" width="11.69" height="11.4"/><rect class="cls-4" x="268.95" y="34.22" width="11.69" height="11.4"/><rect class="cls-4" x="268.95" y="22.81" width="11.69" height="11.4"/><rect class="cls-4" x="268.95" y="11.4" width="11.69" height="11.41"/><rect class="cls-3" x="268.95" width="11.69" height="11.4"/><rect class="cls-2" x="257.26" y="125.45" width="11.7" height="11.4"/><rect class="cls-4" x="257.26" y="114.05" width="11.7" height="11.4"/><rect class="cls-2" x="257.26" y="102.64" width="11.7" height="11.41"/><rect class="cls-4" x="257.26" y="91.24" width="11.7" height="11.4"/><rect class="cls-4" x="257.26" y="79.83" width="11.7" height="11.4"/><rect class="cls-4" x="257.26" y="68.43" width="11.7" height="11.4"/><rect class="cls-4" x="257.26" y="57.02" width="11.7" height="11.4"/><rect class="cls-4" x="257.26" y="45.62" width="11.7" height="11.4"/><rect class="cls-4" x="257.26" y="34.22" width="11.7" height="11.4"/><rect class="cls-2" x="257.26" y="22.81" width="11.7" height="11.4"/><rect class="cls-4" x="257.26" y="11.4" width="11.7" height="11.41"/><rect class="cls-3" x="257.26" width="11.7" height="11.4"/><rect class="cls-2" x="245.56" y="125.45" width="11.7" height="11.4"/><rect class="cls-4" x="245.56" y="114.05" width="11.7" height="11.4"/><rect class="cls-4" x="245.56" y="102.64" width="11.7" height="11.41"/><rect class="cls-4" x="245.56" y="91.24" width="11.7" height="11.4"/><rect class="cls-4" x="245.56" y="79.83" width="11.7" height="11.4"/><rect class="cls-2" x="245.56" y="68.43" width="11.7" height="11.4"/><rect class="cls-2" x="245.56" y="57.02" width="11.7" height="11.4"/><rect class="cls-2" x="245.56" y="45.62" width="11.7" height="11.4"/><rect class="cls-4" x="245.56" y="34.22" width="11.7" height="11.4"/><rect class="cls-4" x="245.56" y="22.81" width="11.7" height="11.4"/><rect class="cls-4" x="245.56" y="11.4" width="11.7" height="11.41"/><rect class="cls-3" x="245.56" width="11.7" height="11.4"/><rect class="cls-2" x="233.87" y="125.45" width="11.7" height="11.4"/><rect class="cls-4" x="233.87" y="114.05" width="11.7" height="11.4"/><rect class="cls-4" x="233.87" y="102.64" width="11.7" height="11.41"/><rect class="cls-4" x="233.87" y="91.24" width="11.7" height="11.4"/><rect class="cls-4" x="233.87" y="79.83" width="11.7" height="11.4"/><rect class="cls-2" x="233.87" y="68.43" width="11.7" height="11.4"/><rect class="cls-3" x="233.87" y="57.02" width="11.7" height="11.4"/><rect class="cls-3" x="233.87" y="45.62" width="11.7" height="11.4"/><rect class="cls-3" x="233.87" y="34.22" width="11.7" height="11.4"/><rect class="cls-4" x="233.87" y="22.81" width="11.7" height="11.4"/><rect class="cls-4" x="233.87" y="11.4" width="11.7" height="11.41"/><rect class="cls-3" x="233.87" width="11.7" height="11.4"/><rect class="cls-2" x="222.18" y="125.45" width="11.69" height="11.4"/><rect class="cls-4" x="222.18" y="114.05" width="11.69" height="11.4"/><rect class="cls-2" x="222.18" y="102.64" width="11.69" height="11.41"/><rect class="cls-4" x="222.18" y="91.24" width="11.69" height="11.4"/><rect class="cls-2" x="222.18" y="79.83" width="11.69" height="11.4"/><rect class="cls-3" x="222.18" y="68.43" width="11.69" height="11.4"/><rect class="cls-3" x="222.18" y="57.02" width="11.69" height="11.4"/><rect class="cls-4" x="222.18" y="45.62" width="11.69" height="11.4"/><rect class="cls-2" x="222.18" y="34.22" width="11.69" height="11.4"/><rect class="cls-3" x="222.18" y="22.81" width="11.69" height="11.4"/><rect class="cls-4" x="222.18" y="11.4" width="11.69" height="11.41"/><rect class="cls-3" x="222.18" width="11.69" height="11.4"/><rect class="cls-2" x="210.48" y="125.45" width="11.7" height="11.4"/><rect class="cls-4" x="210.48" y="114.05" width="11.7" height="11.4"/><rect class="cls-3" x="210.48" y="102.64" width="11.7" height="11.41"/><rect class="cls-4" x="210.48" y="91.24" width="11.7" height="11.4"/><rect class="cls-3" x="210.48" y="79.83" width="11.7" height="11.4"/><rect class="cls-3" x="210.48" y="68.43" width="11.7" height="11.4"/><rect class="cls-4" x="210.48" y="57.02" width="11.7" height="11.4"/><rect class="cls-4" x="210.48" y="45.62" width="11.7" height="11.4"/><rect class="cls-2" x="210.48" y="34.22" width="11.7" height="11.4"/><rect class="cls-3" x="210.48" y="22.81" width="11.7" height="11.4"/><rect class="cls-4" x="210.48" y="11.4" width="11.7" height="11.41"/><rect class="cls-3" x="210.48" width="11.7" height="11.4"/><rect class="cls-2" x="198.79" y="125.45" width="11.7" height="11.4"/><rect class="cls-4" x="198.79" y="114.05" width="11.7" height="11.4"/><rect class="cls-4" x="198.79" y="102.64" width="11.7" height="11.41"/><rect class="cls-4" x="198.79" y="91.24" width="11.7" height="11.4"/><rect class="cls-4" x="198.79" y="79.83" width="11.7" height="11.4"/><rect class="cls-4" x="198.79" y="68.43" width="11.7" height="11.4"/><rect class="cls-2" x="198.79" y="57.02" width="11.7" height="11.4"/><rect class="cls-2" x="198.79" y="45.62" width="11.7" height="11.4"/><rect class="cls-2" x="198.79" y="34.22" width="11.7" height="11.4"/><rect class="cls-3" x="198.79" y="22.81" width="11.7" height="11.4"/><rect class="cls-4" x="198.79" y="11.4" width="11.7" height="11.41"/><rect class="cls-3" x="198.79" width="11.7" height="11.4"/><rect class="cls-2" x="187.09" y="125.45" width="11.7" height="11.4"/><rect class="cls-4" x="187.09" y="114.05" width="11.7" height="11.4"/><rect class="cls-4" x="187.09" y="102.64" width="11.7" height="11.41"/><rect class="cls-4" x="187.09" y="91.24" width="11.7" height="11.4"/><rect class="cls-4" x="187.09" y="79.83" width="11.7" height="11.4"/><rect class="cls-4" x="187.09" y="68.43" width="11.7" height="11.4"/><rect class="cls-2" x="187.09" y="57.02" width="11.7" height="11.4"/><rect class="cls-3" x="187.09" y="45.62" width="11.7" height="11.4"/><rect class="cls-3" x="187.09" y="34.22" width="11.7" height="11.4"/><rect class="cls-4" x="187.09" y="22.81" width="11.7" height="11.4"/><rect class="cls-4" x="187.09" y="11.4" width="11.7" height="11.41"/><rect class="cls-3" x="187.09" width="11.7" height="11.4"/><rect class="cls-2" x="175.41" y="125.45" width="11.69" height="11.4"/><rect class="cls-4" x="175.41" y="114.05" width="11.69" height="11.4"/><rect class="cls-4" x="175.41" y="102.64" width="11.69" height="11.41"/><rect class="cls-4" x="175.41" y="91.24" width="11.69" height="11.4"/><rect class="cls-4" x="175.41" y="79.83" width="11.69" height="11.4"/><rect class="cls-4" x="175.41" y="68.43" width="11.69" height="11.4"/><rect class="cls-4" x="175.41" y="57.02" width="11.69" height="11.4"/><rect class="cls-4" x="175.41" y="45.62" width="11.69" height="11.4"/><rect class="cls-4" x="175.41" y="34.22" width="11.69" height="11.4"/><rect class="cls-4" x="175.41" y="22.81" width="11.69" height="11.4"/><rect class="cls-4" x="175.41" y="11.4" width="11.69" height="11.41"/><rect class="cls-3" x="175.41" width="11.69" height="11.4"/><rect class="cls-2" x="163.71" y="125.45" width="11.7" height="11.4"/><rect class="cls-4" x="163.71" y="114.05" width="11.7" height="11.4"/><rect class="cls-2" x="163.71" y="102.64" width="11.7" height="11.41"/><rect class="cls-4" x="163.71" y="91.24" width="11.7" height="11.4"/><rect class="cls-4" x="163.71" y="79.83" width="11.7" height="11.4"/><rect class="cls-4" x="163.71" y="68.43" width="11.7" height="11.4"/><rect class="cls-4" x="163.71" y="57.02" width="11.7" height="11.4"/><rect class="cls-4" x="163.71" y="45.62" width="11.7" height="11.4"/><rect class="cls-4" x="163.71" y="34.22" width="11.7" height="11.4"/><rect class="cls-2" x="163.71" y="22.81" width="11.7" height="11.4"/><rect class="cls-4" x="163.71" y="11.4" width="11.7" height="11.41"/><rect class="cls-3" x="163.71" width="11.7" height="11.4"/><rect class="cls-2" x="152.02" y="125.45" width="11.7" height="11.4"/><rect class="cls-4" x="152.02" y="114.05" width="11.7" height="11.4"/><rect class="cls-4" x="152.02" y="102.64" width="11.7" height="11.41"/><rect class="cls-4" x="152.02" y="91.24" width="11.7" height="11.4"/><rect class="cls-4" x="152.02" y="79.83" width="11.7" height="11.4"/><rect class="cls-4" x="152.02" y="68.43" width="11.7" height="11.4"/><rect class="cls-4" x="152.02" y="57.02" width="11.7" height="11.4"/><rect class="cls-4" x="152.02" y="45.62" width="11.7" height="11.4"/><rect class="cls-4" x="152.02" y="34.22" width="11.7" height="11.4"/><rect class="cls-4" x="152.02" y="22.81" width="11.7" height="11.4"/><rect class="cls-4" x="152.02" y="11.4" width="11.7" height="11.41"/><rect class="cls-3" x="152.02" width="11.7" height="11.4"/><rect class="cls-2" x="140.32" y="114.05" width="11.7" height="11.4"/><rect class="cls-2" x="140.32" y="102.64" width="11.7" height="11.41"/><rect class="cls-2" x="140.32" y="91.24" width="11.7" height="11.4"/><rect class="cls-2" x="140.32" y="79.83" width="11.7" height="11.4"/><rect class="cls-2" x="140.32" y="68.43" width="11.7" height="11.4"/><rect class="cls-2" x="140.32" y="57.02" width="11.7" height="11.4"/><rect class="cls-2" x="140.32" y="45.62" width="11.7" height="11.4"/><rect class="cls-2" x="140.32" y="34.22" width="11.7" height="11.4"/><rect class="cls-2" x="140.32" y="22.81" width="11.7" height="11.4"/><rect class="cls-2" x="140.32" y="11.4" width="11.7" height="11.41"/><rect class="cls-2" x="128.63" y="125.45" width="11.69" height="11.4"/><rect class="cls-3" x="128.63" y="114.05" width="11.69" height="11.4"/><rect class="cls-3" x="128.63" y="102.64" width="11.69" height="11.41"/><rect class="cls-2" x="128.63" y="91.24" width="11.69" height="11.4"/><rect class="cls-3" x="128.63" y="79.83" width="11.69" height="11.4"/><rect class="cls-3" x="128.63" y="68.43" width="11.69" height="11.4"/><rect class="cls-2" x="128.63" y="57.02" width="11.69" height="11.4"/><rect class="cls-3" x="128.63" y="45.62" width="11.69" height="11.4"/><rect class="cls-3" x="128.63" y="34.22" width="11.69" height="11.4"/><rect class="cls-2" x="128.63" y="22.81" width="11.69" height="11.4"/><rect class="cls-3" x="128.63" y="11.4" width="11.69" height="11.41"/><rect class="cls-2" x="116.94" y="125.45" width="11.7" height="11.4"/><rect class="cls-3" x="116.94" y="114.05" width="11.7" height="11.4"/><rect class="cls-3" x="116.94" y="102.64" width="11.7" height="11.41"/><rect class="cls-2" x="116.94" y="91.24" width="11.7" height="11.4"/><rect class="cls-3" x="116.94" y="79.83" width="11.7" height="11.4"/><rect class="cls-3" x="116.94" y="68.43" width="11.7" height="11.4"/><rect class="cls-2" x="116.94" y="57.02" width="11.7" height="11.4"/><rect class="cls-3" x="116.94" y="45.62" width="11.7" height="11.4"/><rect class="cls-3" x="116.94" y="34.22" width="11.7" height="11.4"/><rect class="cls-2" x="116.94" y="22.81" width="11.7" height="11.4"/><rect class="cls-3" x="116.94" y="11.4" width="11.7" height="11.41"/><rect class="cls-2" x="105.24" y="125.45" width="11.7" height="11.4"/><rect class="cls-2" x="105.24" y="114.05" width="11.7" height="11.4"/><rect class="cls-2" x="105.24" y="102.64" width="11.7" height="11.41"/><rect class="cls-2" x="105.24" y="91.24" width="11.7" height="11.4"/><rect class="cls-3" x="105.24" y="79.83" width="11.7" height="11.4"/><rect class="cls-3" x="105.24" y="68.43" width="11.7" height="11.4"/><rect class="cls-2" x="105.24" y="57.02" width="11.7" height="11.4"/><rect class="cls-2" x="105.24" y="45.62" width="11.7" height="11.4"/><rect class="cls-2" x="105.24" y="34.22" width="11.7" height="11.4"/><rect class="cls-2" x="105.24" y="22.81" width="11.7" height="11.4"/><rect class="cls-3" x="105.24" y="11.4" width="11.7" height="11.41"/><rect class="cls-2" x="93.55" y="125.45" width="11.7" height="11.4"/><rect class="cls-3" x="93.55" y="114.05" width="11.7" height="11.4"/><rect class="cls-3" x="93.55" y="102.64" width="11.7" height="11.41"/><rect class="cls-2" x="93.55" y="91.24" width="11.7" height="11.4"/><rect class="cls-3" x="93.55" y="79.83" width="11.7" height="11.4"/><rect class="cls-3" x="93.55" y="68.43" width="11.7" height="11.4"/><rect class="cls-2" x="93.55" y="57.02" width="11.7" height="11.4"/><rect class="cls-3" x="93.55" y="45.62" width="11.7" height="11.4"/><rect class="cls-3" x="93.55" y="34.22" width="11.7" height="11.4"/><rect class="cls-2" x="93.55" y="22.81" width="11.7" height="11.4"/><rect class="cls-3" x="93.55" y="11.4" width="11.7" height="11.41"/><rect class="cls-2" x="81.86" y="125.45" width="11.69" height="11.4"/><rect class="cls-3" x="81.86" y="114.05" width="11.69" height="11.4"/><rect class="cls-3" x="81.86" y="102.64" width="11.69" height="11.41"/><rect class="cls-2" x="81.86" y="91.24" width="11.69" height="11.4"/><rect class="cls-3" x="81.86" y="79.83" width="11.69" height="11.4"/><rect class="cls-3" x="81.86" y="68.43" width="11.69" height="11.4"/><rect class="cls-2" x="81.86" y="57.02" width="11.69" height="11.4"/><rect class="cls-3" x="81.86" y="45.62" width="11.69" height="11.4"/><rect class="cls-3" x="81.86" y="34.22" width="11.69" height="11.4"/><rect class="cls-2" x="81.86" y="22.81" width="11.69" height="11.4"/><rect class="cls-3" x="81.86" y="11.4" width="11.69" height="11.41"/><rect class="cls-2" x="70.17" y="125.45" width="11.7" height="11.4"/><rect class="cls-3" x="70.17" y="114.05" width="11.7" height="11.4"/><rect class="cls-3" x="70.17" y="102.64" width="11.7" height="11.41"/><rect class="cls-2" x="70.17" y="91.24" width="11.7" height="11.4"/><rect class="cls-2" x="70.17" y="79.83" width="11.7" height="11.4"/><rect class="cls-2" x="70.17" y="68.43" width="11.7" height="11.4"/><rect class="cls-2" x="70.17" y="57.02" width="11.7" height="11.4"/><rect class="cls-3" x="70.17" y="45.62" width="11.7" height="11.4"/><rect class="cls-3" x="70.17" y="34.22" width="11.7" height="11.4"/><rect class="cls-2" x="70.17" y="22.81" width="11.7" height="11.4"/><rect class="cls-2" x="70.17" y="11.4" width="11.7" height="11.41"/><rect class="cls-2" x="58.47" y="125.45" width="11.7" height="11.4"/><rect class="cls-3" x="58.47" y="114.05" width="11.7" height="11.4"/><rect class="cls-3" x="58.47" y="102.64" width="11.7" height="11.41"/><rect class="cls-2" x="58.47" y="91.24" width="11.7" height="11.4"/><rect class="cls-3" x="58.47" y="79.83" width="11.7" height="11.4"/><rect class="cls-3" x="58.47" y="68.43" width="11.7" height="11.4"/><rect class="cls-2" x="58.47" y="57.02" width="11.7" height="11.4"/><rect class="cls-3" x="58.47" y="45.62" width="11.7" height="11.4"/><rect class="cls-3" x="58.47" y="34.22" width="11.7" height="11.4"/><rect class="cls-2" x="58.47" y="22.81" width="11.7" height="11.4"/><rect class="cls-3" x="58.47" y="11.4" width="11.7" height="11.41"/><rect class="cls-2" x="46.78" y="125.45" width="11.7" height="11.4"/><rect class="cls-3" x="46.78" y="114.05" width="11.7" height="11.4"/><rect class="cls-3" x="46.78" y="102.64" width="11.7" height="11.41"/><rect class="cls-2" x="46.78" y="91.24" width="11.7" height="11.4"/><rect class="cls-3" x="46.78" y="79.83" width="11.7" height="11.4"/><rect class="cls-3" x="46.78" y="68.43" width="11.7" height="11.4"/><rect class="cls-2" x="46.78" y="57.02" width="11.7" height="11.4"/><rect class="cls-3" x="46.78" y="45.62" width="11.7" height="11.4"/><rect class="cls-3" x="46.78" y="34.22" width="11.7" height="11.4"/><rect class="cls-2" x="46.78" y="22.81" width="11.7" height="11.4"/><rect class="cls-3" x="46.78" y="11.4" width="11.7" height="11.41"/><rect class="cls-2" x="35.09" y="125.45" width="11.69" height="11.4"/><rect class="cls-2" x="35.09" y="114.05" width="11.69" height="11.4"/><rect class="cls-2" x="35.09" y="102.64" width="11.69" height="11.41"/><rect class="cls-2" x="35.09" y="91.24" width="11.69" height="11.4"/><rect class="cls-3" x="35.09" y="79.83" width="11.69" height="11.4"/><rect class="cls-3" x="35.09" y="68.43" width="11.69" height="11.4"/><rect class="cls-2" x="35.09" y="57.02" width="11.69" height="11.4"/><rect class="cls-2" x="35.09" y="45.62" width="11.69" height="11.4"/><rect class="cls-2" x="35.09" y="34.22" width="11.69" height="11.4"/><rect class="cls-2" x="35.09" y="22.81" width="11.69" height="11.4"/><rect class="cls-3" x="35.09" y="11.4" width="11.69" height="11.41"/><rect class="cls-2" x="23.39" y="125.45" width="11.7" height="11.4"/><rect class="cls-3" x="23.39" y="114.05" width="11.7" height="11.4"/><rect class="cls-3" x="23.39" y="102.64" width="11.7" height="11.41"/><rect class="cls-2" x="23.39" y="91.24" width="11.7" height="11.4"/><rect class="cls-3" x="23.39" y="79.83" width="11.7" height="11.4"/><rect class="cls-3" x="23.39" y="68.43" width="11.7" height="11.4"/><rect class="cls-2" x="23.39" y="57.02" width="11.7" height="11.4"/><rect class="cls-3" x="23.39" y="45.62" width="11.7" height="11.4"/><rect class="cls-3" x="23.39" y="34.22" width="11.7" height="11.4"/><rect class="cls-2" x="23.39" y="22.81" width="11.7" height="11.4"/><rect class="cls-3" x="23.39" y="11.4" width="11.7" height="11.41"/><rect class="cls-2" x="11.7" y="125.45" width="11.7" height="11.4"/><rect class="cls-3" x="11.7" y="114.05" width="11.7" height="11.4"/><rect class="cls-3" x="11.7" y="102.64" width="11.7" height="11.41"/><rect class="cls-2" x="11.7" y="91.24" width="11.7" height="11.4"/><rect class="cls-3" x="11.7" y="79.83" width="11.7" height="11.4"/><rect class="cls-3" x="11.7" y="68.43" width="11.7" height="11.4"/><rect class="cls-2" x="11.7" y="57.02" width="11.7" height="11.4"/><rect class="cls-3" x="11.7" y="45.62" width="11.7" height="11.4"/><rect class="cls-3" x="11.7" y="34.22" width="11.7" height="11.4"/><rect class="cls-2" x="11.7" y="22.81" width="11.7" height="11.4"/><rect class="cls-3" x="11.7" y="11.4" width="11.7" height="11.41"/><rect class="cls-2" y="114.05" width="11.7" height="11.4"/><rect class="cls-2" y="102.64" width="11.7" height="11.41"/><rect class="cls-2" y="91.24" width="11.7" height="11.4"/><rect class="cls-2" y="79.83" width="11.7" height="11.4"/><rect class="cls-2" y="68.43" width="11.7" height="11.4"/><rect class="cls-2" y="57.02" width="11.7" height="11.4"/><rect class="cls-2" y="45.62" width="11.7" height="11.4"/><rect class="cls-2" y="34.22" width="11.7" height="11.4"/><rect class="cls-2" y="22.81" width="11.7" height="11.4"/><rect class="cls-2" y="11.4" width="11.7" height="11.41"/></g></g></svg>