<svg xmlns="http://www.w3.org/2000/svg" viewBox="0 0 420.96 136.86"><defs><style>.cls-1{fill:#f4d1b4;}.cls-2{fill:#010101;}.cls-3{fill:#e76224;}</style></defs><g id="Layer_2" data-name="Layer 2"><g id="Layer_1-2" data-name="Layer 1"><rect class="cls-1" x="397.57" width="11.69" height="11.4"/><rect class="cls-1" x="385.88" width="11.7" height="11.4"/><rect class="cls-1" x="374.18" width="11.7" height="11.4"/><rect class="cls-1" x="362.49" width="11.7" height="11.4"/><rect class="cls-1" x="350.8" width="11.69" height="11.4"/><rect class="cls-1" x="339.1" width="11.7" height="11.4"/><rect class="cls-1" x="327.41" width="11.7" height="11.4"/><rect class="cls-1" x="315.71" width="11.7" height="11.4"/><rect class="cls-1" x="304.03" width="11.69" height="11.4"/><rect class="cls-1" x="292.33" width="11.7" height="11.4"/><rect class="cls-1" x="280.64" width="11.7" height="11.4"/><rect class="cls-1" x="46.77" width="11.7" height="11.4"/><rect class="cls-1" x="35.08" width="11.7" height="11.4"/><rect class="cls-1" x="23.39" width="11.69" height="11.4"/><rect class="cls-1" x="11.69" width="11.7" height="11.4"/><rect class="cls-1" x="105.24" width="11.7" height="11.4"/><rect class="cls-1" x="93.54" width="11.7" height="11.4"/><rect class="cls-1" x="81.85" width="11.7" height="11.4"/><rect class="cls-1" x="70.16" width="11.69" height="11.4"/><rect class="cls-1" x="58.47" width="11.7" height="11.4"/><rect class="cls-1" x="128.62" width="11.7" height="11.4"/><rect class="cls-1" x="116.93" width="11.69" height="11.4"/><rect class="cls-2" x="409.26" y="114.06" width="11.7" height="11.4"/><rect class="cls-2" x="409.26" y="102.65" width="11.7" height="11.41"/><rect class="cls-2" x="409.26" y="91.24" width="11.7" height="11.4"/><rect class="cls-2" x="409.26" y="79.84" width="11.7" height="11.4"/><rect class="cls-2" x="409.26" y="68.43" width="11.7" height="11.4"/><rect class="cls-2" x="409.26" y="57.03" width="11.7" height="11.4"/><rect class="cls-2" x="409.26" y="45.63" width="11.7" height="11.4"/><rect class="cls-2" x="409.26" y="34.22" width="11.7" height="11.4"/><rect class="cls-2" x="409.26" y="22.82" width="11.7" height="11.4"/><rect class="cls-2" x="409.26" y="11.41" width="11.7" height="11.41"/><rect class="cls-2" x="397.57" y="125.46" width="11.69" height="11.4"/><rect class="cls-3" x="397.57" y="114.06" width="11.69" height="11.4"/><rect class="cls-3" x="397.57" y="102.65" width="11.69" height="11.41"/><rect class="cls-2" x="397.57" y="91.24" width="11.69" height="11.4"/><rect class="cls-3" x="397.57" y="79.84" width="11.69" height="11.4"/><rect class="cls-3" x="397.57" y="68.43" width="11.69" height="11.4"/><rect class="cls-2" x="397.57" y="57.03" width="11.69" height="11.4"/><rect class="cls-3" x="397.57" y="45.63" width="11.69" height="11.4"/><rect class="cls-3" x="397.57" y="34.22" width="11.69" height="11.4"/><rect class="cls-2" x="397.57" y="22.82" width="11.69" height="11.4"/><rect class="cls-3" x="397.57" y="11.41" width="11.69" height="11.41"/><rect class="cls-2" x="385.88" y="125.46" width="11.7" height="11.4"/><rect class="cls-3" x="385.88" y="114.06" width="11.7" height="11.4"/><rect class="cls-3" x="385.88" y="102.65" width="11.7" height="11.41"/><rect class="cls-2" x="385.88" y="91.24" width="11.7" height="11.4"/><rect class="cls-3" x="385.88" y="79.84" width="11.7" height="11.4"/><rect class="cls-3" x="385.88" y="68.43" width="11.7" height="11.4"/><rect class="cls-2" x="385.88" y="57.03" width="11.7" height="11.4"/><rect class="cls-3" x="385.88" y="45.63" width="11.7" height="11.4"/><rect class="cls-3" x="385.88" y="34.22" width="11.7" height="11.4"/><rect class="cls-2" x="385.88" y="22.82" width="11.7" height="11.4"/><rect class="cls-3" x="385.88" y="11.41" width="11.7" height="11.41"/><rect class="cls-2" x="374.18" y="125.46" width="11.7" height="11.4"/><rect class="cls-2" x="374.18" y="114.06" width="11.7" height="11.4"/><rect class="cls-2" x="374.18" y="102.65" width="11.7" height="11.41"/><rect class="cls-2" x="374.18" y="91.24" width="11.7" height="11.4"/><rect class="cls-3" x="374.18" y="79.84" width="11.7" height="11.4"/><rect class="cls-3" x="374.18" y="68.43" width="11.7" height="11.4"/><rect class="cls-2" x="374.18" y="57.03" width="11.7" height="11.4"/><rect class="cls-2" x="374.18" y="45.63" width="11.7" height="11.4"/><rect class="cls-2" x="374.18" y="34.22" width="11.7" height="11.4"/><rect class="cls-2" x="374.18" y="22.82" width="11.7" height="11.4"/><rect class="cls-3" x="374.18" y="11.41" width="11.7" height="11.41"/><rect class="cls-2" x="362.49" y="125.46" width="11.7" height="11.4"/><rect class="cls-3" x="362.49" y="114.06" width="11.7" height="11.4"/><rect class="cls-3" x="362.49" y="102.65" width="11.7" height="11.41"/><rect class="cls-2" x="362.49" y="91.24" width="11.7" height="11.4"/><rect class="cls-3" x="362.49" y="79.84" width="11.7" height="11.4"/><rect class="cls-3" x="362.49" y="68.43" width="11.7" height="11.4"/><rect class="cls-2" x="362.49" y="57.03" width="11.7" height="11.4"/><rect class="cls-3" x="362.49" y="45.63" width="11.7" height="11.4"/><rect class="cls-3" x="362.49" y="34.22" width="11.7" height="11.4"/><rect class="cls-2" x="362.49" y="22.82" width="11.7" height="11.4"/><rect class="cls-3" x="362.49" y="11.41" width="11.7" height="11.41"/><rect class="cls-2" x="350.8" y="125.46" width="11.69" height="11.4"/><rect class="cls-3" x="350.8" y="114.06" width="11.69" height="11.4"/><rect class="cls-3" x="350.8" y="102.65" width="11.69" height="11.41"/><rect class="cls-2" x="350.8" y="91.24" width="11.69" height="11.4"/><rect class="cls-3" x="350.8" y="79.84" width="11.69" height="11.4"/><rect class="cls-3" x="350.8" y="68.43" width="11.69" height="11.4"/><rect class="cls-2" x="350.8" y="57.03" width="11.69" height="11.4"/><rect class="cls-3" x="350.8" y="45.63" width="11.69" height="11.4"/><rect class="cls-3" x="350.8" y="34.22" width="11.69" height="11.4"/><rect class="cls-2" x="350.8" y="22.82" width="11.69" height="11.4"/><rect class="cls-3" x="350.8" y="11.41" width="11.69" height="11.41"/><rect class="cls-2" x="339.1" y="125.46" width="11.7" height="11.4"/><rect class="cls-3" x="339.1" y="114.06" width="11.7" height="11.4"/><rect class="cls-3" x="339.1" y="102.65" width="11.7" height="11.41"/><rect class="cls-2" x="339.1" y="91.24" width="11.7" height="11.4"/><rect class="cls-2" x="339.1" y="79.84" width="11.7" height="11.4"/><rect class="cls-2" x="339.1" y="68.43" width="11.7" height="11.4"/><rect class="cls-2" x="339.1" y="57.03" width="11.7" height="11.4"/><rect class="cls-3" x="339.1" y="45.63" width="11.7" height="11.4"/><rect class="cls-3" x="339.1" y="34.22" width="11.7" height="11.4"/><rect class="cls-2" x="339.1" y="22.82" width="11.7" height="11.4"/><rect class="cls-2" x="339.1" y="11.41" width="11.7" height="11.41"/><rect class="cls-2" x="327.41" y="125.46" width="11.7" height="11.4"/><rect class="cls-3" x="327.41" y="114.06" width="11.7" height="11.4"/><rect class="cls-3" x="327.41" y="102.65" width="11.7" height="11.41"/><rect class="cls-2" x="327.41" y="91.24" width="11.7" height="11.4"/><rect class="cls-3" x="327.41" y="79.84" width="11.7" height="11.4"/><rect class="cls-3" x="327.41" y="68.43" width="11.7" height="11.4"/><rect class="cls-2" x="327.41" y="57.03" width="11.7" height="11.4"/><rect class="cls-3" x="327.41" y="45.63" width="11.7" height="11.4"/><rect class="cls-3" x="327.41" y="34.22" width="11.7" height="11.4"/><rect class="cls-2" x="327.41" y="22.82" width="11.7" height="11.4"/><rect class="cls-3" x="327.41" y="11.41" width="11.7" height="11.41"/><rect class="cls-2" x="315.71" y="125.46" width="11.7" height="11.4"/><rect class="cls-3" x="315.71" y="114.06" width="11.7" height="11.4"/><rect class="cls-3" x="315.71" y="102.65" width="11.7" height="11.41"/><rect class="cls-2" x="315.71" y="91.24" width="11.7" height="11.4"/><rect class="cls-3" x="315.71" y="79.84" width="11.7" height="11.4"/><rect class="cls-3" x="315.71" y="68.43" width="11.7" height="11.4"/><rect class="cls-2" x="315.71" y="57.03" width="11.7" height="11.4"/><rect class="cls-3" x="315.71" y="45.63" width="11.7" height="11.4"/><rect class="cls-3" x="315.71" y="34.22" width="11.7" height="11.4"/><rect class="cls-2" x="315.71" y="22.82" width="11.7" height="11.4"/><rect class="cls-3" x="315.71" y="11.41" width="11.7" height="11.41"/><rect class="cls-2" x="304.03" y="125.46" width="11.69" height="11.4"/><rect class="cls-2" x="304.03" y="114.06" width="11.69" height="11.4"/><rect class="cls-2" x="304.03" y="102.65" width="11.69" height="11.41"/><rect class="cls-2" x="304.03" y="91.24" width="11.69" height="11.4"/><rect class="cls-3" x="304.03" y="79.84" width="11.69" height="11.4"/><rect class="cls-3" x="304.03" y="68.43" width="11.69" height="11.4"/><rect class="cls-2" x="304.03" y="57.03" width="11.69" height="11.4"/><rect class="cls-2" x="304.03" y="45.63" width="11.69" height="11.4"/><rect class="cls-2" x="304.03" y="34.22" width="11.69" height="11.4"/><rect class="cls-2" x="304.03" y="22.82" width="11.69" height="11.4"/><rect class="cls-3" x="304.03" y="11.41" width="11.69" height="11.41"/><rect class="cls-2" x="292.33" y="125.46" width="11.7" height="11.4"/><rect class="cls-3" x="292.33" y="114.06" width="11.7" height="11.4"/><rect class="cls-3" x="292.33" y="102.65" width="11.7" height="11.41"/><rect class="cls-2" x="292.33" y="91.24" width="11.7" height="11.4"/><rect class="cls-3" x="292.33" y="79.84" width="11.7" height="11.4"/><rect class="cls-3" x="292.33" y="68.43" width="11.7" height="11.4"/><rect class="cls-2" x="292.33" y="57.03" width="11.7" height="11.4"/><rect class="cls-3" x="292.33" y="45.63" width="11.7" height="11.4"/><rect class="cls-3" x="292.33" y="34.22" width="11.7" height="11.4"/><rect class="cls-2" x="292.33" y="22.82" width="11.7" height="11.4"/><rect class="cls-3" x="292.33" y="11.41" width="11.7" height="11.41"/><rect class="cls-2" x="280.64" y="125.46" width="11.7" height="11.4"/><rect class="cls-3" x="280.64" y="114.06" width="11.7" height="11.4"/><rect class="cls-3" x="280.64" y="102.65" width="11.7" height="11.41"/><rect class="cls-2" x="280.64" y="91.24" width="11.7" height="11.4"/><rect class="cls-3" x="280.64" y="79.84" width="11.7" height="11.4"/><rect class="cls-3" x="280.64" y="68.43" width="11.7" height="11.4"/><rect class="cls-2" x="280.64" y="57.03" width="11.7" height="11.4"/><rect class="cls-3" x="280.64" y="45.63" width="11.7" height="11.4"/><rect class="cls-3" x="280.64" y="34.22" width="11.7" height="11.4"/><rect class="cls-2" x="280.64" y="22.82" width="11.7" height="11.4"/><rect class="cls-3" x="280.64" y="11.41" width="11.7" height="11.41"/><rect class="cls-2" x="268.94" y="114.06" width="11.7" height="11.4"/><rect class="cls-2" x="268.94" y="102.65" width="11.7" height="11.41"/><rect class="cls-2" x="268.94" y="91.24" width="11.7" height="11.4"/><rect class="cls-2" x="268.94" y="79.84" width="11.7" height="11.4"/><rect class="cls-2" x="268.94" y="68.43" width="11.7" height="11.4"/><rect class="cls-2" x="268.94" y="57.03" width="11.7" height="11.4"/><rect class="cls-2" x="268.94" y="45.63" width="11.7" height="11.4"/><rect class="cls-2" x="268.94" y="34.22" width="11.7" height="11.4"/><rect class="cls-2" x="268.94" y="22.82" width="11.7" height="11.4"/><rect class="cls-2" x="268.94" y="11.41" width="11.7" height="11.41"/><rect class="cls-2" x="257.25" y="125.46" width="11.69" height="11.4"/><rect class="cls-3" x="257.25" y="114.06" width="11.69" height="11.4"/><rect class="cls-3" x="257.25" y="102.65" width="11.69" height="11.41"/><rect class="cls-3" x="257.25" y="91.24" width="11.69" height="11.4"/><rect class="cls-3" x="257.25" y="79.84" width="11.69" height="11.4"/><rect class="cls-3" x="257.25" y="68.43" width="11.69" height="11.4"/><rect class="cls-3" x="257.25" y="57.03" width="11.69" height="11.4"/><rect class="cls-3" x="257.25" y="45.63" width="11.69" height="11.4"/><rect class="cls-3" x="257.25" y="34.22" width="11.69" height="11.4"/><rect class="cls-3" x="257.25" y="22.82" width="11.69" height="11.4"/><rect class="cls-3" x="257.25" y="11.41" width="11.69" height="11.41"/><rect class="cls-2" x="257.25" width="11.69" height="11.4"/><rect class="cls-2" x="245.56" y="125.46" width="11.7" height="11.4"/><rect class="cls-3" x="245.56" y="114.06" width="11.7" height="11.4"/><rect class="cls-2" x="245.56" y="102.65" width="11.7" height="11.41"/><rect class="cls-3" x="245.56" y="91.24" width="11.7" height="11.4"/><rect class="cls-3" x="245.56" y="79.84" width="11.7" height="11.4"/><rect class="cls-3" x="245.56" y="68.43" width="11.7" height="11.4"/><rect class="cls-3" x="245.56" y="57.03" width="11.7" height="11.4"/><rect class="cls-3" x="245.56" y="45.63" width="11.7" height="11.4"/><rect class="cls-3" x="245.56" y="34.22" width="11.7" height="11.4"/><rect class="cls-2" x="245.56" y="22.82" width="11.7" height="11.4"/><rect class="cls-3" x="245.56" y="11.41" width="11.7" height="11.41"/><rect class="cls-2" x="245.56" width="11.7" height="11.4"/><rect class="cls-2" x="233.86" y="125.46" width="11.7" height="11.4"/><rect class="cls-3" x="233.86" y="114.06" width="11.7" height="11.4"/><rect class="cls-3" x="233.86" y="102.65" width="11.7" height="11.41"/><rect class="cls-3" x="233.86" y="91.24" width="11.7" height="11.4"/><rect class="cls-3" x="233.86" y="79.84" width="11.7" height="11.4"/><rect class="cls-3" x="233.86" y="68.43" width="11.7" height="11.4"/><rect class="cls-3" x="233.86" y="57.03" width="11.7" height="11.4"/><rect class="cls-3" x="233.86" y="45.63" width="11.7" height="11.4"/><rect class="cls-3" x="233.86" y="34.22" width="11.7" height="11.4"/><rect class="cls-3" x="233.86" y="22.82" width="11.7" height="11.4"/><rect class="cls-3" x="233.86" y="11.41" width="11.7" height="11.41"/><rect class="cls-2" x="233.86" width="11.7" height="11.4"/><rect class="cls-2" x="222.17" y="125.46" width="11.7" height="11.4"/><rect class="cls-3" x="222.17" y="114.06" width="11.7" height="11.4"/><rect class="cls-3" x="222.17" y="102.65" width="11.7" height="11.41"/><rect class="cls-3" x="222.17" y="91.24" width="11.7" height="11.4"/><rect class="cls-3" x="222.17" y="79.84" width="11.7" height="11.4"/><rect class="cls-3" x="222.17" y="68.43" width="11.7" height="11.4"/><rect class="cls-3" x="222.17" y="57.03" width="11.7" height="11.4"/><rect class="cls-3" x="222.17" y="45.63" width="11.7" height="11.4"/><rect class="cls-3" x="222.17" y="34.22" width="11.7" height="11.4"/><rect class="cls-3" x="222.17" y="22.82" width="11.7" height="11.4"/><rect class="cls-3" x="222.17" y="11.41" width="11.7" height="11.41"/><rect class="cls-2" x="222.17" width="11.7" height="11.4"/><rect class="cls-2" x="210.48" y="125.46" width="11.69" height="11.4"/><rect class="cls-3" x="210.48" y="114.06" width="11.69" height="11.4"/><rect class="cls-3" x="210.48" y="102.65" width="11.69" height="11.41"/><rect class="cls-3" x="210.48" y="91.24" width="11.69" height="11.4"/><rect class="cls-3" x="210.48" y="79.84" width="11.69" height="11.4"/><rect class="cls-3" x="210.48" y="68.43" width="11.69" height="11.4"/><rect class="cls-3" x="210.48" y="57.03" width="11.69" height="11.4"/><rect class="cls-3" x="210.48" y="45.63" width="11.69" height="11.4"/><rect class="cls-3" x="210.48" y="34.22" width="11.69" height="11.4"/><rect class="cls-3" x="210.48" y="22.82" width="11.69" height="11.4"/><rect class="cls-3" x="210.48" y="11.41" width="11.69" height="11.41"/><rect class="cls-2" x="210.48" width="11.69" height="11.4"/><rect class="cls-2" x="198.79" y="125.46" width="11.7" height="11.4"/><rect class="cls-3" x="198.79" y="114.06" width="11.7" height="11.4"/><rect class="cls-3" x="198.79" y="102.65" width="11.7" height="11.41"/><rect class="cls-3" x="198.79" y="91.24" width="11.7" height="11.4"/><rect class="cls-3" x="198.79" y="79.84" width="11.7" height="11.4"/><rect class="cls-3" x="198.79" y="68.43" width="11.7" height="11.4"/><rect class="cls-3" x="198.79" y="57.03" width="11.7" height="11.4"/><rect class="cls-3" x="198.79" y="45.63" width="11.7" height="11.4"/><rect class="cls-3" x="198.79" y="34.22" width="11.7" height="11.4"/><rect class="cls-3" x="198.79" y="22.82" width="11.7" height="11.4"/><rect class="cls-3" x="198.79" y="11.41" width="11.7" height="11.41"/><rect class="cls-2" x="198.79" width="11.7" height="11.4"/><rect class="cls-2" x="187.09" y="125.46" width="11.7" height="11.4"/><rect class="cls-3" x="187.09" y="114.06" width="11.7" height="11.4"/><rect class="cls-3" x="187.09" y="102.65" width="11.7" height="11.41"/><rect class="cls-3" x="187.09" y="91.24" width="11.7" height="11.4"/><rect class="cls-3" x="187.09" y="79.84" width="11.7" height="11.4"/><rect class="cls-3" x="187.09" y="68.43" width="11.7" height="11.4"/><rect class="cls-3" x="187.09" y="57.03" width="11.7" height="11.4"/><rect class="cls-3" x="187.09" y="45.63" width="11.7" height="11.4"/><rect class="cls-3" x="187.09" y="34.22" width="11.7" height="11.4"/><rect class="cls-3" x="187.09" y="22.82" width="11.7" height="11.4"/><rect class="cls-3" x="187.09" y="11.41" width="11.7" height="11.41"/><rect class="cls-2" x="187.09" width="11.7" height="11.4"/><rect class="cls-2" x="175.39" y="125.46" width="11.7" height="11.4"/><rect class="cls-3" x="175.39" y="114.06" width="11.7" height="11.4"/><rect class="cls-3" x="175.39" y="102.65" width="11.7" height="11.41"/><rect class="cls-3" x="175.39" y="91.24" width="11.7" height="11.4"/><rect class="cls-3" x="175.39" y="79.84" width="11.7" height="11.4"/><rect class="cls-3" x="175.39" y="68.43" width="11.7" height="11.4"/><rect class="cls-3" x="175.39" y="57.03" width="11.7" height="11.4"/><rect class="cls-3" x="175.39" y="45.63" width="11.7" height="11.4"/><rect class="cls-3" x="175.39" y="34.22" width="11.7" height="11.4"/><rect class="cls-3" x="175.39" y="22.82" width="11.7" height="11.4"/><rect class="cls-3" x="175.39" y="11.41" width="11.7" height="11.41"/><rect class="cls-2" x="175.39" width="11.7" height="11.4"/><rect class="cls-2" x="163.71" y="125.46" width="11.69" height="11.4"/><rect class="cls-3" x="163.71" y="114.06" width="11.69" height="11.4"/><rect class="cls-2" x="163.71" y="102.65" width="11.69" height="11.41"/><rect class="cls-3" x="163.71" y="91.24" width="11.69" height="11.4"/><rect class="cls-3" x="163.71" y="79.84" width="11.69" height="11.4"/><rect class="cls-3" x="163.71" y="68.43" width="11.69" height="11.4"/><rect class="cls-3" x="163.71" y="57.03" width="11.69" height="11.4"/><rect class="cls-3" x="163.71" y="45.63" width="11.69" height="11.4"/><rect class="cls-3" x="163.71" y="34.22" width="11.69" height="11.4"/><rect class="cls-2" x="163.71" y="22.82" width="11.69" height="11.4"/><rect class="cls-3" x="163.71" y="11.41" width="11.69" height="11.41"/><rect class="cls-2" x="163.71" width="11.69" height="11.4"/><rect class="cls-2" x="152.01" y="125.46" width="11.7" height="11.4"/><rect class="cls-3" x="152.01" y="114.06" width="11.7" height="11.4"/><rect class="cls-3" x="152.01" y="102.65" width="11.7" height="11.41"/><rect class="cls-3" x="152.01" y="91.24" width="11.7" height="11.4"/><rect class="cls-3" x="152.01" y="79.84" width="11.7" height="11.4"/><rect class="cls-3" x="152.01" y="68.43" width="11.7" height="11.4"/><rect class="cls-3" x="152.01" y="57.03" width="11.7" height="11.4"/><rect class="cls-3" x="152.01" y="45.63" width="11.7" height="11.4"/><rect class="cls-3" x="152.01" y="34.22" width="11.7" height="11.4"/><rect class="cls-3" x="152.01" y="22.82" width="11.7" height="11.4"/><rect class="cls-3" x="152.01" y="11.41" width="11.7" height="11.41"/><rect class="cls-2" x="152.01" width="11.7" height="11.4"/><rect class="cls-2" x="140.32" y="114.06" width="11.7" height="11.4"/><rect class="cls-2" x="140.32" y="102.65" width="11.7" height="11.41"/><rect class="cls-2" x="140.32" y="91.24" width="11.7" height="11.4"/><rect class="cls-2" x="140.32" y="79.84" width="11.7" height="11.4"/><rect class="cls-2" x="140.32" y="68.43" width="11.7" height="11.4"/><rect class="cls-2" x="140.32" y="57.03" width="11.7" height="11.4"/><rect class="cls-2" x="140.32" y="45.63" width="11.7" height="11.4"/><rect class="cls-2" x="140.32" y="34.22" width="11.7" height="11.4"/><rect class="cls-2" x="140.32" y="22.82" width="11.7" height="11.4"/><rect class="cls-2" x="140.32" y="11.41" width="11.7" height="11.41"/><rect class="cls-2" x="128.62" y="125.46" width="11.7" height="11.4"/><rect class="cls-3" x="128.62" y="114.06" width="11.7" height="11.4"/><rect class="cls-3" x="128.62" y="102.65" width="11.7" height="11.41"/><rect class="cls-2" x="128.62" y="91.24" width="11.7" height="11.4"/><rect class="cls-3" x="128.62" y="79.84" width="11.7" height="11.4"/><rect class="cls-3" x="128.62" y="68.43" width="11.7" height="11.4"/><rect class="cls-2" x="128.62" y="57.03" width="11.7" height="11.4"/><rect class="cls-3" x="128.62" y="45.63" width="11.7" height="11.4"/><rect class="cls-3" x="128.62" y="34.22" width="11.7" height="11.4"/><rect class="cls-2" x="128.62" y="22.82" width="11.7" height="11.4"/><rect class="cls-3" x="128.62" y="11.41" width="11.7" height="11.41"/><rect class="cls-2" x="116.93" y="125.46" width="11.69" height="11.4"/><rect class="cls-3" x="116.93" y="114.06" width="11.69" height="11.4"/><rect class="cls-3" x="116.93" y="102.65" width="11.69" height="11.41"/><rect class="cls-2" x="116.93" y="91.24" width="11.69" height="11.4"/><rect class="cls-3" x="116.93" y="79.84" width="11.69" height="11.4"/><rect class="cls-3" x="116.93" y="68.43" width="11.69" height="11.4"/><rect class="cls-2" x="116.93" y="57.03" width="11.69" height="11.4"/><rect class="cls-3" x="116.93" y="45.63" width="11.69" height="11.4"/><rect class="cls-3" x="116.93" y="34.22" width="11.69" height="11.4"/><rect class="cls-2" x="116.93" y="22.82" width="11.69" height="11.4"/><rect class="cls-3" x="116.93" y="11.41" width="11.69" height="11.41"/><rect class="cls-2" x="105.24" y="125.46" width="11.7" height="11.4"/><rect class="cls-2" x="105.24" y="114.06" width="11.7" height="11.4"/><rect class="cls-2" x="105.24" y="102.65" width="11.7" height="11.41"/><rect class="cls-2" x="105.24" y="91.24" width="11.7" height="11.4"/><rect class="cls-3" x="105.24" y="79.84" width="11.7" height="11.4"/><rect class="cls-3" x="105.24" y="68.43" width="11.7" height="11.4"/><rect class="cls-2" x="105.24" y="57.03" width="11.7" height="11.4"/><rect class="cls-2" x="105.24" y="45.63" width="11.7" height="11.4"/><rect class="cls-2" x="105.24" y="34.22" width="11.7" height="11.4"/><rect class="cls-2" x="105.24" y="22.82" width="11.7" height="11.4"/><rect class="cls-3" x="105.24" y="11.41" width="11.7" height="11.41"/><rect class="cls-2" x="93.54" y="125.46" width="11.7" height="11.4"/><rect class="cls-3" x="93.54" y="114.06" width="11.7" height="11.4"/><rect class="cls-3" x="93.54" y="102.65" width="11.7" height="11.41"/><rect class="cls-2" x="93.54" y="91.24" width="11.7" height="11.4"/><rect class="cls-3" x="93.54" y="79.84" width="11.7" height="11.4"/><rect class="cls-3" x="93.54" y="68.43" width="11.7" height="11.4"/><rect class="cls-2" x="93.54" y="57.03" width="11.7" height="11.4"/><rect class="cls-3" x="93.54" y="45.63" width="11.7" height="11.4"/><rect class="cls-3" x="93.54" y="34.22" width="11.7" height="11.4"/><rect class="cls-2" x="93.54" y="22.82" width="11.7" height="11.4"/><rect class="cls-3" x="93.54" y="11.41" width="11.7" height="11.41"/><rect class="cls-2" x="81.85" y="125.46" width="11.7" height="11.4"/><rect class="cls-3" x="81.85" y="114.06" width="11.7" height="11.4"/><rect class="cls-3" x="81.85" y="102.65" width="11.7" height="11.41"/><rect class="cls-2" x="81.85" y="91.24" width="11.7" height="11.4"/><rect class="cls-3" x="81.85" y="79.84" width="11.7" height="11.4"/><rect class="cls-3" x="81.85" y="68.43" width="11.7" height="11.4"/><rect class="cls-2" x="81.85" y="57.03" width="11.7" height="11.4"/><rect class="cls-3" x="81.85" y="45.63" width="11.7" height="11.4"/><rect class="cls-3" x="81.85" y="34.22" width="11.7" height="11.4"/><rect class="cls-2" x="81.85" y="22.82" width="11.7" height="11.4"/><rect class="cls-3" x="81.85" y="11.41" width="11.7" height="11.41"/><rect class="cls-2" x="70.16" y="125.46" width="11.69" height="11.4"/><rect class="cls-3" x="70.16" y="114.06" width="11.69" height="11.4"/><rect class="cls-3" x="70.16" y="102.65" width="11.69" height="11.41"/><rect class="cls-2" x="70.16" y="91.24" width="11.69" height="11.4"/><rect class="cls-2" x="70.16" y="79.84" width="11.69" height="11.4"/><rect class="cls-2" x="70.16" y="68.43" width="11.69" height="11.4"/><rect class="cls-2" x="70.16" y="57.03" width="11.69" height="11.4"/><rect class="cls-3" x="70.16" y="45.63" width="11.69" height="11.4"/><rect class="cls-3" x="70.16" y="34.22" width="11.69" height="11.4"/><rect class="cls-2" x="70.16" y="22.82" width="11.69" height="11.4"/><rect class="cls-2" x="70.16" y="11.41" width="11.69" height="11.41"/><rect class="cls-2" x="58.47" y="125.46" width="11.7" height="11.4"/><rect class="cls-3" x="58.47" y="114.06" width="11.7" height="11.4"/><rect class="cls-3" x="58.47" y="102.65" width="11.7" height="11.41"/><rect class="cls-2" x="58.47" y="91.24" width="11.7" height="11.4"/><rect class="cls-3" x="58.47" y="79.84" width="11.7" height="11.4"/><rect class="cls-3" x="58.47" y="68.43" width="11.7" height="11.4"/><rect class="cls-2" x="58.47" y="57.03" width="11.7" height="11.4"/><rect class="cls-3" x="58.47" y="45.63" width="11.7" height="11.4"/><rect class="cls-3" x="58.47" y="34.22" width="11.7" height="11.4"/><rect class="cls-2" x="58.47" y="22.82" width="11.7" height="11.4"/><rect class="cls-3" x="58.47" y="11.41" width="11.7" height="11.41"/><rect class="cls-2" x="46.77" y="125.46" width="11.7" height="11.4"/><rect class="cls-3" x="46.77" y="114.06" width="11.7" height="11.4"/><rect class="cls-3" x="46.77" y="102.65" width="11.7" height="11.41"/><rect class="cls-2" x="46.77" y="91.24" width="11.7" height="11.4"/><rect class="cls-3" x="46.77" y="79.84" width="11.7" height="11.4"/><rect class="cls-3" x="46.77" y="68.43" width="11.7" height="11.4"/><rect class="cls-2" x="46.77" y="57.03" width="11.7" height="11.4"/><rect class="cls-3" x="46.77" y="45.63" width="11.7" height="11.4"/><rect class="cls-3" x="46.77" y="34.22" width="11.7" height="11.4"/><rect class="cls-2" x="46.77" y="22.82" width="11.7" height="11.4"/><rect class="cls-3" x="46.77" y="11.41" width="11.7" height="11.41"/><rect class="cls-2" x="35.08" y="125.46" width="11.7" height="11.4"/><rect class="cls-2" x="35.08" y="114.06" width="11.7" height="11.4"/><rect class="cls-2" x="35.08" y="102.65" width="11.7" height="11.41"/><rect class="cls-2" x="35.08" y="91.24" width="11.7" height="11.4"/><rect class="cls-3" x="35.08" y="79.84" width="11.7" height="11.4"/><rect class="cls-3" x="35.08" y="68.43" width="11.7" height="11.4"/><rect class="cls-2" x="35.08" y="57.03" width="11.7" height="11.4"/><rect class="cls-2" x="35.08" y="45.63" width="11.7" height="11.4"/><rect class="cls-2" x="35.08" y="34.22" width="11.7" height="11.4"/><rect class="cls-2" x="35.08" y="22.82" width="11.7" height="11.4"/><rect class="cls-3" x="35.08" y="11.41" width="11.7" height="11.41"/><rect class="cls-2" x="23.39" y="125.46" width="11.69" height="11.4"/><rect class="cls-3" x="23.39" y="114.06" width="11.69" height="11.4"/><rect class="cls-3" x="23.39" y="102.65" width="11.69" height="11.41"/><rect class="cls-2" x="23.39" y="91.24" width="11.69" height="11.4"/><rect class="cls-3" x="23.39" y="79.84" width="11.69" height="11.4"/><rect class="cls-3" x="23.39" y="68.43" width="11.69" height="11.4"/><rect class="cls-2" x="23.39" y="57.03" width="11.69" height="11.4"/><rect class="cls-3" x="23.39" y="45.63" width="11.69" height="11.4"/><rect class="cls-3" x="23.39" y="34.22" width="11.69" height="11.4"/><rect class="cls-2" x="23.39" y="22.82" width="11.69" height="11.4"/><rect class="cls-3" x="23.39" y="11.41" width="11.69" height="11.41"/><rect class="cls-2" x="11.69" y="125.46" width="11.7" height="11.4"/><rect class="cls-3" x="11.69" y="114.06" width="11.7" height="11.4"/><rect class="cls-3" x="11.69" y="102.65" width="11.7" height="11.41"/><rect class="cls-2" x="11.69" y="91.24" width="11.7" height="11.4"/><rect class="cls-3" x="11.69" y="79.84" width="11.7" height="11.4"/><rect class="cls-3" x="11.69" y="68.43" width="11.7" height="11.4"/><rect class="cls-2" x="11.69" y="57.03" width="11.7" height="11.4"/><rect class="cls-3" x="11.69" y="45.63" width="11.7" height="11.4"/><rect class="cls-3" x="11.69" y="34.22" width="11.7" height="11.4"/><rect class="cls-2" x="11.69" y="22.82" width="11.7" height="11.4"/><rect class="cls-3" x="11.69" y="11.41" width="11.7" height="11.41"/><rect class="cls-2" y="114.06" width="11.7" height="11.4"/><rect class="cls-2" y="102.65" width="11.7" height="11.41"/><rect class="cls-2" y="91.24" width="11.7" height="11.4"/><rect class="cls-2" y="79.84" width="11.7" height="11.4"/><rect class="cls-2" y="68.43" width="11.7" height="11.4"/><rect class="cls-2" y="57.03" width="11.7" height="11.4"/><rect class="cls-2" y="45.63" width="11.7" height="11.4"/><rect class="cls-2" y="34.22" width="11.7" height="11.4"/><rect class="cls-2" y="22.82" width="11.7" height="11.4"/><rect class="cls-2" y="11.41" width="11.7" height="11.41"/></g></g></svg>