<svg xmlns="http://www.w3.org/2000/svg" viewBox="0 0 387.25 628.43"><defs><style>.cls-1{fill:#914400;}.cls-2{fill:#92ffd3;}.cls-3{fill:#fff;}.cls-4{fill:#fc9838;}.cls-5{fill:#9b9b9b;}.cls-6{fill:#0006a6;}.cls-7{fill:red;}.cls-8{fill:#1722ad;}.cls-9{fill:#efeded;}.cls-10{fill:#ddd;}.cls-11{fill:#515151;}</style></defs><g id="Layer_2" data-name="Layer 2"><g id="Layer_1-2" data-name="Layer 1"><g id="Layer_4" data-name="Layer 4"><rect x="293.77" y="552.82" width="13.35" height="12.6"/><rect x="293.77" y="540.22" width="13.35" height="12.6"/><rect x="293.77" y="527.61" width="13.35" height="12.6"/><rect x="293.77" y="515.01" width="13.35" height="12.6"/><rect x="293.77" y="502.41" width="13.35" height="12.6"/><rect x="293.77" y="489.81" width="13.35" height="12.6"/><rect x="293.77" y="477.2" width="13.35" height="12.6"/><rect x="293.77" y="464.6" width="13.35" height="12.6"/><rect x="293.77" y="452" width="13.35" height="12.6"/><rect x="293.77" y="439.4" width="13.35" height="12.6"/><rect x="293.77" y="149.54" width="13.35" height="12.6"/><rect x="293.77" y="136.93" width="13.35" height="12.6"/><rect x="293.77" y="124.33" width="13.35" height="12.6"/><rect x="293.77" y="111.72" width="13.35" height="12.6"/><rect x="280.43" y="565.42" width="13.35" height="12.6"/><rect class="cls-1" x="280.43" y="552.82" width="13.35" height="12.6"/><rect class="cls-1" x="280.43" y="540.22" width="13.35" height="12.6"/><rect class="cls-1" x="280.43" y="527.61" width="13.35" height="12.6"/><rect class="cls-1" x="280.43" y="515.01" width="13.35" height="12.6"/><rect class="cls-1" x="280.43" y="502.41" width="13.35" height="12.6"/><rect class="cls-1" x="280.43" y="489.81" width="13.35" height="12.6"/><rect class="cls-1" x="280.43" y="477.2" width="13.35" height="12.6"/><rect class="cls-1" x="280.43" y="464.6" width="13.35" height="12.6"/><rect class="cls-1" x="280.43" y="452" width="13.35" height="12.6"/><rect x="280.43" y="439.4" width="13.35" height="12.6"/><rect x="280.43" y="313.37" width="13.35" height="12.6"/><rect x="280.43" y="300.76" width="13.35" height="12.6"/><rect x="280.43" y="288.16" width="13.35" height="12.6"/><rect x="280.43" y="275.56" width="13.35" height="12.6"/><rect x="280.43" y="262.96" width="13.35" height="12.6"/><rect x="280.43" y="250.36" width="13.35" height="12.6"/><rect x="280.43" y="237.75" width="13.35" height="12.6"/><rect x="280.43" y="225.15" width="13.35" height="12.6"/><rect x="280.43" y="212.55" width="13.35" height="12.6"/><rect x="280.43" y="199.95" width="13.35" height="12.6"/><rect x="280.43" y="187.34" width="13.35" height="12.6"/><rect x="280.43" y="174.74" width="13.35" height="12.6"/><rect x="280.43" y="162.14" width="13.35" height="12.6"/><rect x="280.43" y="149.54" width="13.35" height="12.6"/><rect class="cls-2" x="280.43" y="136.93" width="13.35" height="12.6"/><rect class="cls-2" x="280.43" y="124.33" width="13.35" height="12.6"/><rect class="cls-2" x="280.43" y="111.72" width="13.35" height="12.6"/><rect x="280.43" y="99.13" width="13.35" height="12.6"/><rect x="267.07" y="565.42" width="13.35" height="12.6"/><rect class="cls-1" x="267.07" y="552.82" width="13.35" height="12.6"/><rect class="cls-1" x="267.07" y="540.22" width="13.35" height="12.6"/><rect class="cls-1" x="267.07" y="527.61" width="13.35" height="12.6"/><rect class="cls-1" x="267.07" y="515.01" width="13.35" height="12.6"/><rect class="cls-1" x="267.07" y="502.41" width="13.35" height="12.6"/><rect class="cls-1" x="267.07" y="489.81" width="13.35" height="12.6"/><rect class="cls-1" x="267.07" y="477.2" width="13.35" height="12.6"/><rect class="cls-1" x="267.07" y="464.6" width="13.35" height="12.6"/><rect x="267.07" y="452" width="13.35" height="12.6"/><rect x="267.07" y="325.97" width="13.35" height="12.6"/><rect class="cls-3" x="267.07" y="313.37" width="13.35" height="12.6"/><rect class="cls-3" x="267.07" y="300.76" width="13.35" height="12.6"/><rect class="cls-3" x="267.07" y="288.16" width="13.35" height="12.6"/><rect class="cls-3" x="267.07" y="275.56" width="13.35" height="12.6"/><rect class="cls-3" x="267.07" y="262.96" width="13.35" height="12.6"/><rect class="cls-3" x="267.07" y="250.36" width="13.35" height="12.6"/><rect class="cls-3" x="267.07" y="237.75" width="13.35" height="12.6"/><rect class="cls-3" x="267.07" y="225.15" width="13.35" height="12.6"/><rect class="cls-3" x="267.07" y="212.55" width="13.35" height="12.6"/><rect class="cls-3" x="267.07" y="199.95" width="13.35" height="12.6"/><rect class="cls-3" x="267.07" y="187.34" width="13.35" height="12.6"/><rect class="cls-3" x="267.07" y="174.74" width="13.35" height="12.6"/><rect class="cls-3" x="267.07" y="162.14" width="13.35" height="12.6"/><rect x="267.07" y="149.54" width="13.35" height="12.6"/><rect class="cls-2" x="267.07" y="136.93" width="13.35" height="12.6"/><rect class="cls-2" x="267.07" y="124.33" width="13.35" height="12.6"/><rect class="cls-2" x="267.07" y="111.72" width="13.35" height="12.6"/><rect class="cls-2" x="267.07" y="99.13" width="13.35" height="12.6"/><rect x="267.07" y="86.52" width="13.35" height="12.6"/><rect x="253.72" y="565.42" width="13.35" height="12.6"/><rect class="cls-1" x="253.72" y="552.82" width="13.35" height="12.6"/><rect class="cls-1" x="253.72" y="540.22" width="13.35" height="12.6"/><rect class="cls-1" x="253.72" y="527.61" width="13.35" height="12.6"/><rect class="cls-1" x="253.72" y="515.01" width="13.35" height="12.6"/><rect class="cls-1" x="253.72" y="502.41" width="13.35" height="12.6"/><rect class="cls-1" x="253.72" y="489.81" width="13.35" height="12.6"/><rect class="cls-1" x="253.72" y="477.2" width="13.35" height="12.6"/><rect x="253.72" y="464.6" width="13.35" height="12.6"/><rect x="253.72" y="351.17" width="13.35" height="12.6"/><rect x="253.72" y="338.58" width="13.35" height="12.6"/><rect x="253.72" y="325.97" width="13.35" height="12.6"/><rect class="cls-3" x="253.72" y="313.37" width="13.35" height="12.6"/><rect class="cls-3" x="253.72" y="300.76" width="13.35" height="12.6"/><rect x="253.72" y="288.16" width="13.35" height="12.6"/><rect x="253.72" y="275.56" width="13.35" height="12.6"/><rect x="253.72" y="262.96" width="13.35" height="12.6"/><rect x="253.72" y="250.36" width="13.35" height="12.6"/><rect x="253.72" y="237.75" width="13.35" height="12.6"/><rect x="253.72" y="225.15" width="13.35" height="12.6"/><rect x="253.72" y="212.55" width="13.35" height="12.6"/><rect class="cls-3" x="253.72" y="199.95" width="13.35" height="12.6"/><rect class="cls-3" x="253.72" y="187.34" width="13.35" height="12.6"/><rect class="cls-3" x="253.72" y="174.74" width="13.35" height="12.6"/><rect class="cls-3" x="253.72" y="162.14" width="13.35" height="12.6"/><rect x="253.72" y="149.54" width="13.35" height="12.6"/><rect class="cls-2" x="253.72" y="136.93" width="13.35" height="12.6"/><rect class="cls-2" x="253.72" y="124.33" width="13.35" height="12.6"/><rect class="cls-2" x="253.72" y="111.72" width="13.35" height="12.6"/><rect class="cls-2" x="253.72" y="99.13" width="13.35" height="12.6"/><rect x="253.72" y="86.52" width="13.35" height="12.6"/><rect x="240.36" y="565.42" width="13.35" height="12.6"/><rect class="cls-1" x="240.36" y="552.82" width="13.35" height="12.6"/><rect class="cls-1" x="240.36" y="540.22" width="13.35" height="12.6"/><rect class="cls-1" x="240.36" y="527.61" width="13.35" height="12.6"/><rect class="cls-1" x="240.36" y="515.01" width="13.35" height="12.6"/><rect class="cls-1" x="240.36" y="502.41" width="13.35" height="12.6"/><rect class="cls-1" x="240.36" y="489.81" width="13.35" height="12.6"/><rect class="cls-1" x="240.36" y="477.2" width="13.35" height="12.6"/><rect x="240.36" y="464.6" width="13.35" height="12.6"/><rect x="240.36" y="401.59" width="13.35" height="12.6"/><rect x="240.36" y="388.99" width="13.35" height="12.6"/><rect x="240.36" y="376.38" width="13.35" height="12.6"/><rect x="240.36" y="363.78" width="13.35" height="12.6"/><rect x="240.36" y="351.17" width="13.35" height="12.6"/><rect class="cls-3" x="240.36" y="338.58" width="13.35" height="12.6"/><rect class="cls-3" x="240.36" y="325.97" width="13.35" height="12.6"/><rect class="cls-3" x="240.36" y="313.37" width="13.35" height="12.6"/><rect class="cls-3" x="240.36" y="300.76" width="13.35" height="12.6"/><rect x="240.36" y="288.16" width="13.35" height="12.6"/><rect class="cls-4" x="240.36" y="275.56" width="13.35" height="12.6"/><rect x="240.36" y="262.96" width="13.35" height="12.6"/><rect class="cls-4" x="240.36" y="250.36" width="13.35" height="12.6"/><rect class="cls-4" x="240.36" y="237.75" width="13.35" height="12.6"/><rect class="cls-4" x="240.36" y="225.15" width="13.35" height="12.6"/><rect x="240.36" y="212.55" width="13.35" height="12.6"/><rect class="cls-3" x="240.36" y="199.95" width="13.35" height="12.6"/><rect class="cls-3" x="240.36" y="187.34" width="13.35" height="12.6"/><rect class="cls-3" x="240.36" y="174.74" width="13.35" height="12.6"/><rect class="cls-3" x="240.36" y="162.14" width="13.35" height="12.6"/><rect x="240.36" y="149.54" width="13.35" height="12.6"/><rect class="cls-2" x="240.36" y="136.93" width="13.35" height="12.6"/><rect class="cls-2" x="240.36" y="124.33" width="13.35" height="12.6"/><rect class="cls-2" x="240.36" y="111.72" width="13.35" height="12.6"/><rect class="cls-2" x="240.36" y="99.13" width="13.35" height="12.6"/><rect x="240.36" y="86.52" width="13.35" height="12.6"/><rect x="227.01" y="565.42" width="13.35" height="12.6"/><rect x="227.01" y="552.82" width="13.35" height="12.6"/><rect x="227.01" y="540.22" width="13.35" height="12.6"/><rect x="227.01" y="527.61" width="13.35" height="12.6"/><rect x="227.01" y="515.01" width="13.35" height="12.6"/><rect x="227.01" y="502.41" width="13.35" height="12.6"/><rect x="227.01" y="489.81" width="13.35" height="12.6"/><rect x="227.01" y="477.2" width="13.35" height="12.6"/><rect x="227.01" y="464.6" width="13.35" height="12.6"/><rect x="227.01" y="452" width="13.35" height="12.6"/><rect x="227.01" y="439.4" width="13.35" height="12.6"/><rect x="227.01" y="426.79" width="13.35" height="12.6"/><rect x="227.01" y="414.19" width="13.35" height="12.6"/><rect x="227.01" y="401.59" width="13.35" height="12.6"/><rect x="227.01" y="388.99" width="13.35" height="12.6"/><rect x="227.01" y="376.38" width="13.35" height="12.6"/><rect x="227.01" y="363.78" width="13.35" height="12.6"/><rect x="227.01" y="351.17" width="13.35" height="12.6"/><rect x="227.01" y="338.58" width="13.35" height="12.6"/><rect x="227.01" y="325.97" width="13.35" height="12.6"/><rect x="227.01" y="313.37" width="13.35" height="12.6"/><rect x="227.01" y="300.76" width="13.35" height="12.6"/><rect x="227.01" y="288.16" width="13.35" height="12.6"/><rect x="227.01" y="275.56" width="13.35" height="12.6"/><rect x="227.01" y="262.96" width="13.35" height="12.6"/><rect class="cls-4" x="227.01" y="250.36" width="13.35" height="12.6"/><rect class="cls-4" x="227.01" y="237.75" width="13.35" height="12.6"/><rect x="227.01" y="225.15" width="13.35" height="12.6"/><rect class="cls-5" x="227.01" y="212.55" width="13.35" height="12.6"/><rect x="227.01" y="199.95" width="13.35" height="12.6"/><rect class="cls-3" x="227.01" y="187.34" width="13.35" height="12.6"/><rect class="cls-3" x="227.01" y="174.74" width="13.35" height="12.6"/><rect class="cls-3" x="227.01" y="162.14" width="13.35" height="12.6"/><rect x="227.01" y="149.54" width="13.35" height="12.6"/><rect class="cls-2" x="227.01" y="136.93" width="13.35" height="12.6"/><rect class="cls-2" x="227.01" y="124.33" width="13.35" height="12.6"/><rect class="cls-2" x="227.01" y="111.72" width="13.35" height="12.6"/><rect class="cls-2" x="227.01" y="99.13" width="13.35" height="12.6"/><rect x="227.01" y="86.52" width="13.35" height="12.6"/><rect x="213.66" y="565.42" width="13.35" height="12.6"/><rect class="cls-6" x="213.66" y="552.82" width="13.35" height="12.6"/><rect class="cls-6" x="213.66" y="540.22" width="13.35" height="12.6"/><rect class="cls-6" x="213.66" y="527.61" width="13.35" height="12.6"/><rect class="cls-6" x="213.66" y="515.01" width="13.35" height="12.6"/><rect class="cls-6" x="213.66" y="502.41" width="13.35" height="12.6"/><rect class="cls-6" x="213.66" y="489.81" width="13.35" height="12.6"/><rect x="213.66" y="477.2" width="13.35" height="12.6"/><rect x="213.66" y="464.6" width="13.35" height="12.6"/><rect class="cls-3" x="213.66" y="452" width="13.35" height="12.6"/><rect class="cls-3" x="213.66" y="439.4" width="13.35" height="12.6"/><rect class="cls-3" x="213.66" y="426.79" width="13.35" height="12.6"/><rect class="cls-3" x="213.66" y="414.19" width="13.35" height="12.6"/><rect x="213.66" y="401.59" width="13.35" height="12.6"/><rect class="cls-7" x="213.66" y="388.99" width="13.35" height="12.6"/><rect class="cls-7" x="213.66" y="376.38" width="13.35" height="12.6"/><rect class="cls-6" x="213.66" y="363.78" width="13.35" height="12.6"/><rect class="cls-6" x="213.66" y="351.17" width="13.35" height="12.6"/><rect class="cls-6" x="213.66" y="338.58" width="13.35" height="12.6"/><rect class="cls-7" x="213.66" y="325.97" width="13.35" height="12.6"/><rect class="cls-7" x="213.66" y="313.37" width="13.35" height="12.6"/><rect x="213.66" y="300.76" width="13.35" height="12.6"/><rect x="213.66" y="288.16" width="13.35" height="12.6"/><rect x="213.66" y="275.56" width="13.35" height="12.6"/><rect x="213.66" y="262.96" width="13.35" height="12.6"/><rect class="cls-4" x="213.66" y="250.36" width="13.35" height="12.6"/><rect class="cls-4" x="213.66" y="237.75" width="13.35" height="12.6"/><rect x="213.66" y="225.15" width="13.35" height="12.6"/><rect class="cls-5" x="213.66" y="212.55" width="13.35" height="12.6"/><rect class="cls-4" x="213.66" y="199.95" width="13.35" height="12.6"/><rect x="213.66" y="187.34" width="13.35" height="12.6"/><rect x="213.66" y="174.74" width="13.35" height="12.6"/><rect x="213.66" y="162.14" width="13.35" height="12.6"/><rect x="213.66" y="149.54" width="13.35" height="12.6"/><rect class="cls-2" x="213.66" y="136.93" width="13.35" height="12.6"/><rect class="cls-2" x="213.66" y="124.33" width="13.35" height="12.6"/><rect class="cls-2" x="213.66" y="111.72" width="13.35" height="12.6"/><rect x="213.66" y="99.13" width="13.35" height="12.6"/><rect x="200.3" y="565.42" width="13.35" height="12.6"/><rect class="cls-6" x="200.3" y="552.82" width="13.35" height="12.6"/><rect class="cls-6" x="200.3" y="540.22" width="13.35" height="12.6"/><rect class="cls-6" x="200.3" y="527.61" width="13.35" height="12.6"/><rect class="cls-6" x="200.3" y="515.01" width="13.35" height="12.6"/><rect class="cls-6" x="200.3" y="502.41" width="13.35" height="12.6"/><rect class="cls-6" x="200.3" y="489.81" width="13.35" height="12.6"/><rect x="200.3" y="477.2" width="13.35" height="12.6"/><rect class="cls-3" x="200.3" y="464.6" width="13.35" height="12.6"/><rect class="cls-3" x="200.3" y="452" width="13.35" height="12.6"/><rect class="cls-3" x="200.3" y="439.4" width="13.35" height="12.6"/><rect class="cls-3" x="200.3" y="426.79" width="13.35" height="12.6"/><rect class="cls-3" x="200.3" y="414.19" width="13.35" height="12.6"/><rect class="cls-3" x="200.3" y="401.59" width="13.35" height="12.6"/><rect x="200.3" y="388.99" width="13.35" height="12.6"/><rect x="200.3" y="376.38" width="13.35" height="12.6"/><rect class="cls-7" x="200.3" y="363.78" width="13.35" height="12.6"/><rect class="cls-7" x="200.3" y="351.17" width="13.35" height="12.6"/><rect class="cls-7" x="200.3" y="338.58" width="13.35" height="12.6"/><rect class="cls-6" x="200.3" y="325.97" width="13.35" height="12.6"/><rect class="cls-6" x="200.3" y="313.37" width="13.35" height="12.6"/><rect class="cls-4" x="200.3" y="300.76" width="13.35" height="12.6"/><rect x="200.3" y="288.16" width="13.35" height="12.6"/><rect x="200.3" y="275.56" width="13.35" height="12.6"/><rect x="200.3" y="262.96" width="13.35" height="12.6"/><rect x="200.3" y="250.36" width="13.35" height="12.6"/><rect class="cls-4" x="200.3" y="237.75" width="13.35" height="12.6"/><rect x="200.3" y="225.15" width="13.35" height="12.6"/><rect class="cls-5" x="200.3" y="212.55" width="13.35" height="12.6"/><rect class="cls-4" x="200.3" y="199.95" width="13.35" height="12.6"/><rect x="200.3" y="187.34" width="13.35" height="12.6"/><rect class="cls-7" x="200.3" y="174.74" width="13.35" height="12.6"/><rect class="cls-7" x="200.3" y="162.14" width="13.35" height="12.6"/><rect x="200.3" y="149.54" width="13.35" height="12.6"/><rect x="200.3" y="136.93" width="13.35" height="12.6"/><rect class="cls-2" x="200.3" y="124.33" width="13.35" height="12.6"/><rect class="cls-2" x="200.3" y="111.72" width="13.35" height="12.6"/><rect x="200.3" y="99.13" width="13.35" height="12.6"/><rect x="186.95" y="565.42" width="13.35" height="12.6"/><rect class="cls-6" x="186.95" y="552.82" width="13.35" height="12.6"/><rect class="cls-6" x="186.95" y="540.22" width="13.35" height="12.6"/><rect class="cls-6" x="186.95" y="527.61" width="13.35" height="12.6"/><rect class="cls-6" x="186.95" y="515.01" width="13.35" height="12.6"/><rect class="cls-6" x="186.95" y="502.41" width="13.35" height="12.6"/><rect class="cls-6" x="186.95" y="489.81" width="13.35" height="12.6"/><rect x="186.95" y="477.2" width="13.35" height="12.6"/><rect class="cls-3" x="186.95" y="464.6" width="13.35" height="12.6"/><rect class="cls-3" x="186.95" y="452" width="13.35" height="12.6"/><rect class="cls-3" x="186.95" y="439.4" width="13.35" height="12.6"/><rect class="cls-3" x="186.95" y="426.79" width="13.35" height="12.6"/><rect class="cls-3" x="186.95" y="414.19" width="13.35" height="12.6"/><rect class="cls-3" x="186.95" y="401.59" width="13.35" height="12.6"/><rect class="cls-3" x="186.95" y="388.99" width="13.35" height="12.6"/><rect class="cls-3" x="186.95" y="376.38" width="13.35" height="12.6"/><rect x="186.95" y="363.78" width="13.35" height="12.6"/><rect class="cls-7" x="186.95" y="351.17" width="13.35" height="12.6"/><rect class="cls-6" x="186.95" y="338.58" width="13.35" height="12.6"/><rect class="cls-6" x="186.95" y="325.97" width="13.35" height="12.6"/><rect class="cls-6" x="186.95" y="313.37" width="13.35" height="12.6"/><rect class="cls-4" x="186.95" y="300.76" width="13.35" height="12.6"/><rect x="186.95" y="288.16" width="13.35" height="12.6"/><rect x="186.95" y="275.56" width="13.35" height="12.6"/><rect x="186.95" y="262.96" width="13.35" height="12.6"/><rect class="cls-5" x="186.95" y="250.36" width="13.35" height="12.6"/><rect class="cls-5" x="186.95" y="237.75" width="13.35" height="12.6"/><rect class="cls-5" x="186.95" y="225.15" width="13.35" height="12.6"/><rect class="cls-5" x="186.95" y="212.55" width="13.35" height="12.6"/><rect class="cls-5" x="186.95" y="199.95" width="13.35" height="12.6"/><rect x="186.95" y="187.34" width="13.35" height="12.6"/><rect class="cls-3" x="186.95" y="174.74" width="13.35" height="12.6"/><rect class="cls-3" x="186.95" y="162.14" width="13.35" height="12.6"/><rect class="cls-3" x="186.95" y="149.54" width="13.35" height="12.6"/><rect class="cls-7" x="186.95" y="136.93" width="13.35" height="12.6"/><rect x="186.95" y="124.33" width="13.35" height="12.6"/><rect x="186.95" y="111.72" width="13.35" height="12.6"/><rect x="173.59" y="552.82" width="13.35" height="12.6"/><rect x="173.59" y="540.22" width="13.35" height="12.6"/><rect class="cls-6" x="173.59" y="527.61" width="13.35" height="12.6"/><rect class="cls-6" x="173.59" y="515.01" width="13.35" height="12.6"/><rect class="cls-6" x="173.59" y="502.41" width="13.35" height="12.6"/><rect class="cls-6" x="173.59" y="489.81" width="13.35" height="12.6"/><rect x="173.59" y="477.2" width="13.35" height="12.6"/><rect class="cls-3" x="173.59" y="464.6" width="13.35" height="12.6"/><rect class="cls-3" x="173.59" y="452" width="13.35" height="12.6"/><rect class="cls-3" x="173.59" y="439.4" width="13.35" height="12.6"/><rect class="cls-3" x="173.59" y="426.79" width="13.35" height="12.6"/><rect class="cls-3" x="173.59" y="414.19" width="13.35" height="12.6"/><rect class="cls-3" x="173.59" y="401.59" width="13.35" height="12.6"/><rect class="cls-3" x="173.59" y="388.99" width="13.35" height="12.6"/><rect class="cls-3" x="173.59" y="376.38" width="13.35" height="12.6"/><rect class="cls-3" x="173.59" y="363.78" width="13.35" height="12.6"/><rect x="173.59" y="351.17" width="13.35" height="12.6"/><rect x="173.59" y="338.58" width="13.35" height="12.6"/><rect class="cls-7" x="173.59" y="325.97" width="13.35" height="12.6"/><rect class="cls-7" x="173.59" y="313.37" width="13.35" height="12.6"/><rect class="cls-4" x="173.59" y="300.76" width="13.35" height="12.6"/><rect x="173.59" y="288.16" width="13.35" height="12.6"/><rect x="173.59" y="275.56" width="13.35" height="12.6"/><rect x="173.59" y="262.96" width="13.35" height="12.6"/><rect class="cls-5" x="173.59" y="250.36" width="13.35" height="12.6"/><rect class="cls-3" x="173.59" y="237.75" width="13.35" height="12.6"/><rect x="173.59" y="225.15" width="13.35" height="12.6"/><rect x="173.59" y="212.55" width="13.35" height="12.6"/><rect x="173.59" y="199.95" width="13.35" height="12.6"/><rect x="173.59" y="187.34" width="13.35" height="12.6"/><rect class="cls-3" x="173.59" y="174.74" width="13.35" height="12.6"/><rect class="cls-3" x="173.59" y="162.14" width="13.35" height="12.6"/><rect class="cls-7" x="173.59" y="149.54" width="13.35" height="12.6"/><rect class="cls-7" x="173.59" y="136.93" width="13.35" height="12.6"/><rect x="173.59" y="124.33" width="13.35" height="12.6"/><rect x="160.24" y="565.42" width="13.35" height="12.6"/><rect x="160.24" y="552.82" width="13.35" height="12.6"/><rect x="160.24" y="540.22" width="13.35" height="12.6"/><rect class="cls-6" x="160.24" y="527.61" width="13.35" height="12.6"/><rect class="cls-6" x="160.24" y="515.01" width="13.35" height="12.6"/><rect class="cls-6" x="160.24" y="502.41" width="13.35" height="12.6"/><rect class="cls-6" x="160.24" y="489.81" width="13.35" height="12.6"/><rect x="160.24" y="477.2" width="13.35" height="12.6"/><rect class="cls-3" x="160.24" y="464.6" width="13.35" height="12.6"/><rect class="cls-3" x="160.24" y="452" width="13.35" height="12.6"/><rect class="cls-3" x="160.24" y="439.4" width="13.35" height="12.6"/><rect class="cls-3" x="160.24" y="426.79" width="13.35" height="12.6"/><rect class="cls-3" x="160.24" y="414.19" width="13.35" height="12.6"/><rect class="cls-3" x="160.24" y="401.59" width="13.35" height="12.6"/><rect class="cls-3" x="160.24" y="388.99" width="13.35" height="12.6"/><rect class="cls-3" x="160.24" y="376.38" width="13.35" height="12.6"/><rect class="cls-3" x="160.24" y="363.78" width="13.35" height="12.6"/><rect class="cls-3" x="160.24" y="351.17" width="13.35" height="12.6"/><rect class="cls-3" x="160.24" y="338.58" width="13.35" height="12.6"/><rect x="160.24" y="325.97" width="13.35" height="12.6"/><rect class="cls-7" x="160.24" y="313.37" width="13.35" height="12.6"/><rect class="cls-4" x="160.24" y="300.76" width="13.35" height="12.6"/><rect class="cls-4" x="160.24" y="288.16" width="13.35" height="12.6"/><rect class="cls-4" x="160.24" y="275.56" width="13.35" height="12.6"/><rect x="160.24" y="262.96" width="13.35" height="12.6"/><rect class="cls-5" x="160.24" y="250.36" width="13.35" height="12.6"/><rect class="cls-3" x="160.24" y="237.75" width="13.35" height="12.6"/><rect class="cls-3" x="160.24" y="225.15" width="13.35" height="12.6"/><rect class="cls-3" x="160.24" y="212.55" width="13.35" height="12.6"/><rect class="cls-3" x="160.24" y="199.95" width="13.35" height="12.6"/><rect x="160.24" y="187.34" width="13.35" height="12.6"/><rect class="cls-7" x="160.24" y="174.74" width="13.35" height="12.6"/><rect class="cls-7" x="160.24" y="162.14" width="13.35" height="12.6"/><rect class="cls-7" x="160.24" y="149.54" width="13.35" height="12.6"/><rect class="cls-7" x="160.24" y="136.93" width="13.35" height="12.6"/><rect x="160.24" y="124.33" width="13.35" height="12.6"/><rect x="146.89" y="578.03" width="13.35" height="12.6"/><rect class="cls-6" x="146.89" y="565.42" width="13.35" height="12.6"/><rect class="cls-6" x="146.89" y="552.82" width="13.35" height="12.6"/><rect class="cls-6" x="146.89" y="540.22" width="13.35" height="12.6"/><rect class="cls-6" x="146.89" y="527.61" width="13.35" height="12.6"/><rect class="cls-6" x="146.89" y="515.01" width="13.35" height="12.6"/><rect class="cls-6" x="146.89" y="502.41" width="13.35" height="12.6"/><rect class="cls-6" x="146.89" y="489.81" width="13.35" height="12.6"/><rect x="146.89" y="477.2" width="13.35" height="12.6"/><rect class="cls-3" x="146.89" y="464.6" width="13.35" height="12.6"/><rect class="cls-3" x="146.89" y="452" width="13.35" height="12.6"/><rect class="cls-3" x="146.89" y="439.4" width="13.35" height="12.6"/><rect class="cls-3" x="146.89" y="426.79" width="13.35" height="12.6"/><rect class="cls-3" x="146.89" y="414.19" width="13.35" height="12.6"/><rect class="cls-3" x="146.89" y="401.59" width="13.35" height="12.6"/><rect class="cls-3" x="146.89" y="388.99" width="13.35" height="12.6"/><rect class="cls-3" x="146.89" y="376.38" width="13.35" height="12.6"/><rect class="cls-3" x="146.89" y="363.78" width="13.35" height="12.6"/><rect class="cls-3" x="146.89" y="351.17" width="13.35" height="12.6"/><rect class="cls-3" x="146.89" y="338.58" width="13.35" height="12.6"/><rect class="cls-3" x="146.89" y="325.97" width="13.35" height="12.6"/><rect x="146.89" y="313.37" width="13.35" height="12.6"/><rect class="cls-4" x="146.89" y="300.76" width="13.35" height="12.6"/><rect class="cls-4" x="146.89" y="288.16" width="13.35" height="12.6"/><rect class="cls-4" x="146.89" y="275.56" width="13.35" height="12.6"/><rect x="146.89" y="262.96" width="13.35" height="12.6"/><rect class="cls-5" x="146.89" y="250.36" width="13.35" height="12.6"/><rect class="cls-5" x="146.89" y="237.75" width="13.35" height="12.6"/><rect class="cls-5" x="146.89" y="225.15" width="13.35" height="12.6"/><rect class="cls-5" x="146.89" y="212.55" width="13.35" height="12.6"/><rect class="cls-5" x="146.89" y="199.95" width="13.35" height="12.6"/><rect x="146.89" y="187.34" width="13.35" height="12.6"/><rect class="cls-7" x="146.89" y="174.74" width="13.35" height="12.6"/><rect class="cls-7" x="146.89" y="162.14" width="13.35" height="12.6"/><rect class="cls-7" x="146.89" y="149.54" width="13.35" height="12.6"/><rect class="cls-7" x="146.89" y="136.93" width="13.35" height="12.6"/><rect x="146.89" y="124.33" width="13.35" height="12.6"/><rect x="133.53" y="578.03" width="13.35" height="12.6"/><rect class="cls-6" x="133.53" y="565.42" width="13.35" height="12.6"/><rect class="cls-6" x="133.53" y="552.82" width="13.35" height="12.6"/><rect class="cls-6" x="133.53" y="540.22" width="13.35" height="12.6"/><rect class="cls-6" x="133.53" y="527.61" width="13.35" height="12.6"/><rect class="cls-6" x="133.53" y="515.01" width="13.35" height="12.6"/><rect class="cls-6" x="133.53" y="502.41" width="13.35" height="12.6"/><rect class="cls-6" x="133.53" y="489.81" width="13.35" height="12.6"/><rect x="133.53" y="477.2" width="13.35" height="12.6"/><rect class="cls-3" x="133.53" y="464.6" width="13.35" height="12.6"/><rect class="cls-3" x="133.53" y="452" width="13.35" height="12.6"/><rect class="cls-3" x="133.53" y="439.4" width="13.35" height="12.6"/><rect class="cls-3" x="133.53" y="426.79" width="13.35" height="12.6"/><rect class="cls-3" x="133.53" y="414.19" width="13.35" height="12.6"/><rect class="cls-3" x="133.53" y="401.59" width="13.35" height="12.6"/><rect class="cls-3" x="133.53" y="388.99" width="13.35" height="12.6"/><rect class="cls-3" x="133.53" y="376.38" width="13.35" height="12.6"/><rect class="cls-3" x="133.53" y="363.78" width="13.35" height="12.6"/><rect class="cls-3" x="133.53" y="351.17" width="13.35" height="12.6"/><rect class="cls-3" x="133.53" y="338.58" width="13.35" height="12.6"/><rect class="cls-3" x="133.53" y="325.97" width="13.35" height="12.6"/><rect x="133.53" y="313.37" width="13.35" height="12.6"/><rect class="cls-4" x="133.53" y="300.76" width="13.35" height="12.6"/><rect class="cls-4" x="133.53" y="288.16" width="13.35" height="12.6"/><rect class="cls-4" x="133.53" y="275.56" width="13.35" height="12.6"/><rect class="cls-4" x="133.53" y="262.96" width="13.35" height="12.6"/><rect x="133.53" y="250.36" width="13.35" height="12.6"/><rect x="133.53" y="237.75" width="13.35" height="12.6"/><rect x="133.53" y="225.15" width="13.35" height="12.6"/><rect class="cls-5" x="133.53" y="212.55" width="13.35" height="12.6"/><rect x="133.53" y="199.95" width="13.35" height="12.6"/><rect x="133.53" y="187.34" width="13.35" height="12.6"/><rect class="cls-7" x="133.53" y="174.74" width="13.35" height="12.6"/><rect class="cls-7" x="133.53" y="162.14" width="13.35" height="12.6"/><rect class="cls-7" x="133.53" y="149.54" width="13.35" height="12.6"/><rect class="cls-7" x="133.53" y="136.93" width="13.35" height="12.6"/><rect x="133.53" y="124.33" width="13.35" height="12.6"/><rect x="120.18" y="590.63" width="13.35" height="12.6"/><rect class="cls-6" x="120.18" y="578.03" width="13.35" height="12.6"/><rect class="cls-6" x="120.18" y="565.42" width="13.35" height="12.6"/><rect class="cls-6" x="120.18" y="552.82" width="13.35" height="12.6"/><rect class="cls-6" x="120.18" y="540.22" width="13.35" height="12.6"/><rect class="cls-6" x="120.18" y="527.61" width="13.35" height="12.6"/><rect class="cls-6" x="120.18" y="515.01" width="13.35" height="12.6"/><rect class="cls-6" x="120.18" y="502.41" width="13.35" height="12.6"/><rect class="cls-6" x="120.18" y="489.81" width="13.35" height="12.6"/><rect x="120.18" y="477.2" width="13.35" height="12.6"/><rect class="cls-3" x="120.18" y="464.6" width="13.35" height="12.6"/><rect class="cls-3" x="120.18" y="452" width="13.35" height="12.6"/><rect class="cls-3" x="120.18" y="439.4" width="13.35" height="12.6"/><rect class="cls-3" x="120.18" y="426.79" width="13.35" height="12.6"/><rect class="cls-3" x="120.18" y="414.19" width="13.35" height="12.6"/><rect class="cls-3" x="120.18" y="401.59" width="13.35" height="12.6"/><rect class="cls-3" x="120.18" y="388.99" width="13.35" height="12.6"/><rect class="cls-3" x="120.18" y="376.38" width="13.35" height="12.6"/><rect class="cls-3" x="120.18" y="363.78" width="13.35" height="12.6"/><rect class="cls-3" x="120.18" y="351.17" width="13.35" height="12.6"/><rect class="cls-3" x="120.18" y="338.58" width="13.35" height="12.6"/><rect class="cls-3" x="120.18" y="325.97" width="13.35" height="12.6"/><rect x="120.18" y="313.37" width="13.35" height="12.6"/><rect class="cls-4" x="120.18" y="300.76" width="13.35" height="12.6"/><rect class="cls-4" x="120.18" y="288.16" width="13.35" height="12.6"/><rect class="cls-4" x="120.18" y="275.56" width="13.35" height="12.6"/><rect x="120.18" y="262.96" width="13.35" height="12.6"/><rect class="cls-1" x="120.18" y="250.36" width="13.35" height="12.6"/><rect class="cls-1" x="120.18" y="237.75" width="13.35" height="12.6"/><rect x="120.18" y="225.15" width="13.35" height="12.6"/><rect class="cls-5" x="120.18" y="212.55" width="13.35" height="12.6"/><rect x="120.18" y="199.95" width="13.35" height="12.6"/><rect x="120.18" y="187.34" width="13.35" height="12.6"/><rect class="cls-7" x="120.18" y="174.74" width="13.35" height="12.6"/><rect class="cls-7" x="120.18" y="162.14" width="13.35" height="12.6"/><rect class="cls-7" x="120.18" y="149.54" width="13.35" height="12.6"/><rect class="cls-7" x="120.18" y="136.93" width="13.35" height="12.6"/><rect x="120.18" y="124.33" width="13.35" height="12.6"/><rect x="106.82" y="590.63" width="13.35" height="12.6"/><rect class="cls-6" x="106.82" y="578.03" width="13.35" height="12.6"/><rect class="cls-6" x="106.82" y="565.42" width="13.35" height="12.6"/><rect class="cls-6" x="106.82" y="552.82" width="13.35" height="12.6"/><rect class="cls-6" x="106.82" y="540.22" width="13.35" height="12.6"/><rect class="cls-6" x="106.82" y="527.61" width="13.35" height="12.6"/><rect class="cls-6" x="106.82" y="515.01" width="13.35" height="12.6"/><rect class="cls-6" x="106.82" y="502.41" width="13.35" height="12.6"/><rect class="cls-6" x="106.82" y="489.81" width="13.35" height="12.6"/><rect x="106.82" y="477.2" width="13.35" height="12.6"/><rect class="cls-3" x="106.82" y="464.6" width="13.35" height="12.6"/><rect class="cls-3" x="106.82" y="452" width="13.35" height="12.6"/><rect class="cls-3" x="106.82" y="439.4" width="13.35" height="12.6"/><rect class="cls-3" x="106.82" y="426.79" width="13.35" height="12.6"/><rect class="cls-3" x="106.82" y="414.19" width="13.35" height="12.6"/><rect class="cls-3" x="106.82" y="401.59" width="13.35" height="12.6"/><rect class="cls-3" x="106.82" y="388.99" width="13.35" height="12.6"/><rect class="cls-3" x="106.82" y="376.38" width="13.35" height="12.6"/><rect class="cls-3" x="106.82" y="363.78" width="13.35" height="12.6"/><rect class="cls-3" x="106.82" y="351.17" width="13.35" height="12.6"/><rect class="cls-3" x="106.82" y="338.58" width="13.35" height="12.6"/><rect class="cls-3" x="106.82" y="325.97" width="13.35" height="12.6"/><rect x="106.82" y="313.37" width="13.35" height="12.6"/><rect class="cls-4" x="106.82" y="300.76" width="13.35" height="12.6"/><rect class="cls-4" x="106.82" y="288.16" width="13.35" height="12.6"/><rect class="cls-4" x="106.82" y="275.56" width="13.35" height="12.6"/><rect x="106.82" y="262.96" width="13.35" height="12.6"/><rect class="cls-1" x="106.82" y="250.36" width="13.35" height="12.6"/><rect class="cls-1" x="106.82" y="237.75" width="13.35" height="12.6"/><rect class="cls-1" x="106.82" y="225.15" width="13.35" height="12.6"/><rect class="cls-1" x="106.82" y="212.55" width="13.35" height="12.6"/><rect class="cls-1" x="106.82" y="199.95" width="13.35" height="12.6"/><rect x="106.82" y="187.34" width="13.35" height="12.6"/><rect class="cls-7" x="106.82" y="174.74" width="13.35" height="12.6"/><rect class="cls-7" x="106.82" y="162.14" width="13.35" height="12.6"/><rect class="cls-7" x="106.82" y="149.54" width="13.35" height="12.6"/><rect x="106.82" y="136.93" width="13.35" height="12.6"/><rect x="93.48" y="590.63" width="13.35" height="12.6"/><rect class="cls-6" x="93.48" y="578.03" width="13.35" height="12.6"/><rect class="cls-6" x="93.48" y="565.42" width="13.35" height="12.6"/><rect class="cls-6" x="93.48" y="552.82" width="13.35" height="12.6"/><rect class="cls-6" x="93.48" y="540.22" width="13.35" height="12.6"/><rect class="cls-6" x="93.48" y="527.61" width="13.35" height="12.6"/><rect class="cls-6" x="93.48" y="515.01" width="13.35" height="12.6"/><rect class="cls-6" x="93.48" y="502.41" width="13.35" height="12.6"/><rect class="cls-6" x="93.48" y="489.81" width="13.35" height="12.6"/><rect x="93.48" y="477.2" width="13.35" height="12.6"/><rect class="cls-3" x="93.48" y="464.6" width="13.35" height="12.6"/><rect class="cls-3" x="93.48" y="452" width="13.35" height="12.6"/><rect class="cls-3" x="93.48" y="439.4" width="13.35" height="12.6"/><rect x="93.48" y="426.79" width="13.35" height="12.6"/><rect x="93.48" y="414.19" width="13.35" height="12.6"/><rect x="93.48" y="401.59" width="13.35" height="12.6"/><rect class="cls-3" x="93.48" y="388.99" width="13.35" height="12.6"/><rect class="cls-3" x="93.48" y="376.38" width="13.35" height="12.6"/><rect class="cls-3" x="93.48" y="363.78" width="13.35" height="12.6"/><rect class="cls-3" x="93.48" y="351.17" width="13.35" height="12.6"/><rect class="cls-3" x="93.48" y="338.58" width="13.35" height="12.6"/><rect class="cls-3" x="93.48" y="325.97" width="13.35" height="12.6"/><rect x="93.48" y="313.37" width="13.35" height="12.6"/><rect x="93.48" y="300.76" width="13.35" height="12.6"/><rect x="93.48" y="288.16" width="13.35" height="12.6"/><rect class="cls-4" x="93.48" y="275.56" width="13.35" height="12.6"/><rect class="cls-4" x="93.48" y="262.96" width="13.35" height="12.6"/><rect x="93.48" y="250.36" width="13.35" height="12.6"/><rect x="93.48" y="237.75" width="13.35" height="12.6"/><rect x="93.48" y="225.15" width="13.35" height="12.6"/><rect x="93.48" y="212.55" width="13.35" height="12.6"/><rect class="cls-1" x="93.48" y="199.95" width="13.35" height="12.6"/><rect x="93.48" y="187.34" width="13.35" height="12.6"/><rect class="cls-7" x="93.48" y="174.74" width="13.35" height="12.6"/><rect class="cls-7" x="93.48" y="162.14" width="13.35" height="12.6"/><rect class="cls-7" x="93.48" y="149.54" width="13.35" height="12.6"/><rect x="93.48" y="136.93" width="13.35" height="12.6"/><rect x="80.12" y="590.63" width="13.35" height="12.6"/><rect class="cls-6" x="80.12" y="578.03" width="13.35" height="12.6"/><rect class="cls-6" x="80.12" y="565.42" width="13.35" height="12.6"/><rect class="cls-6" x="80.12" y="552.82" width="13.35" height="12.6"/><rect class="cls-6" x="80.12" y="540.22" width="13.35" height="12.6"/><rect class="cls-6" x="80.12" y="527.61" width="13.35" height="12.6"/><rect class="cls-6" x="80.12" y="515.01" width="13.35" height="12.6"/><rect class="cls-6" x="80.12" y="502.41" width="13.35" height="12.6"/><rect class="cls-6" x="80.12" y="489.81" width="13.35" height="12.6"/><rect x="80.12" y="477.2" width="13.35" height="12.6"/><rect class="cls-3" x="80.12" y="464.6" width="13.35" height="12.6"/><rect class="cls-3" x="80.12" y="452" width="13.35" height="12.6"/><rect x="80.12" y="439.4" width="13.35" height="12.6"/><rect x="80.12" y="426.79" width="13.35" height="12.6"/><rect class="cls-2" x="80.12" y="414.19" width="13.35" height="12.6"/><rect x="80.12" y="401.59" width="13.35" height="12.6"/><rect class="cls-3" x="80.12" y="388.99" width="13.35" height="12.6"/><rect class="cls-3" x="80.12" y="376.38" width="13.35" height="12.6"/><rect class="cls-3" x="80.12" y="363.78" width="13.35" height="12.6"/><rect class="cls-3" x="80.12" y="351.17" width="13.35" height="12.6"/><rect class="cls-3" x="80.12" y="338.58" width="13.35" height="12.6"/><rect class="cls-3" x="80.12" y="325.97" width="13.35" height="12.6"/><rect x="80.12" y="313.37" width="13.35" height="12.6"/><rect class="cls-1" x="80.12" y="300.76" width="13.35" height="12.6"/><rect class="cls-1" x="80.12" y="288.16" width="13.35" height="12.6"/><rect x="80.12" y="275.56" width="13.35" height="12.6"/><rect class="cls-4" x="80.12" y="262.96" width="13.35" height="12.6"/><rect class="cls-4" x="80.12" y="250.36" width="13.35" height="12.6"/><rect class="cls-4" x="80.12" y="237.75" width="13.35" height="12.6"/><rect class="cls-4" x="80.12" y="225.15" width="13.35" height="12.6"/><rect x="80.12" y="212.55" width="13.35" height="12.6"/><rect class="cls-1" x="80.12" y="199.95" width="13.35" height="12.6"/><rect x="80.12" y="187.34" width="13.35" height="12.6"/><rect class="cls-7" x="80.12" y="174.74" width="13.35" height="12.6"/><rect class="cls-7" x="80.12" y="162.14" width="13.35" height="12.6"/><rect class="cls-7" x="80.12" y="149.54" width="13.35" height="12.6"/><rect x="80.12" y="136.93" width="13.35" height="12.6"/><rect x="66.77" y="590.63" width="13.35" height="12.6"/><rect x="66.77" y="578.03" width="13.35" height="12.6"/><rect x="66.77" y="565.42" width="13.35" height="12.6"/><rect x="66.77" y="552.82" width="13.35" height="12.6"/><rect x="66.77" y="540.22" width="13.35" height="12.6"/><rect x="66.77" y="527.61" width="13.35" height="12.6"/><rect x="66.77" y="515.01" width="13.35" height="12.6"/><rect x="66.77" y="502.41" width="13.35" height="12.6"/><rect x="66.77" y="489.81" width="13.35" height="12.6"/><rect x="66.77" y="477.2" width="13.35" height="12.6"/><rect class="cls-3" x="66.77" y="464.6" width="13.35" height="12.6"/><rect x="66.77" y="452" width="13.35" height="12.6"/><rect class="cls-2" x="66.77" y="439.4" width="13.35" height="12.6"/><rect class="cls-2" x="66.77" y="426.79" width="13.35" height="12.6"/><rect class="cls-2" x="66.77" y="414.19" width="13.35" height="12.6"/><rect class="cls-2" x="66.77" y="401.59" width="13.35" height="12.6"/><rect x="66.77" y="388.99" width="13.35" height="12.6"/><rect x="66.77" y="376.38" width="13.35" height="12.6"/><rect class="cls-3" x="66.77" y="363.78" width="13.35" height="12.6"/><rect class="cls-3" x="66.77" y="351.17" width="13.35" height="12.6"/><rect class="cls-3" x="66.77" y="338.58" width="13.35" height="12.6"/><rect class="cls-3" x="66.77" y="325.97" width="13.35" height="12.6"/><rect x="66.77" y="313.37" width="13.35" height="12.6"/><rect class="cls-1" x="66.77" y="300.76" width="13.35" height="12.6"/><rect class="cls-1" x="66.77" y="288.16" width="13.35" height="12.6"/><rect x="66.77" y="275.56" width="13.35" height="12.6"/><rect x="66.77" y="262.96" width="13.35" height="12.6"/><rect x="66.77" y="250.36" width="13.35" height="12.6"/><rect x="66.77" y="237.75" width="13.35" height="12.6"/><rect x="66.77" y="225.15" width="13.35" height="12.6"/><rect x="66.77" y="212.55" width="13.35" height="12.6"/><rect class="cls-1" x="66.77" y="199.95" width="13.35" height="12.6"/><rect x="66.77" y="187.34" width="13.35" height="12.6"/><rect class="cls-7" x="66.77" y="174.74" width="13.35" height="12.6"/><rect class="cls-7" x="66.77" y="162.14" width="13.35" height="12.6"/><rect x="66.77" y="149.54" width="13.35" height="12.6"/><rect x="53.41" y="603.23" width="13.35" height="12.6"/><rect x="53.41" y="590.63" width="13.35" height="12.6"/><rect class="cls-1" x="53.41" y="578.03" width="13.35" height="12.6"/><rect class="cls-1" x="53.41" y="565.42" width="13.35" height="12.6"/><rect class="cls-1" x="53.41" y="552.82" width="13.35" height="12.6"/><rect class="cls-1" x="53.41" y="540.22" width="13.35" height="12.6"/><rect class="cls-1" x="53.41" y="527.61" width="13.35" height="12.6"/><rect class="cls-1" x="53.41" y="515.01" width="13.35" height="12.6"/><rect x="53.41" y="502.41" width="13.35" height="12.6"/><rect x="53.41" y="477.2" width="13.35" height="12.6"/><rect x="53.41" y="464.6" width="13.35" height="12.6"/><rect class="cls-2" x="53.41" y="452" width="13.35" height="12.6"/><rect class="cls-2" x="53.41" y="439.4" width="13.35" height="12.6"/><rect class="cls-2" x="53.41" y="426.79" width="13.35" height="12.6"/><rect class="cls-2" x="53.41" y="414.19" width="13.35" height="12.6"/><rect class="cls-2" x="53.41" y="401.59" width="13.35" height="12.6"/><rect class="cls-2" x="53.41" y="388.99" width="13.35" height="12.6"/><rect x="53.41" y="376.38" width="13.35" height="12.6"/><rect class="cls-3" x="53.41" y="363.78" width="13.35" height="12.6"/><rect class="cls-3" x="53.41" y="351.17" width="13.35" height="12.6"/><rect class="cls-3" x="53.41" y="338.58" width="13.35" height="12.6"/><rect x="53.41" y="325.97" width="13.35" height="12.6"/><rect x="53.41" y="300.76" width="13.35" height="12.6"/><rect class="cls-1" x="53.41" y="288.16" width="13.35" height="12.6"/><rect class="cls-1" x="53.41" y="275.56" width="13.35" height="12.6"/><rect class="cls-1" x="53.41" y="262.96" width="13.35" height="12.6"/><rect class="cls-1" x="53.41" y="250.36" width="13.35" height="12.6"/><rect class="cls-1" x="53.41" y="237.75" width="13.35" height="12.6"/><rect class="cls-1" x="53.41" y="225.15" width="13.35" height="12.6"/><rect class="cls-1" x="53.41" y="212.55" width="13.35" height="12.6"/><rect x="53.41" y="199.95" width="13.35" height="12.6"/><rect x="53.41" y="187.34" width="13.35" height="12.6"/><rect x="53.41" y="174.74" width="13.35" height="12.6"/><rect x="53.41" y="162.14" width="13.35" height="12.6"/><rect x="40.06" y="615.83" width="13.35" height="12.6"/><rect class="cls-1" x="40.06" y="603.23" width="13.35" height="12.6"/><rect class="cls-1" x="40.06" y="590.63" width="13.35" height="12.6"/><rect class="cls-1" x="40.06" y="578.03" width="13.35" height="12.6"/><rect class="cls-1" x="40.06" y="565.42" width="13.35" height="12.6"/><rect class="cls-1" x="40.06" y="552.82" width="13.35" height="12.6"/><rect class="cls-1" x="40.06" y="540.22" width="13.35" height="12.6"/><rect class="cls-1" x="40.06" y="527.61" width="13.35" height="12.6"/><rect class="cls-1" x="40.06" y="515.01" width="13.35" height="12.6"/><rect x="40.06" y="502.41" width="13.35" height="12.6"/><rect x="40.06" y="477.2" width="13.35" height="12.6"/><rect class="cls-2" x="40.06" y="464.6" width="13.35" height="12.6"/><rect class="cls-2" x="40.06" y="452" width="13.35" height="12.6"/><rect class="cls-2" x="40.06" y="439.4" width="13.35" height="12.6"/><rect class="cls-2" x="40.06" y="426.79" width="13.35" height="12.6"/><rect class="cls-2" x="40.06" y="414.19" width="13.35" height="12.6"/><rect class="cls-2" x="40.06" y="401.59" width="13.35" height="12.6"/><rect x="40.06" y="388.99" width="13.35" height="12.6"/><rect class="cls-3" x="40.06" y="376.38" width="13.35" height="12.6"/><rect class="cls-3" x="40.06" y="363.78" width="13.35" height="12.6"/><rect class="cls-3" x="40.06" y="351.17" width="13.35" height="12.6"/><rect class="cls-3" x="40.06" y="338.58" width="13.35" height="12.6"/><rect x="40.06" y="325.97" width="13.35" height="12.6"/><rect x="40.06" y="300.76" width="13.35" height="12.6"/><rect class="cls-1" x="40.06" y="288.16" width="13.35" height="12.6"/><rect class="cls-1" x="40.06" y="275.56" width="13.35" height="12.6"/><rect class="cls-1" x="40.06" y="262.96" width="13.35" height="12.6"/><rect x="40.06" y="250.36" width="13.35" height="12.6"/><rect x="40.06" y="237.75" width="13.35" height="12.6"/><rect x="40.06" y="225.15" width="13.35" height="12.6"/><rect x="40.06" y="212.55" width="13.35" height="12.6"/><rect x="26.71" y="615.83" width="13.35" height="12.6"/><rect class="cls-1" x="26.71" y="603.23" width="13.35" height="12.6"/><rect class="cls-1" x="26.71" y="590.63" width="13.35" height="12.6"/><rect class="cls-1" x="26.71" y="578.03" width="13.35" height="12.6"/><rect class="cls-1" x="26.71" y="565.42" width="13.35" height="12.6"/><rect class="cls-1" x="26.71" y="552.82" width="13.35" height="12.6"/><rect class="cls-1" x="26.71" y="540.22" width="13.35" height="12.6"/><rect class="cls-1" x="26.71" y="527.61" width="13.35" height="12.6"/><rect class="cls-1" x="26.71" y="515.01" width="13.35" height="12.6"/><rect x="26.71" y="502.41" width="13.35" height="12.6"/><rect x="26.71" y="477.2" width="13.35" height="12.6"/><rect class="cls-2" x="26.71" y="464.6" width="13.35" height="12.6"/><rect class="cls-2" x="26.71" y="452" width="13.35" height="12.6"/><rect class="cls-2" x="26.71" y="439.4" width="13.35" height="12.6"/><rect class="cls-2" x="26.71" y="426.79" width="13.35" height="12.6"/><rect class="cls-2" x="26.71" y="414.19" width="13.35" height="12.6"/><rect x="26.71" y="401.59" width="13.35" height="12.6"/><rect class="cls-3" x="26.71" y="388.99" width="13.35" height="12.6"/><rect class="cls-3" x="26.71" y="376.38" width="13.35" height="12.6"/><rect class="cls-3" x="26.71" y="363.78" width="13.35" height="12.6"/><rect class="cls-3" x="26.71" y="351.17" width="13.35" height="12.6"/><rect x="26.71" y="338.58" width="13.35" height="12.6"/><rect x="26.71" y="325.97" width="13.35" height="12.6"/><rect x="26.71" y="300.76" width="13.35" height="12.6"/><rect class="cls-1" x="26.71" y="288.16" width="13.35" height="12.6"/><rect class="cls-1" x="26.71" y="275.56" width="13.35" height="12.6"/><rect class="cls-1" x="26.71" y="262.96" width="13.35" height="12.6"/><rect x="26.71" y="250.36" width="13.35" height="12.6"/><rect x="13.35" y="615.83" width="13.35" height="12.6"/><rect class="cls-1" x="13.35" y="603.23" width="13.35" height="12.6"/><rect class="cls-1" x="13.35" y="590.63" width="13.35" height="12.6"/><rect class="cls-1" x="13.35" y="578.03" width="13.35" height="12.6"/><rect class="cls-1" x="13.35" y="565.42" width="13.35" height="12.6"/><rect class="cls-1" x="13.35" y="552.82" width="13.35" height="12.6"/><rect class="cls-1" x="13.35" y="540.22" width="13.35" height="12.6"/><rect class="cls-1" x="13.35" y="527.61" width="13.35" height="12.6"/><rect class="cls-1" x="13.35" y="515.01" width="13.35" height="12.6"/><rect x="13.35" y="502.41" width="13.35" height="12.6"/><rect x="13.35" y="464.6" width="13.35" height="12.6"/><rect class="cls-2" x="13.35" y="452" width="13.35" height="12.6"/><rect class="cls-2" x="13.35" y="439.4" width="13.35" height="12.6"/><rect class="cls-2" x="13.35" y="426.79" width="13.35" height="12.6"/><rect x="13.35" y="414.19" width="13.35" height="12.6"/><rect class="cls-3" x="13.35" y="401.59" width="13.35" height="12.6"/><rect class="cls-3" x="13.35" y="388.99" width="13.35" height="12.6"/><rect class="cls-3" x="13.35" y="376.38" width="13.35" height="12.6"/><rect class="cls-3" x="13.35" y="363.78" width="13.35" height="12.6"/><rect class="cls-3" x="13.35" y="351.17" width="13.35" height="12.6"/><rect x="13.35" y="338.58" width="13.35" height="12.6"/><rect x="13.35" y="288.16" width="13.35" height="12.6"/><rect x="13.35" y="275.56" width="13.35" height="12.6"/><rect x="13.35" y="262.96" width="13.35" height="12.6"/><rect y="603.23" width="13.35" height="12.6"/><rect y="590.63" width="13.35" height="12.6"/><rect y="578.03" width="13.35" height="12.6"/><rect y="565.42" width="13.35" height="12.6"/><rect y="552.82" width="13.35" height="12.6"/><rect y="540.22" width="13.35" height="12.6"/><rect y="527.61" width="13.35" height="12.6"/><rect y="515.01" width="13.35" height="12.6"/><rect y="452" width="13.35" height="12.6"/><rect y="439.4" width="13.35" height="12.6"/><rect y="426.79" width="13.35" height="12.6"/><rect y="414.19" width="13.35" height="12.6"/><rect y="401.59" width="13.35" height="12.6"/><rect y="388.99" width="13.35" height="12.6"/><rect y="376.38" width="13.35" height="12.6"/><rect y="363.78" width="13.35" height="12.6"/><rect y="351.17" width="13.35" height="12.6"/><rect class="cls-8" x="110.15" y="33.1" width="10.12" height="10.12" transform="translate(12.6 102.96) rotate(-50.6)"/><rect x="105.71" y="44.93" width="10.07" height="10.07" transform="translate(1.95 104.04) rotate(-50.71)"/><rect x="366.92" y="230.92" width="10.12" height="10.12" transform="translate(-46.48 373.64) rotate(-50.6)"/><rect x="359.11" y="224.5" width="10.12" height="10.12" transform="translate(-44.37 365.26) rotate(-50.6)"/><rect class="cls-9" x="334.23" y="190.96" width="10.13" height="10.12" transform="translate(-27.54 333.79) rotate(-50.6)"/><rect x="326.41" y="184.54" width="10.13" height="10.12" transform="translate(-25.43 325.4) rotate(-50.6)"/><rect class="cls-9" x="335.63" y="205.21" width="10.12" height="10.12" transform="translate(-38.04 340.06) rotate(-50.6)"/><rect class="cls-9" x="327.81" y="198.79" width="10.12" height="10.12" transform="translate(-35.93 331.68) rotate(-50.6)"/><rect class="cls-9" x="351.28" y="218.07" width="10.12" height="10.12" transform="translate(-42.26 356.86) rotate(-50.6)"/><rect class="cls-9" x="343.45" y="211.65" width="10.12" height="10.12" transform="translate(-40.16 348.46) rotate(-50.6)"/><rect x="319.98" y="192.37" width="10.12" height="10.12" transform="translate(-33.83 323.29) rotate(-50.6)"/><rect class="cls-8" x="161.11" y="25.34" width="10.07" height="10.07" transform="translate(37.42 139.73) rotate(-50.71)"/><rect class="cls-10" x="268.86" y="111.04" width="10.12" height="10.12" transform="translate(10.34 254.07) rotate(-50.6)"/><rect class="cls-10" x="261.03" y="104.63" width="10.12" height="10.12" transform="translate(12.44 245.69) rotate(-50.6)"/><rect class="cls-10" x="253.22" y="98.2" width="10.12" height="10.13" transform="translate(14.55 237.3) rotate(-50.6)"/><rect class="cls-10" x="232.38" y="97.29" width="10.07" height="10.07" transform="translate(7.88 221.28) rotate(-50.71)"/><rect class="cls-10" x="237.56" y="85.34" width="10.12" height="10.12" transform="translate(18.77 220.5) rotate(-50.6)"/><rect class="cls-10" x="216.84" y="84.46" width="10.07" height="10.07" transform="translate(12.11 204.55) rotate(-50.71)"/><rect class="cls-10" x="221.92" y="72.49" width="10.12" height="10.12" transform="translate(22.98 203.72) rotate(-50.6)"/><rect class="cls-10" x="201.3" y="71.62" width="10.07" height="10.07" transform="translate(16.35 187.81) rotate(-50.71)"/><rect class="cls-10" x="206.26" y="59.64" width="10.12" height="10.12" transform="translate(27.19 186.92) rotate(-50.6)"/><rect class="cls-10" x="198.44" y="53.22" width="10.12" height="10.12" transform="translate(29.3 178.54) rotate(-50.6)"/><rect class="cls-10" x="190.62" y="46.78" width="10.12" height="10.12" transform="translate(31.42 170.14) rotate(-50.6)"/><rect class="cls-10" x="182.79" y="40.36" width="10.12" height="10.12" transform="translate(33.52 161.75) rotate(-50.6)"/><rect x="176.42" y="33.25" width="8.29" height="10" transform="translate(36.4 153.5) rotate(-50.6)"/><rect class="cls-8" x="154.7" y="33.12" width="10.07" height="10.07" transform="translate(29.06 137.62) rotate(-50.71)"/><rect class="cls-10" x="257.04" y="130.74" width="10.07" height="10.07" transform="translate(-8.96 252.63) rotate(-50.71)"/><rect class="cls-10" x="262.44" y="118.87" width="10.12" height="10.12" transform="translate(1.94 251.97) rotate(-50.6)"/><rect class="cls-10" x="241.51" y="117.89" width="10.07" height="10.07" transform="translate(-4.72 235.9) rotate(-50.71)"/><rect class="cls-10" x="246.79" y="106.02" width="10.12" height="10.13" transform="translate(6.15 235.19) rotate(-50.6)"/><rect class="cls-10" x="238.96" y="99.59" width="10.12" height="10.12" transform="translate(8.26 226.79) rotate(-50.6)"/><rect class="cls-10" x="231.14" y="93.17" width="10.12" height="10.12" transform="translate(10.37 218.4) rotate(-50.6)"/><rect class="cls-10" x="223.31" y="86.74" width="10.12" height="10.12" transform="translate(12.48 210) rotate(-50.6)"/><rect class="cls-10" x="215.48" y="80.31" width="10.12" height="10.12" transform="translate(14.59 201.6) rotate(-50.6)"/><rect class="cls-10" x="207.66" y="73.88" width="10.12" height="10.12" transform="translate(16.7 193.21) rotate(-50.6)"/><rect class="cls-10" x="199.84" y="67.46" width="10.12" height="10.12" transform="translate(18.81 184.82) rotate(-50.6)"/><rect class="cls-10" x="192.01" y="61.04" width="10.12" height="10.12" transform="translate(20.91 176.43) rotate(-50.6)"/><rect class="cls-10" x="184.19" y="54.6" width="10.12" height="10.12" transform="translate(23.03 168.03) rotate(-50.6)"/><rect class="cls-10" x="176.38" y="48.18" width="10.12" height="10.12" transform="translate(25.13 159.65) rotate(-50.6)"/><rect x="168.55" y="41.76" width="10.12" height="10.12" transform="translate(27.24 151.25) rotate(-50.6)"/><rect class="cls-8" x="148.27" y="40.89" width="10.07" height="10.07" transform="translate(20.69 135.49) rotate(-50.71)"/><rect class="cls-10" x="152.89" y="28.89" width="10.12" height="10.12" transform="translate(31.46 134.46) rotate(-50.6)"/><rect x="137.25" y="16.05" width="10.12" height="10.12" transform="translate(35.67 117.68) rotate(-50.6)"/><rect class="cls-8" x="129.43" y="9.62" width="10.12" height="10.12" transform="translate(37.78 109.29) rotate(-50.6)"/><rect class="cls-10" x="318.59" y="178.1" width="10.13" height="10.12" transform="translate(-23.32 317) rotate(-50.6)"/><rect class="cls-10" x="310.76" y="171.68" width="10.13" height="10.12" transform="translate(-21.21 308.61) rotate(-50.6)"/><rect class="cls-10" x="302.94" y="165.25" width="10.13" height="10.12" transform="translate(-19.1 300.21) rotate(-50.6)"/><rect class="cls-10" x="295.12" y="158.83" width="10.13" height="10.12" transform="translate(-17 291.83) rotate(-50.6)"/><rect class="cls-10" x="287.29" y="152.4" width="10.13" height="10.12" transform="translate(-14.89 283.43) rotate(-50.6)"/><rect class="cls-10" x="279.47" y="145.97" width="10.13" height="10.12" transform="translate(-12.78 275.04) rotate(-50.6)"/><rect class="cls-10" x="271.66" y="139.55" width="10.13" height="10.12" transform="translate(-10.67 266.65) rotate(-50.6)"/><rect class="cls-10" x="263.83" y="133.13" width="10.13" height="10.12" transform="translate(-8.57 258.26) rotate(-50.6)"/><rect class="cls-10" x="255.99" y="126.69" width="10.13" height="10.12" transform="translate(-6.45 249.85) rotate(-50.6)"/><rect class="cls-11" x="248.17" y="120.27" width="10.13" height="10.12" transform="translate(-4.35 241.46) rotate(-50.6)"/><rect class="cls-11" x="227.31" y="119.24" width="10.08" height="10.08" transform="translate(-10.97 225.41) rotate(-50.71)"/><rect class="cls-11" x="232.52" y="107.42" width="10.13" height="10.12" transform="translate(-0.13 224.68) rotate(-50.6)"/><rect class="cls-10" x="211.77" y="106.41" width="10.08" height="10.07" transform="translate(-6.74 208.68) rotate(-50.71)"/><rect class="cls-10" x="216.88" y="94.56" width="10.13" height="10.12" transform="translate(4.09 207.89) rotate(-50.6)"/><rect class="cls-10" x="209.06" y="88.15" width="10.13" height="10.12" transform="translate(6.19 199.5) rotate(-50.6)"/><rect class="cls-10" x="201.24" y="81.71" width="10.13" height="10.12" transform="translate(8.31 191.11) rotate(-50.6)"/><rect class="cls-10" x="193.41" y="75.28" width="10.13" height="10.12" transform="translate(10.42 182.72) rotate(-50.6)"/><rect class="cls-10" x="185.58" y="68.86" width="10.13" height="10.12" transform="translate(12.52 174.32) rotate(-50.6)"/><rect class="cls-10" x="177.76" y="62.44" width="10.13" height="10.12" transform="translate(14.62 165.93) rotate(-50.6)"/><rect class="cls-10" x="169.94" y="56" width="10.13" height="10.12" transform="translate(16.74 157.53) rotate(-50.6)"/><rect class="cls-10" x="162.11" y="49.58" width="10.13" height="10.12" transform="translate(18.84 149.14) rotate(-50.6)"/><rect class="cls-10" x="154.29" y="43.15" width="10.13" height="10.12" transform="translate(20.95 140.75) rotate(-50.6)"/><rect class="cls-10" x="146.47" y="36.72" width="10.13" height="10.12" transform="translate(23.06 132.36) rotate(-50.6)"/><rect class="cls-10" x="138.64" y="30.29" width="10.13" height="10.12" transform="translate(25.17 123.96) rotate(-50.6)"/><rect x="130.83" y="23.87" width="10.13" height="10.12" transform="translate(27.28 115.58) rotate(-50.6)"/><rect class="cls-8" x="110.79" y="22.98" width="10.08" height="10.07" transform="translate(20.8 99.92) rotate(-50.71)"/><rect class="cls-10" x="312.16" y="185.94" width="10.12" height="10.12" transform="translate(-31.72 314.89) rotate(-50.6)"/><rect class="cls-10" x="304.35" y="179.51" width="10.12" height="10.12" transform="translate(-29.6 306.5) rotate(-50.6)"/><rect class="cls-10" x="296.52" y="173.09" width="10.12" height="10.12" transform="translate(-27.5 298.11) rotate(-50.6)"/><rect class="cls-10" x="288.69" y="166.66" width="10.12" height="10.12" transform="translate(-25.39 289.72) rotate(-50.6)"/><rect class="cls-10" x="267.51" y="165.53" width="10.07" height="10.07" transform="translate(-32.05 273.5) rotate(-50.71)"/><rect class="cls-10" x="273.04" y="153.8" width="10.12" height="10.12" transform="translate(-21.18 272.93) rotate(-50.6)"/><rect class="cls-10" x="251.97" y="152.69" width="10.07" height="10.07" transform="translate(-27.81 256.76) rotate(-50.71)"/><rect class="cls-10" x="257.4" y="140.95" width="10.12" height="10.12" transform="translate(-16.96 256.14) rotate(-50.6)"/><rect class="cls-10" x="249.58" y="134.52" width="10.12" height="10.12" transform="translate(-14.85 247.75) rotate(-50.6)"/><rect class="cls-10" x="241.75" y="128.09" width="10.12" height="10.12" transform="translate(-12.74 239.36) rotate(-50.6)"/><rect class="cls-10" x="233.93" y="121.67" width="10.12" height="10.13" transform="translate(-10.64 230.97) rotate(-50.6)"/><rect class="cls-10" x="226.1" y="115.24" width="10.12" height="10.12" transform="translate(-8.52 222.57) rotate(-50.6)"/><rect class="cls-10" x="218.28" y="108.82" width="10.12" height="10.12" transform="translate(-6.42 214.18) rotate(-50.6)"/><rect class="cls-10" x="210.46" y="102.39" width="10.12" height="10.12" transform="translate(-4.31 205.79) rotate(-50.6)"/><rect class="cls-10" x="202.63" y="95.96" width="10.12" height="10.12" transform="translate(-2.2 197.39) rotate(-50.6)"/><rect class="cls-10" x="194.8" y="89.53" width="10.12" height="10.12" transform="translate(-0.09 188.99) rotate(-50.6)"/><rect class="cls-10" x="186.98" y="83.11" width="10.12" height="10.12" transform="translate(2.02 180.6) rotate(-50.6)"/><rect class="cls-10" x="179.16" y="76.68" width="10.12" height="10.12" transform="translate(4.13 172.21) rotate(-50.6)"/><rect class="cls-10" x="171.33" y="70.26" width="10.12" height="10.12" transform="translate(6.23 163.82) rotate(-50.6)"/><rect class="cls-10" x="150.98" y="69.26" width="10.07" height="10.07" transform="translate(-0.28 148) rotate(-50.71)"/><rect class="cls-10" x="143.21" y="62.84" width="10.07" height="10.07" transform="translate(1.84 139.63) rotate(-50.71)"/><rect class="cls-10" x="147.87" y="50.98" width="10.12" height="10.12" transform="translate(12.56 138.64) rotate(-50.6)"/><rect class="cls-10" x="127.67" y="50.01" width="10.07" height="10.07" transform="translate(6.07 122.9) rotate(-50.71)"/><rect class="cls-10" x="132.22" y="38.12" width="10.12" height="10.12" transform="translate(16.78 121.85) rotate(-50.6)"/><rect x="124.39" y="31.7" width="10.12" height="10.12" transform="translate(18.88 113.46) rotate(-50.6)"/><rect class="cls-8" x="116.57" y="25.27" width="10.12" height="10.12" transform="translate(20.99 105.07) rotate(-50.6)"/><rect class="cls-10" x="141.44" y="58.8" width="10.12" height="10.12" transform="translate(4.17 136.53) rotate(-50.6)"/><rect class="cls-8" x="133.61" y="52.38" width="10.12" height="10.12" transform="translate(6.27 128.14) rotate(-50.6)"/><rect class="cls-10" x="122.6" y="71.96" width="10.07" height="10.07" transform="translate(-12.78 127.03) rotate(-50.71)"/><rect class="cls-8" x="127.19" y="60.19" width="10.12" height="10.12" transform="translate(-2.12 126.03) rotate(-50.6)"/><rect class="cls-10" x="128.59" y="74.45" width="10.12" height="10.12" transform="translate(-12.62 132.31) rotate(-50.6)"/><rect x="252.13" y="84.21" width="10.12" height="10.12" transform="translate(24.96 231.34) rotate(-50.6)"/><rect x="197.37" y="39.22" width="10.12" height="10.12" transform="translate(39.72 172.6) rotate(-50.6)"/><rect x="259.97" y="90.63" width="10.12" height="10.13" transform="translate(22.86 239.75) rotate(-50.6)"/><rect x="236.48" y="71.36" width="10.12" height="10.12" transform="translate(29.18 214.56) rotate(-50.6)"/><rect x="228.66" y="64.93" width="10.12" height="10.12" transform="translate(31.28 206.17) rotate(-50.6)"/><rect x="220.84" y="58.5" width="10.12" height="10.12" transform="translate(33.4 197.77) rotate(-50.6)"/><rect x="267.79" y="97.06" width="10.12" height="10.12" transform="translate(20.75 248.14) rotate(-50.6)"/><rect x="213.01" y="52.07" width="10.12" height="10.12" transform="translate(35.5 189.38) rotate(-50.6)"/><rect x="275.6" y="103.5" width="10.12" height="10.12" transform="translate(18.63 256.53) rotate(-50.6)"/><rect x="244.3" y="77.78" width="10.12" height="10.12" transform="translate(27.07 222.95) rotate(-50.6)"/><rect x="192.51" y="51.28" width="10.07" height="10.07" transform="translate(28.87 173.55) rotate(-50.71)"/><rect x="277" y="117.74" width="10.12" height="10.12" transform="translate(8.14 262.81) rotate(-50.6)"/><rect x="309.69" y="157.69" width="10.12" height="10.12" transform="translate(-10.8 302.67) rotate(-50.6)"/><rect x="301.88" y="151.27" width="10.12" height="10.12" transform="translate(-8.69 294.28) rotate(-50.6)"/><rect x="286.22" y="138.42" width="10.12" height="10.12" transform="translate(-4.48 277.49) rotate(-50.6)"/><rect x="325.34" y="170.55" width="10.12" height="10.12" transform="translate(-15.02 319.46) rotate(-50.6)"/><rect x="333.16" y="176.97" width="10.12" height="10.12" transform="translate(-17.12 327.84) rotate(-50.6)"/><rect x="340.98" y="183.4" width="10.12" height="10.12" transform="translate(-19.23 336.23) rotate(-50.6)"/><rect x="280.67" y="150.25" width="10.07" height="10.07" transform="translate(-15.4 278.08) rotate(-50.71)"/><rect x="303.97" y="169.51" width="10.07" height="10.07" transform="translate(-21.76 303.17) rotate(-50.71)"/><rect x="265.13" y="137.41" width="10.07" height="10.07" transform="translate(-11.16 261.33) rotate(-50.71)"/><rect x="373.66" y="223.36" width="10.13" height="10.12" transform="translate(-38.17 376.09) rotate(-50.6)"/><rect x="342.38" y="197.65" width="10.13" height="10.12" transform="translate(-29.73 342.52) rotate(-50.6)"/><rect x="365.84" y="216.92" width="10.13" height="10.12" transform="translate(-36.05 367.7) rotate(-50.6)"/><rect x="358.02" y="210.51" width="10.13" height="10.12" transform="translate(-33.95 359.31) rotate(-50.6)"/><rect x="336.39" y="209.36" width="10.08" height="10.07" transform="translate(-40.71 342.89) rotate(-50.71)"/><rect x="375.07" y="237.61" width="10.12" height="10.12" transform="translate(-48.67 382.38) rotate(-50.6)"/><rect x="329.52" y="213.31" width="10.12" height="10.12" transform="translate(-46.53 338.3) rotate(-50.6)"/><rect x="352.99" y="232.59" width="10.12" height="10.12" transform="translate(-52.85 363.49) rotate(-50.6)"/><rect x="313.88" y="200.45" width="10.12" height="10.12" transform="translate(-42.3 321.52) rotate(-50.6)"/><rect x="292.49" y="199.23" width="10.07" height="10.07" transform="translate(-48.97 305.18) rotate(-50.71)"/><rect x="220" y="123.33" width="10.12" height="10.12" transform="translate(-17.01 220.81) rotate(-50.6)"/><rect x="199.26" y="122.22" width="10.07" height="10.07" transform="translate(-23.56 204.79) rotate(-50.71)"/><rect x="165.23" y="78.34" width="10.12" height="10.12" transform="translate(-2.24 162.05) rotate(-50.6)"/><rect x="259.11" y="155.47" width="10.12" height="10.12" transform="translate(-27.55 262.77) rotate(-50.6)"/><rect x="243.47" y="142.61" width="10.12" height="10.12" transform="translate(-23.33 245.98) rotate(-50.6)"/><rect x="173.05" y="84.77" width="10.12" height="10.12" transform="translate(-4.35 170.45) rotate(-50.6)"/><rect x="298.23" y="187.6" width="10.12" height="10.12" transform="translate(-38.09 304.73) rotate(-50.6)"/><rect x="360.82" y="239.01" width="10.12" height="10.12" transform="translate(-54.95 371.88) rotate(-50.6)"/><rect x="274.77" y="168.32" width="10.12" height="10.12" transform="translate(-31.76 279.56) rotate(-50.6)"/><rect x="238.1" y="154.3" width="10.07" height="10.07" transform="translate(-34.15 246.62) rotate(-50.71)"/><rect x="149.59" y="65.5" width="10.12" height="10.12" transform="translate(1.97 145.28) rotate(-50.6)"/><rect x="282.59" y="174.74" width="10.12" height="10.12" transform="translate(-33.87 287.95) rotate(-50.6)"/><rect x="266.93" y="161.89" width="10.12" height="10.12" transform="translate(-29.65 271.16) rotate(-50.6)"/><rect x="168.18" y="96.55" width="10.07" height="10.07" transform="translate(-15.09 171.31) rotate(-50.71)"/><rect x="188.7" y="97.62" width="10.12" height="10.12" transform="translate(-8.57 187.23) rotate(-50.6)"/><rect x="345.18" y="226.16" width="10.12" height="10.12" transform="translate(-50.74 355.1) rotate(-50.6)"/><rect x="308.02" y="212.07" width="10.07" height="10.07" transform="translate(-53.21 321.91) rotate(-50.71)"/><rect x="235.65" y="136.19" width="10.12" height="10.12" transform="translate(-21.23 237.6) rotate(-50.6)"/><rect x="290.42" y="181.17" width="10.12" height="10.12" transform="translate(-35.98 296.35) rotate(-50.6)"/><rect x="196.53" y="104.05" width="10.12" height="10.12" transform="translate(-10.68 195.63) rotate(-50.6)"/><rect x="157.4" y="71.92" width="10.12" height="10.12" transform="translate(-0.14 153.66) rotate(-50.6)"/><rect x="227.83" y="129.75" width="10.12" height="10.13" transform="translate(-19.11 229.2) rotate(-50.6)"/><rect x="204.35" y="110.48" width="10.12" height="10.12" transform="translate(-12.79 204.02) rotate(-50.6)"/><rect x="323.56" y="224.9" width="10.07" height="10.07" transform="translate(-57.44 338.65) rotate(-50.71)"/><rect x="143.16" y="73.32" width="10.12" height="10.12" transform="translate(-6.43 143.16) rotate(-50.6)"/><rect x="124.27" y="86.41" width="10.07" height="10.07" transform="translate(-23.35 133.61) rotate(-50.71)"/><rect x="122.49" y="82.53" width="10.12" height="10.12" transform="translate(-21.1 130.55) rotate(-50.6)"/><rect x="121.09" y="68.28" width="10.12" height="10.12" transform="translate(-10.6 124.27) rotate(-50.6)"/><rect x="180.32" y="12.12" width="10.12" height="10.12" transform="translate(54.44 149.53) rotate(-50.6)"/><rect x="176.97" y="38.44" width="10.07" height="10.07" transform="translate(33.1 156.81) rotate(-50.71)"/><rect x="181.71" y="26.36" width="10.12" height="10.12" transform="translate(43.94 155.8) rotate(-50.6)"/><rect x="166.07" y="13.52" width="10.12" height="10.12" transform="translate(48.15 139.02) rotate(-50.6)"/><rect x="159.64" y="21.34" width="10.12" height="10.12" transform="translate(39.76 136.91) rotate(-50.6)"/><rect x="144" y="8.48" width="10.12" height="10.12" transform="translate(43.98 120.13) rotate(-50.6)"/><rect x="136.18" y="2.06" width="10.12" height="10.12" transform="translate(46.09 111.74) rotate(-50.6)"/><rect x="145.4" y="22.74" width="10.12" height="10.12" transform="translate(33.47 126.42) rotate(-50.6)"/><rect x="121.92" y="3.46" width="10.12" height="10.12" transform="translate(39.8 101.24) rotate(-50.6)"/><rect x="115.49" y="11.28" width="10.13" height="10.12" transform="translate(31.41 99.13) rotate(-50.6)"/><rect x="96.91" y="24.6" width="10.07" height="10.07" transform="translate(14.46 89.77) rotate(-50.71)"/><rect x="113.8" y="51.62" width="10.07" height="10.07" transform="translate(-0.26 112.75) rotate(-50.71)"/><rect x="102.64" y="26.93" width="10.12" height="10.12" transform="translate(14.62 94.91) rotate(-50.6)"/><rect x="111.86" y="47.61" width="10.12" height="10.12" transform="translate(2.01 109.59) rotate(-50.6)"/><rect x="91.85" y="46.55" width="10.07" height="10.07" transform="translate(-4.39 93.9) rotate(-50.71)"/></g></g></g></svg>