<svg xmlns="http://www.w3.org/2000/svg" viewBox="0 0 165.7 387.08"><defs><style>.cls-1{opacity:0.85;}.cls-2{fill:#010101;}.cls-3{fill:#42c1c5;}.cls-4{fill:#4f63ae;}.cls-5{fill:#fff;}.cls-6{fill:#4050a2;}.cls-7{fill:#e1ebf7;}</style></defs><g id="Layer_2" data-name="Layer 2"><g id="Layer_1-2" data-name="Layer 1"><g class="cls-1"><rect class="cls-2" x="153.86" y="351.89" width="11.84" height="11.73"/><rect class="cls-2" x="153.86" y="340.16" width="11.84" height="11.73"/><rect class="cls-2" x="153.86" y="328.43" width="11.84" height="11.73"/><rect class="cls-2" x="153.86" y="316.7" width="11.84" height="11.73"/><rect class="cls-2" x="153.86" y="304.97" width="11.84" height="11.73"/><rect class="cls-2" x="153.86" y="293.24" width="11.84" height="11.73"/><rect class="cls-2" x="153.86" y="281.51" width="11.84" height="11.73"/><rect class="cls-2" x="153.86" y="269.78" width="11.84" height="11.74"/><rect class="cls-2" x="153.86" y="258.05" width="11.84" height="11.73"/><rect class="cls-2" x="153.86" y="246.32" width="11.84" height="11.73"/><rect class="cls-2" x="153.86" y="211.13" width="11.84" height="11.73"/><rect class="cls-2" x="153.86" y="199.4" width="11.84" height="11.73"/><rect class="cls-2" x="153.86" y="187.68" width="11.84" height="11.73"/><rect class="cls-2" x="153.86" y="175.95" width="11.84" height="11.73"/><rect class="cls-2" x="153.86" y="164.22" width="11.84" height="11.73"/><rect class="cls-2" x="153.86" y="152.49" width="11.84" height="11.73"/><rect class="cls-2" x="153.86" y="140.76" width="11.84" height="11.73"/><rect class="cls-2" x="153.86" y="129.03" width="11.84" height="11.73"/><rect class="cls-2" x="153.86" y="117.3" width="11.84" height="11.73"/><rect class="cls-2" x="142.03" y="363.62" width="11.84" height="11.73"/><rect class="cls-3" x="142.03" y="351.89" width="11.84" height="11.73"/><rect class="cls-3" x="142.03" y="340.16" width="11.84" height="11.73"/><rect class="cls-4" x="142.03" y="328.43" width="11.84" height="11.73"/><rect class="cls-3" x="142.03" y="316.7" width="11.84" height="11.73"/><rect class="cls-3" x="142.03" y="304.97" width="11.84" height="11.73"/><rect class="cls-4" x="142.03" y="293.24" width="11.84" height="11.73"/><rect class="cls-3" x="142.03" y="281.51" width="11.84" height="11.73"/><rect class="cls-3" x="142.03" y="269.78" width="11.84" height="11.74"/><rect class="cls-4" x="142.03" y="258.05" width="11.84" height="11.73"/><rect class="cls-2" x="142.03" y="246.32" width="11.84" height="11.73"/><rect class="cls-2" x="142.03" y="234.59" width="11.84" height="11.73"/><rect class="cls-2" x="142.03" y="222.86" width="11.84" height="11.73"/><rect class="cls-3" x="142.03" y="211.13" width="11.84" height="11.73"/><rect class="cls-3" x="142.03" y="199.4" width="11.84" height="11.73"/><rect class="cls-4" x="142.03" y="187.68" width="11.84" height="11.73"/><rect class="cls-4" x="142.03" y="175.95" width="11.84" height="11.73"/><rect class="cls-4" x="142.03" y="164.22" width="11.84" height="11.73"/><rect class="cls-5" x="142.03" y="152.49" width="11.84" height="11.73"/><rect class="cls-4" x="142.03" y="140.76" width="11.84" height="11.73"/><rect class="cls-3" x="142.03" y="129.03" width="11.84" height="11.73"/><rect class="cls-3" x="142.03" y="117.3" width="11.84" height="11.73"/><rect class="cls-2" x="142.03" y="105.57" width="11.84" height="11.73"/><rect class="cls-2" x="142.03" y="93.84" width="11.84" height="11.73"/><rect class="cls-2" x="130.19" y="375.35" width="11.83" height="11.73"/><rect class="cls-3" x="130.19" y="363.62" width="11.83" height="11.73"/><rect class="cls-4" x="130.19" y="351.89" width="11.83" height="11.73"/><rect class="cls-4" x="130.19" y="340.16" width="11.83" height="11.73"/><rect class="cls-3" x="130.19" y="328.43" width="11.83" height="11.73"/><rect class="cls-4" x="130.19" y="316.7" width="11.83" height="11.73"/><rect class="cls-4" x="130.19" y="304.97" width="11.83" height="11.73"/><rect class="cls-3" x="130.19" y="293.24" width="11.83" height="11.73"/><rect class="cls-4" x="130.19" y="281.51" width="11.83" height="11.73"/><rect class="cls-4" x="130.19" y="269.78" width="11.83" height="11.74"/><rect class="cls-3" x="130.19" y="258.05" width="11.83" height="11.73"/><rect class="cls-3" x="130.19" y="246.32" width="11.83" height="11.73"/><rect class="cls-3" x="130.19" y="234.59" width="11.83" height="11.73"/><rect class="cls-3" x="130.19" y="222.86" width="11.83" height="11.73"/><rect class="cls-4" x="130.19" y="211.13" width="11.83" height="11.73"/><rect class="cls-4" x="130.19" y="199.4" width="11.83" height="11.73"/><rect class="cls-6" x="130.19" y="187.68" width="11.83" height="11.73"/><rect class="cls-6" x="130.19" y="175.95" width="11.83" height="11.73"/><rect class="cls-6" x="130.19" y="164.22" width="11.83" height="11.73"/><rect class="cls-5" x="130.19" y="152.49" width="11.83" height="11.73"/><rect class="cls-4" x="130.19" y="140.76" width="11.83" height="11.73"/><rect class="cls-4" x="130.19" y="129.03" width="11.83" height="11.73"/><rect class="cls-3" x="130.19" y="117.3" width="11.83" height="11.73"/><rect class="cls-3" x="130.19" y="105.57" width="11.83" height="11.73"/><rect class="cls-3" x="130.19" y="93.84" width="11.83" height="11.73"/><rect class="cls-2" x="130.19" y="82.11" width="11.83" height="11.73"/><rect class="cls-2" x="130.19" y="70.38" width="11.83" height="11.74"/><rect class="cls-2" x="118.36" y="375.35" width="11.84" height="11.73"/><rect class="cls-3" x="118.36" y="363.62" width="11.84" height="11.73"/><rect class="cls-4" x="118.36" y="351.89" width="11.84" height="11.73"/><rect class="cls-4" x="118.36" y="340.16" width="11.84" height="11.73"/><rect class="cls-3" x="118.36" y="328.43" width="11.84" height="11.73"/><rect class="cls-3" x="118.36" y="316.7" width="11.84" height="11.73"/><rect class="cls-4" x="118.36" y="304.97" width="11.84" height="11.73"/><rect class="cls-4" x="118.36" y="293.24" width="11.84" height="11.73"/><rect class="cls-3" x="118.36" y="281.51" width="11.84" height="11.73"/><rect class="cls-4" x="118.36" y="269.78" width="11.84" height="11.74"/><rect class="cls-4" x="118.36" y="258.05" width="11.84" height="11.73"/><rect class="cls-4" x="118.36" y="246.32" width="11.84" height="11.73"/><rect class="cls-4" x="118.36" y="234.59" width="11.84" height="11.73"/><rect class="cls-4" x="118.36" y="222.86" width="11.84" height="11.73"/><rect class="cls-4" x="118.36" y="211.13" width="11.84" height="11.73"/><rect class="cls-4" x="118.36" y="199.4" width="11.84" height="11.73"/><rect class="cls-6" x="118.36" y="187.68" width="11.84" height="11.73"/><rect class="cls-6" x="118.36" y="175.95" width="11.84" height="11.73"/><rect class="cls-6" x="118.36" y="164.22" width="11.84" height="11.73"/><rect class="cls-5" x="118.36" y="152.49" width="11.84" height="11.73"/><rect class="cls-4" x="118.36" y="140.76" width="11.84" height="11.73"/><rect class="cls-4" x="118.36" y="129.03" width="11.84" height="11.73"/><rect class="cls-4" x="118.36" y="117.3" width="11.84" height="11.73"/><rect class="cls-4" x="118.36" y="105.57" width="11.84" height="11.73"/><rect class="cls-3" x="118.36" y="93.84" width="11.84" height="11.73"/><rect class="cls-3" x="118.36" y="82.11" width="11.84" height="11.73"/><rect class="cls-3" x="118.36" y="70.38" width="11.84" height="11.74"/><rect class="cls-2" x="118.36" y="58.65" width="11.84" height="11.73"/><rect class="cls-2" x="106.52" y="375.35" width="11.84" height="11.73"/><rect class="cls-4" x="106.52" y="363.62" width="11.84" height="11.73"/><rect class="cls-7" x="106.52" y="351.89" width="11.84" height="11.73"/><rect class="cls-7" x="106.52" y="340.16" width="11.84" height="11.73"/><rect class="cls-7" x="106.52" y="328.43" width="11.84" height="11.73"/><rect class="cls-7" x="106.52" y="316.7" width="11.84" height="11.73"/><rect class="cls-7" x="106.52" y="304.97" width="11.84" height="11.73"/><rect class="cls-7" x="106.52" y="293.24" width="11.84" height="11.73"/><rect class="cls-7" x="106.52" y="281.51" width="11.84" height="11.73"/><rect class="cls-7" x="106.52" y="269.78" width="11.84" height="11.74"/><rect class="cls-7" x="106.52" y="258.05" width="11.84" height="11.73"/><rect class="cls-7" x="106.52" y="246.32" width="11.84" height="11.73"/><rect class="cls-7" x="106.52" y="234.59" width="11.84" height="11.73"/><rect class="cls-7" x="106.52" y="222.86" width="11.84" height="11.73"/><rect class="cls-7" x="106.52" y="211.13" width="11.84" height="11.73"/><rect class="cls-7" x="106.52" y="199.4" width="11.84" height="11.73"/><rect class="cls-6" x="106.52" y="187.68" width="11.84" height="11.73"/><rect class="cls-6" x="106.52" y="175.95" width="11.84" height="11.73"/><rect class="cls-6" x="106.52" y="164.22" width="11.84" height="11.73"/><rect class="cls-5" x="106.52" y="152.49" width="11.84" height="11.73"/><rect class="cls-4" x="106.52" y="140.76" width="11.84" height="11.73"/><rect class="cls-7" x="106.52" y="129.03" width="11.84" height="11.73"/><rect class="cls-7" x="106.52" y="117.3" width="11.84" height="11.73"/><rect class="cls-7" x="106.52" y="105.57" width="11.84" height="11.73"/><rect class="cls-7" x="106.52" y="93.84" width="11.84" height="11.73"/><rect class="cls-7" x="106.52" y="82.11" width="11.84" height="11.73"/><rect class="cls-3" x="106.52" y="70.38" width="11.84" height="11.74"/><rect class="cls-3" x="106.52" y="58.65" width="11.84" height="11.73"/><rect class="cls-2" x="106.52" y="46.92" width="11.84" height="11.73"/><rect class="cls-2" x="106.52" y="35.19" width="11.84" height="11.73"/><rect class="cls-2" x="106.52" y="23.46" width="11.84" height="11.73"/><rect class="cls-2" x="106.52" y="11.73" width="11.84" height="11.73"/><rect class="cls-2" x="94.68" y="375.35" width="11.84" height="11.73"/><rect class="cls-4" x="94.68" y="363.62" width="11.84" height="11.73"/><rect class="cls-7" x="94.68" y="351.89" width="11.84" height="11.73"/><rect class="cls-7" x="94.68" y="340.16" width="11.84" height="11.73"/><rect class="cls-7" x="94.68" y="328.43" width="11.84" height="11.73"/><rect class="cls-7" x="94.68" y="316.7" width="11.84" height="11.73"/><rect class="cls-7" x="94.68" y="304.97" width="11.84" height="11.73"/><rect class="cls-7" x="94.68" y="293.24" width="11.84" height="11.73"/><rect class="cls-7" x="94.68" y="281.51" width="11.84" height="11.73"/><rect class="cls-7" x="94.68" y="269.78" width="11.84" height="11.74"/><rect class="cls-7" x="94.68" y="258.05" width="11.84" height="11.73"/><rect class="cls-7" x="94.68" y="246.32" width="11.84" height="11.73"/><rect class="cls-7" x="94.68" y="234.59" width="11.84" height="11.73"/><rect class="cls-5" x="94.68" y="222.86" width="11.84" height="11.73"/><rect class="cls-5" x="94.68" y="211.13" width="11.84" height="11.73"/><rect class="cls-7" x="94.68" y="199.4" width="11.84" height="11.73"/><rect class="cls-4" x="94.68" y="187.68" width="11.84" height="11.73"/><rect class="cls-4" x="94.68" y="175.95" width="11.84" height="11.73"/><rect class="cls-4" x="94.68" y="164.22" width="11.84" height="11.73"/><rect class="cls-5" x="94.68" y="152.49" width="11.84" height="11.73"/><rect class="cls-4" x="94.68" y="140.76" width="11.84" height="11.73"/><rect class="cls-7" x="94.68" y="129.03" width="11.84" height="11.73"/><rect class="cls-7" x="94.68" y="117.3" width="11.84" height="11.73"/><rect class="cls-7" x="94.68" y="105.57" width="11.84" height="11.73"/><rect class="cls-7" x="94.68" y="93.84" width="11.84" height="11.73"/><rect class="cls-7" x="94.68" y="82.11" width="11.84" height="11.73"/><rect class="cls-7" x="94.68" y="70.38" width="11.84" height="11.74"/><rect class="cls-3" x="94.68" y="58.65" width="11.84" height="11.73"/><rect class="cls-4" x="94.68" y="46.92" width="11.84" height="11.73"/><rect class="cls-3" x="94.68" y="35.19" width="11.84" height="11.73"/><rect class="cls-4" x="94.68" y="23.46" width="11.84" height="11.73"/><rect class="cls-4" x="94.68" y="11.73" width="11.84" height="11.73"/><rect class="cls-2" x="94.68" width="11.84" height="11.73"/><rect class="cls-2" x="82.85" y="375.35" width="11.83" height="11.73"/><rect class="cls-4" x="82.85" y="363.62" width="11.83" height="11.73"/><rect class="cls-7" x="82.85" y="351.89" width="11.83" height="11.73"/><rect class="cls-7" x="82.85" y="340.16" width="11.83" height="11.73"/><rect class="cls-7" x="82.85" y="328.43" width="11.83" height="11.73"/><rect class="cls-5" x="82.85" y="316.7" width="11.83" height="11.73"/><rect class="cls-7" x="82.85" y="304.97" width="11.83" height="11.73"/><rect class="cls-5" x="82.85" y="293.24" width="11.83" height="11.73"/><rect class="cls-7" x="82.85" y="281.51" width="11.83" height="11.73"/><rect class="cls-7" x="82.85" y="269.78" width="11.83" height="11.74"/><rect class="cls-5" x="82.85" y="258.05" width="11.83" height="11.73"/><rect class="cls-7" x="82.85" y="246.32" width="11.83" height="11.73"/><rect class="cls-7" x="82.85" y="234.59" width="11.83" height="11.73"/><rect class="cls-5" x="82.85" y="222.86" width="11.83" height="11.73"/><rect class="cls-5" x="82.85" y="211.13" width="11.83" height="11.73"/><rect class="cls-5" x="82.85" y="199.4" width="11.83" height="11.73"/><rect class="cls-4" x="82.85" y="187.68" width="11.83" height="11.73"/><rect class="cls-4" x="82.85" y="175.95" width="11.83" height="11.73"/><rect class="cls-4" x="82.85" y="164.22" width="11.83" height="11.73"/><rect class="cls-5" x="82.85" y="152.49" width="11.83" height="11.73"/><rect class="cls-4" x="82.85" y="140.76" width="11.83" height="11.73"/><rect class="cls-5" x="82.85" y="129.03" width="11.83" height="11.73"/><rect class="cls-5" x="82.85" y="117.3" width="11.83" height="11.73"/><rect class="cls-5" x="82.85" y="105.57" width="11.83" height="11.73"/><rect class="cls-5" x="82.85" y="93.84" width="11.83" height="11.73"/><rect class="cls-5" x="82.85" y="82.11" width="11.83" height="11.73"/><rect class="cls-5" x="82.85" y="70.38" width="11.83" height="11.74"/><rect class="cls-4" x="82.85" y="58.65" width="11.83" height="11.73"/><rect class="cls-4" x="82.85" y="46.92" width="11.83" height="11.73"/><rect class="cls-3" x="82.85" y="35.19" width="11.83" height="11.73"/><rect class="cls-4" x="82.85" y="23.46" width="11.83" height="11.73"/><rect class="cls-4" x="82.85" y="11.73" width="11.83" height="11.73"/><rect class="cls-2" x="82.85" width="11.83" height="11.73"/><rect class="cls-2" x="71.01" y="375.35" width="11.84" height="11.73"/><rect class="cls-4" x="71.01" y="363.62" width="11.84" height="11.73"/><rect class="cls-7" x="71.01" y="351.89" width="11.84" height="11.73"/><rect class="cls-7" x="71.01" y="340.16" width="11.84" height="11.73"/><rect class="cls-7" x="71.01" y="328.43" width="11.84" height="11.73"/><rect class="cls-5" x="71.01" y="316.7" width="11.84" height="11.73"/><rect class="cls-7" x="71.01" y="304.97" width="11.84" height="11.73"/><rect class="cls-5" x="71.01" y="293.24" width="11.84" height="11.73"/><rect class="cls-7" x="71.01" y="281.51" width="11.84" height="11.73"/><rect class="cls-7" x="71.01" y="269.78" width="11.84" height="11.74"/><rect class="cls-5" x="71.01" y="258.05" width="11.84" height="11.73"/><rect class="cls-7" x="71.01" y="246.32" width="11.84" height="11.73"/><rect class="cls-7" x="71.01" y="234.59" width="11.84" height="11.73"/><rect class="cls-5" x="71.01" y="222.86" width="11.84" height="11.73"/><rect class="cls-5" x="71.01" y="211.13" width="11.84" height="11.73"/><rect class="cls-5" x="71.01" y="199.4" width="11.84" height="11.73"/><rect class="cls-4" x="71.01" y="187.68" width="11.84" height="11.73"/><rect class="cls-4" x="71.01" y="175.95" width="11.84" height="11.73"/><rect class="cls-4" x="71.01" y="164.22" width="11.84" height="11.73"/><rect class="cls-5" x="71.01" y="152.49" width="11.84" height="11.73"/><rect class="cls-4" x="71.01" y="140.76" width="11.84" height="11.73"/><rect class="cls-5" x="71.01" y="129.03" width="11.84" height="11.73"/><rect class="cls-5" x="71.01" y="117.3" width="11.84" height="11.73"/><rect class="cls-5" x="71.01" y="105.57" width="11.84" height="11.73"/><rect class="cls-5" x="71.01" y="93.84" width="11.84" height="11.73"/><rect class="cls-5" x="71.01" y="82.11" width="11.84" height="11.73"/><rect class="cls-5" x="71.01" y="70.38" width="11.84" height="11.74"/><rect class="cls-3" x="71.01" y="58.65" width="11.84" height="11.73"/><rect class="cls-3" x="71.01" y="46.92" width="11.84" height="11.73"/><rect class="cls-4" x="71.01" y="35.19" width="11.84" height="11.73"/><rect class="cls-4" x="71.01" y="23.46" width="11.84" height="11.73"/><rect class="cls-4" x="71.01" y="11.73" width="11.84" height="11.73"/><rect class="cls-2" x="71.01" width="11.84" height="11.73"/><rect class="cls-2" x="59.18" y="375.35" width="11.84" height="11.73"/><rect class="cls-4" x="59.18" y="363.62" width="11.84" height="11.73"/><rect class="cls-5" x="59.18" y="351.89" width="11.84" height="11.73"/><rect class="cls-5" x="59.18" y="340.16" width="11.84" height="11.73"/><rect class="cls-7" x="59.18" y="328.43" width="11.84" height="11.73"/><rect class="cls-5" x="59.18" y="316.7" width="11.84" height="11.73"/><rect class="cls-7" x="59.18" y="304.97" width="11.84" height="11.73"/><rect class="cls-5" x="59.18" y="293.24" width="11.84" height="11.73"/><rect class="cls-7" x="59.18" y="281.51" width="11.84" height="11.73"/><rect class="cls-7" x="59.18" y="269.78" width="11.84" height="11.74"/><rect class="cls-5" x="59.18" y="258.05" width="11.84" height="11.73"/><rect class="cls-7" x="59.18" y="246.32" width="11.84" height="11.73"/><rect class="cls-7" x="59.18" y="234.59" width="11.84" height="11.73"/><rect class="cls-5" x="59.18" y="222.86" width="11.84" height="11.73"/><rect class="cls-5" x="59.18" y="211.13" width="11.84" height="11.73"/><rect class="cls-5" x="59.18" y="199.4" width="11.84" height="11.73"/><rect class="cls-4" x="59.18" y="187.68" width="11.84" height="11.73"/><rect class="cls-4" x="59.18" y="175.95" width="11.84" height="11.73"/><rect class="cls-4" x="59.18" y="164.22" width="11.84" height="11.73"/><rect class="cls-5" x="59.18" y="152.49" width="11.84" height="11.73"/><rect class="cls-4" x="59.18" y="140.76" width="11.84" height="11.73"/><rect class="cls-5" x="59.18" y="129.03" width="11.84" height="11.73"/><rect class="cls-5" x="59.18" y="117.3" width="11.84" height="11.73"/><rect class="cls-5" x="59.18" y="105.57" width="11.84" height="11.73"/><rect class="cls-5" x="59.18" y="93.84" width="11.84" height="11.73"/><rect class="cls-7" x="59.18" y="82.11" width="11.84" height="11.73"/><rect class="cls-3" x="59.18" y="70.38" width="11.84" height="11.74"/><rect class="cls-3" x="59.18" y="58.65" width="11.84" height="11.73"/><rect class="cls-4" x="59.18" y="46.92" width="11.84" height="11.73"/><rect class="cls-3" x="59.18" y="35.19" width="11.84" height="11.73"/><rect class="cls-4" x="59.18" y="23.46" width="11.84" height="11.73"/><rect class="cls-4" x="59.18" y="11.73" width="11.84" height="11.73"/><rect class="cls-2" x="59.18" width="11.84" height="11.73"/><rect class="cls-2" x="47.34" y="375.35" width="11.83" height="11.73"/><rect class="cls-4" x="47.34" y="363.62" width="11.83" height="11.73"/><rect class="cls-5" x="47.34" y="351.89" width="11.83" height="11.73"/><rect class="cls-5" x="47.34" y="340.16" width="11.83" height="11.73"/><rect class="cls-7" x="47.34" y="328.43" width="11.83" height="11.73"/><rect class="cls-5" x="47.34" y="316.7" width="11.83" height="11.73"/><rect class="cls-7" x="47.34" y="304.97" width="11.83" height="11.73"/><rect class="cls-5" x="47.34" y="293.24" width="11.83" height="11.73"/><rect class="cls-7" x="47.34" y="281.51" width="11.83" height="11.73"/><rect class="cls-5" x="47.34" y="269.78" width="11.83" height="11.74"/><rect class="cls-5" x="47.34" y="258.05" width="11.83" height="11.73"/><rect class="cls-7" x="47.34" y="246.32" width="11.83" height="11.73"/><rect class="cls-7" x="47.34" y="234.59" width="11.83" height="11.73"/><rect class="cls-7" x="47.34" y="222.86" width="11.83" height="11.73"/><rect class="cls-7" x="47.34" y="211.13" width="11.83" height="11.73"/><rect class="cls-7" x="47.34" y="199.4" width="11.83" height="11.73"/><rect class="cls-4" x="47.34" y="187.68" width="11.83" height="11.73"/><rect class="cls-4" x="47.34" y="175.95" width="11.83" height="11.73"/><rect class="cls-4" x="47.34" y="164.22" width="11.83" height="11.73"/><rect class="cls-5" x="47.34" y="152.49" width="11.83" height="11.73"/><rect class="cls-4" x="47.34" y="140.76" width="11.83" height="11.73"/><rect class="cls-7" x="47.34" y="129.03" width="11.83" height="11.73"/><rect class="cls-7" x="47.34" y="117.3" width="11.83" height="11.73"/><rect class="cls-3" x="47.34" y="105.57" width="11.83" height="11.73"/><rect class="cls-3" x="47.34" y="93.84" width="11.83" height="11.73"/><rect class="cls-3" x="47.34" y="82.11" width="11.83" height="11.73"/><rect class="cls-3" x="47.34" y="70.38" width="11.83" height="11.74"/><rect class="cls-4" x="47.34" y="58.65" width="11.83" height="11.73"/><rect class="cls-2" x="47.34" y="46.92" width="11.83" height="11.73"/><rect class="cls-2" x="47.34" y="35.19" width="11.83" height="11.73"/><rect class="cls-2" x="47.34" y="23.46" width="11.83" height="11.73"/><rect class="cls-2" x="47.34" y="11.73" width="11.83" height="11.73"/><rect class="cls-2" x="35.51" y="375.35" width="11.84" height="11.73"/><rect class="cls-3" x="35.51" y="363.62" width="11.84" height="11.73"/><rect class="cls-4" x="35.51" y="351.89" width="11.84" height="11.73"/><rect class="cls-5" x="35.51" y="340.16" width="11.84" height="11.73"/><rect class="cls-5" x="35.51" y="328.43" width="11.84" height="11.73"/><rect class="cls-5" x="35.51" y="316.7" width="11.84" height="11.73"/><rect class="cls-7" x="35.51" y="304.97" width="11.84" height="11.73"/><rect class="cls-5" x="35.51" y="293.24" width="11.84" height="11.73"/><rect class="cls-7" x="35.51" y="281.51" width="11.84" height="11.73"/><rect class="cls-5" x="35.51" y="269.78" width="11.84" height="11.74"/><rect class="cls-3" x="35.51" y="258.05" width="11.84" height="11.73"/><rect class="cls-3" x="35.51" y="246.32" width="11.84" height="11.73"/><rect class="cls-3" x="35.51" y="234.59" width="11.84" height="11.73"/><rect class="cls-3" x="35.51" y="222.86" width="11.84" height="11.73"/><rect class="cls-3" x="35.51" y="211.13" width="11.84" height="11.73"/><rect class="cls-3" x="35.51" y="199.4" width="11.84" height="11.73"/><rect class="cls-4" x="35.51" y="187.68" width="11.84" height="11.73"/><rect class="cls-4" x="35.51" y="175.95" width="11.84" height="11.73"/><rect class="cls-4" x="35.51" y="164.22" width="11.84" height="11.73"/><rect class="cls-5" x="35.51" y="152.49" width="11.84" height="11.73"/><rect class="cls-4" x="35.51" y="140.76" width="11.84" height="11.73"/><rect class="cls-3" x="35.51" y="129.03" width="11.84" height="11.73"/><rect class="cls-3" x="35.51" y="117.3" width="11.84" height="11.73"/><rect class="cls-3" x="35.51" y="105.57" width="11.84" height="11.73"/><rect class="cls-3" x="35.51" y="93.84" width="11.84" height="11.73"/><rect class="cls-4" x="35.51" y="82.11" width="11.84" height="11.73"/><rect class="cls-4" x="35.51" y="70.38" width="11.84" height="11.74"/><rect class="cls-2" x="35.51" y="58.65" width="11.84" height="11.73"/><rect class="cls-2" x="23.67" y="375.35" width="11.84" height="11.73"/><rect class="cls-7" x="23.67" y="363.62" width="11.84" height="11.73"/><rect class="cls-7" x="23.67" y="351.89" width="11.84" height="11.73"/><rect class="cls-5" x="23.67" y="340.16" width="11.84" height="11.73"/><rect class="cls-7" x="23.67" y="328.43" width="11.84" height="11.73"/><rect class="cls-7" x="23.67" y="316.7" width="11.84" height="11.73"/><rect class="cls-7" x="23.67" y="304.97" width="11.84" height="11.73"/><rect class="cls-7" x="23.67" y="293.24" width="11.84" height="11.73"/><rect class="cls-7" x="23.67" y="281.51" width="11.84" height="11.73"/><rect class="cls-3" x="23.67" y="269.78" width="11.84" height="11.74"/><rect class="cls-3" x="23.67" y="258.05" width="11.84" height="11.73"/><rect class="cls-3" x="23.67" y="246.32" width="11.84" height="11.73"/><rect class="cls-3" x="23.67" y="234.59" width="11.84" height="11.73"/><rect class="cls-3" x="23.67" y="222.86" width="11.84" height="11.73"/><rect class="cls-3" x="23.67" y="211.13" width="11.84" height="11.73"/><rect class="cls-3" x="23.67" y="199.4" width="11.84" height="11.73"/><rect class="cls-4" x="23.67" y="187.68" width="11.84" height="11.73"/><rect class="cls-4" x="23.67" y="175.95" width="11.84" height="11.73"/><rect class="cls-4" x="23.67" y="164.22" width="11.84" height="11.73"/><rect class="cls-5" x="23.67" y="152.49" width="11.84" height="11.73"/><rect class="cls-4" x="23.67" y="140.76" width="11.84" height="11.73"/><rect class="cls-3" x="23.67" y="129.03" width="11.84" height="11.73"/><rect class="cls-3" x="23.67" y="117.3" width="11.84" height="11.73"/><rect class="cls-4" x="23.67" y="105.57" width="11.84" height="11.73"/><rect class="cls-4" x="23.67" y="93.84" width="11.84" height="11.73"/><rect class="cls-2" x="23.67" y="82.11" width="11.84" height="11.73"/><rect class="cls-2" x="23.67" y="70.38" width="11.84" height="11.74"/><rect class="cls-2" x="11.84" y="363.62" width="11.83" height="11.73"/><rect class="cls-7" x="11.84" y="351.89" width="11.83" height="11.73"/><rect class="cls-7" x="11.84" y="340.16" width="11.83" height="11.73"/><rect class="cls-7" x="11.84" y="328.43" width="11.83" height="11.73"/><rect class="cls-7" x="11.84" y="316.7" width="11.83" height="11.73"/><rect class="cls-7" x="11.84" y="304.97" width="11.83" height="11.73"/><rect class="cls-7" x="11.84" y="293.24" width="11.83" height="11.73"/><rect class="cls-7" x="11.84" y="281.51" width="11.83" height="11.73"/><rect class="cls-3" x="11.84" y="269.78" width="11.83" height="11.74"/><rect class="cls-3" x="11.84" y="258.05" width="11.83" height="11.73"/><rect class="cls-2" x="11.84" y="246.32" width="11.83" height="11.73"/><rect class="cls-2" x="11.84" y="234.59" width="11.83" height="11.73"/><rect class="cls-2" x="11.84" y="222.86" width="11.83" height="11.73"/><rect class="cls-3" x="11.84" y="211.13" width="11.83" height="11.73"/><rect class="cls-3" x="11.84" y="199.4" width="11.83" height="11.73"/><rect class="cls-4" x="11.84" y="187.68" width="11.83" height="11.73"/><rect class="cls-4" x="11.84" y="175.95" width="11.83" height="11.73"/><rect class="cls-4" x="11.84" y="164.22" width="11.83" height="11.73"/><rect class="cls-5" x="11.84" y="152.49" width="11.83" height="11.73"/><rect class="cls-4" x="11.84" y="140.76" width="11.83" height="11.73"/><rect class="cls-4" x="11.84" y="129.03" width="11.83" height="11.73"/><rect class="cls-4" x="11.84" y="117.3" width="11.83" height="11.73"/><rect class="cls-2" x="11.84" y="105.57" width="11.83" height="11.73"/><rect class="cls-2" x="11.84" y="93.84" width="11.83" height="11.73"/><rect class="cls-2" y="351.89" width="11.84" height="11.73"/><rect class="cls-2" y="340.16" width="11.84" height="11.73"/><rect class="cls-2" y="328.43" width="11.84" height="11.73"/><rect class="cls-2" y="316.7" width="11.84" height="11.73"/><rect class="cls-2" y="304.97" width="11.84" height="11.73"/><rect class="cls-2" y="293.24" width="11.84" height="11.73"/><rect class="cls-2" y="281.51" width="11.84" height="11.73"/><rect class="cls-2" y="269.78" width="11.84" height="11.74"/><rect class="cls-2" y="258.05" width="11.84" height="11.73"/><rect class="cls-2" y="246.32" width="11.84" height="11.73"/><rect class="cls-2" y="211.13" width="11.84" height="11.73"/><rect class="cls-2" y="199.4" width="11.84" height="11.73"/><rect class="cls-2" y="187.68" width="11.84" height="11.73"/><rect class="cls-2" y="175.95" width="11.84" height="11.73"/><rect class="cls-2" y="164.22" width="11.84" height="11.73"/><rect class="cls-2" y="152.49" width="11.84" height="11.73"/><rect class="cls-2" y="140.76" width="11.84" height="11.73"/><rect class="cls-2" y="129.03" width="11.84" height="11.73"/><rect class="cls-2" y="117.3" width="11.84" height="11.73"/></g></g></g></svg>