<svg id="Layer_1" data-name="Layer 1" xmlns="http://www.w3.org/2000/svg" viewBox="0 0 701.59 136.85"><defs><style>.cls-1{fill:#f4d1b4;}.cls-2{fill:#010101;}.cls-3{fill:#e76224;}.cls-4{fill:#f39f44;}</style></defs><rect class="cls-1" x="608.04" width="11.7" height="11.4"/><rect class="cls-1" x="596.35" width="11.7" height="11.4"/><rect class="cls-1" x="678.21" width="11.69" height="11.4"/><rect class="cls-1" x="666.51" width="11.7" height="11.4"/><rect class="cls-1" x="654.82" width="11.7" height="11.4"/><rect class="cls-1" x="643.12" width="11.7" height="11.4"/><rect class="cls-1" x="631.43" width="11.69" height="11.4"/><rect class="cls-1" x="619.74" width="11.7" height="11.4"/><rect class="cls-1" x="561.27" width="11.7" height="11.4"/><rect class="cls-1" x="584.66" width="11.69" height="11.4"/><rect class="cls-1" x="572.97" width="11.7" height="11.4"/><rect class="cls-1" x="397.57" width="11.69" height="11.4"/><rect class="cls-1" x="385.87" width="11.7" height="11.4"/><rect class="cls-1" x="374.18" width="11.7" height="11.4"/><rect class="cls-1" x="362.48" width="11.7" height="11.4"/><rect class="cls-1" x="350.8" width="11.69" height="11.4"/><rect class="cls-1" x="339.1" width="11.7" height="11.4"/><rect class="cls-1" x="327.41" width="11.7" height="11.4"/><rect class="cls-1" x="315.71" width="11.7" height="11.4"/><rect class="cls-1" x="304.02" width="11.69" height="11.4"/><rect class="cls-1" x="292.33" width="11.7" height="11.4"/><rect class="cls-1" x="280.63" width="11.7" height="11.4"/><rect class="cls-1" x="46.77" width="11.7" height="11.4"/><rect class="cls-1" x="35.07" width="11.7" height="11.4"/><rect class="cls-1" x="23.39" width="11.69" height="11.4"/><rect class="cls-1" x="11.69" width="11.7" height="11.4"/><rect class="cls-1" x="105.24" width="11.7" height="11.4"/><rect class="cls-1" x="93.54" width="11.7" height="11.4"/><rect class="cls-1" x="81.85" width="11.7" height="11.4"/><rect class="cls-1" x="70.16" width="11.69" height="11.4"/><rect class="cls-1" x="58.46" width="11.7" height="11.4"/><rect class="cls-1" x="128.62" width="11.7" height="11.4"/><rect class="cls-1" x="116.93" width="11.69" height="11.4"/><rect class="cls-2" x="689.89" y="114.05" width="11.7" height="11.4"/><rect class="cls-2" x="689.89" y="102.64" width="11.7" height="11.41"/><rect class="cls-2" x="689.89" y="91.24" width="11.7" height="11.4"/><rect class="cls-2" x="689.89" y="79.83" width="11.7" height="11.4"/><rect class="cls-2" x="689.89" y="68.43" width="11.7" height="11.4"/><rect class="cls-2" x="689.89" y="57.02" width="11.7" height="11.4"/><rect class="cls-2" x="689.89" y="45.62" width="11.7" height="11.4"/><rect class="cls-2" x="689.89" y="34.22" width="11.7" height="11.4"/><rect class="cls-2" x="689.89" y="22.81" width="11.7" height="11.4"/><rect class="cls-2" x="689.89" y="11.4" width="11.7" height="11.41"/><rect class="cls-2" x="678.21" y="125.45" width="11.69" height="11.4"/><rect class="cls-3" x="678.21" y="114.05" width="11.69" height="11.4"/><rect class="cls-3" x="678.21" y="102.64" width="11.69" height="11.41"/><rect class="cls-2" x="678.21" y="91.24" width="11.69" height="11.4"/><rect class="cls-3" x="678.21" y="79.83" width="11.69" height="11.4"/><rect class="cls-3" x="678.21" y="68.43" width="11.69" height="11.4"/><rect class="cls-2" x="678.21" y="57.02" width="11.69" height="11.4"/><rect class="cls-3" x="678.21" y="45.62" width="11.69" height="11.4"/><rect class="cls-3" x="678.21" y="34.22" width="11.69" height="11.4"/><rect class="cls-2" x="678.21" y="22.81" width="11.69" height="11.4"/><rect class="cls-3" x="678.21" y="11.4" width="11.69" height="11.41"/><rect class="cls-2" x="666.51" y="125.45" width="11.7" height="11.4"/><rect class="cls-3" x="666.51" y="114.05" width="11.7" height="11.4"/><rect class="cls-3" x="666.51" y="102.64" width="11.7" height="11.41"/><rect class="cls-2" x="666.51" y="91.24" width="11.7" height="11.4"/><rect class="cls-3" x="666.51" y="79.83" width="11.7" height="11.4"/><rect class="cls-3" x="666.51" y="68.43" width="11.7" height="11.4"/><rect class="cls-2" x="666.51" y="57.02" width="11.7" height="11.4"/><rect class="cls-3" x="666.51" y="45.62" width="11.7" height="11.4"/><rect class="cls-3" x="666.51" y="34.22" width="11.7" height="11.4"/><rect class="cls-2" x="666.51" y="22.81" width="11.7" height="11.4"/><rect class="cls-3" x="666.51" y="11.4" width="11.7" height="11.41"/><rect class="cls-2" x="654.82" y="125.45" width="11.7" height="11.4"/><rect class="cls-2" x="654.82" y="114.05" width="11.7" height="11.4"/><rect class="cls-2" x="654.82" y="102.64" width="11.7" height="11.41"/><rect class="cls-2" x="654.82" y="91.24" width="11.7" height="11.4"/><rect class="cls-3" x="654.82" y="79.83" width="11.7" height="11.4"/><rect class="cls-3" x="654.82" y="68.43" width="11.7" height="11.4"/><rect class="cls-2" x="654.82" y="57.02" width="11.7" height="11.4"/><rect class="cls-2" x="654.82" y="45.62" width="11.7" height="11.4"/><rect class="cls-2" x="654.82" y="34.22" width="11.7" height="11.4"/><rect class="cls-2" x="654.82" y="22.81" width="11.7" height="11.4"/><rect class="cls-3" x="654.82" y="11.4" width="11.7" height="11.41"/><rect class="cls-2" x="643.12" y="125.45" width="11.7" height="11.4"/><rect class="cls-3" x="643.12" y="114.05" width="11.7" height="11.4"/><rect class="cls-3" x="643.12" y="102.64" width="11.7" height="11.41"/><rect class="cls-2" x="643.12" y="91.24" width="11.7" height="11.4"/><rect class="cls-3" x="643.12" y="79.83" width="11.7" height="11.4"/><rect class="cls-3" x="643.12" y="68.43" width="11.7" height="11.4"/><rect class="cls-2" x="643.12" y="57.02" width="11.7" height="11.4"/><rect class="cls-3" x="643.12" y="45.62" width="11.7" height="11.4"/><rect class="cls-3" x="643.12" y="34.22" width="11.7" height="11.4"/><rect class="cls-2" x="643.12" y="22.81" width="11.7" height="11.4"/><rect class="cls-3" x="643.12" y="11.4" width="11.7" height="11.41"/><rect class="cls-2" x="631.43" y="125.45" width="11.69" height="11.4"/><rect class="cls-3" x="631.43" y="114.05" width="11.69" height="11.4"/><rect class="cls-3" x="631.43" y="102.64" width="11.69" height="11.41"/><rect class="cls-2" x="631.43" y="91.24" width="11.69" height="11.4"/><rect class="cls-3" x="631.43" y="79.83" width="11.69" height="11.4"/><rect class="cls-3" x="631.43" y="68.43" width="11.69" height="11.4"/><rect class="cls-2" x="631.43" y="57.02" width="11.69" height="11.4"/><rect class="cls-3" x="631.43" y="45.62" width="11.69" height="11.4"/><rect class="cls-3" x="631.43" y="34.22" width="11.69" height="11.4"/><rect class="cls-2" x="631.43" y="22.81" width="11.69" height="11.4"/><rect class="cls-3" x="631.43" y="11.4" width="11.69" height="11.41"/><rect class="cls-2" x="619.74" y="125.45" width="11.7" height="11.4"/><rect class="cls-3" x="619.74" y="114.05" width="11.7" height="11.4"/><rect class="cls-3" x="619.74" y="102.64" width="11.7" height="11.41"/><rect class="cls-2" x="619.74" y="91.24" width="11.7" height="11.4"/><rect class="cls-2" x="619.74" y="79.83" width="11.7" height="11.4"/><rect class="cls-2" x="619.74" y="68.43" width="11.7" height="11.4"/><rect class="cls-2" x="619.74" y="57.02" width="11.7" height="11.4"/><rect class="cls-3" x="619.74" y="45.62" width="11.7" height="11.4"/><rect class="cls-3" x="619.74" y="34.22" width="11.7" height="11.4"/><rect class="cls-2" x="619.74" y="22.81" width="11.7" height="11.4"/><rect class="cls-2" x="619.74" y="11.4" width="11.7" height="11.41"/><rect class="cls-2" x="608.04" y="125.45" width="11.7" height="11.4"/><rect class="cls-3" x="608.04" y="114.05" width="11.7" height="11.4"/><rect class="cls-3" x="608.04" y="102.64" width="11.7" height="11.41"/><rect class="cls-2" x="608.04" y="91.24" width="11.7" height="11.4"/><rect class="cls-3" x="608.04" y="79.83" width="11.7" height="11.4"/><rect class="cls-3" x="608.04" y="68.43" width="11.7" height="11.4"/><rect class="cls-2" x="608.04" y="57.02" width="11.7" height="11.4"/><rect class="cls-3" x="608.04" y="45.62" width="11.7" height="11.4"/><rect class="cls-3" x="608.04" y="34.22" width="11.7" height="11.4"/><rect class="cls-2" x="608.04" y="22.81" width="11.7" height="11.4"/><rect class="cls-3" x="608.04" y="11.4" width="11.7" height="11.41"/><rect class="cls-2" x="596.35" y="125.45" width="11.7" height="11.4"/><rect class="cls-3" x="596.35" y="114.05" width="11.7" height="11.4"/><rect class="cls-3" x="596.35" y="102.64" width="11.7" height="11.41"/><rect class="cls-2" x="596.35" y="91.24" width="11.7" height="11.4"/><rect class="cls-3" x="596.35" y="79.83" width="11.7" height="11.4"/><rect class="cls-3" x="596.35" y="68.43" width="11.7" height="11.4"/><rect class="cls-2" x="596.35" y="57.02" width="11.7" height="11.4"/><rect class="cls-3" x="596.35" y="45.62" width="11.7" height="11.4"/><rect class="cls-3" x="596.35" y="34.22" width="11.7" height="11.4"/><rect class="cls-2" x="596.35" y="22.81" width="11.7" height="11.4"/><rect class="cls-3" x="596.35" y="11.4" width="11.7" height="11.41"/><rect class="cls-2" x="584.66" y="125.45" width="11.69" height="11.4"/><rect class="cls-2" x="584.66" y="114.05" width="11.69" height="11.4"/><rect class="cls-2" x="584.66" y="102.64" width="11.69" height="11.41"/><rect class="cls-2" x="584.66" y="91.24" width="11.69" height="11.4"/><rect class="cls-3" x="584.66" y="79.83" width="11.69" height="11.4"/><rect class="cls-3" x="584.66" y="68.43" width="11.69" height="11.4"/><rect class="cls-2" x="584.66" y="57.02" width="11.69" height="11.4"/><rect class="cls-2" x="584.66" y="45.62" width="11.69" height="11.4"/><rect class="cls-2" x="584.66" y="34.22" width="11.69" height="11.4"/><rect class="cls-2" x="584.66" y="22.81" width="11.69" height="11.4"/><rect class="cls-3" x="584.66" y="11.4" width="11.69" height="11.41"/><rect class="cls-2" x="572.97" y="125.45" width="11.7" height="11.4"/><rect class="cls-3" x="572.97" y="114.05" width="11.7" height="11.4"/><rect class="cls-3" x="572.97" y="102.64" width="11.7" height="11.41"/><rect class="cls-2" x="572.97" y="91.24" width="11.7" height="11.4"/><rect class="cls-3" x="572.97" y="79.83" width="11.7" height="11.4"/><rect class="cls-3" x="572.97" y="68.43" width="11.7" height="11.4"/><rect class="cls-2" x="572.97" y="57.02" width="11.7" height="11.4"/><rect class="cls-3" x="572.97" y="45.62" width="11.7" height="11.4"/><rect class="cls-3" x="572.97" y="34.22" width="11.7" height="11.4"/><rect class="cls-2" x="572.97" y="22.81" width="11.7" height="11.4"/><rect class="cls-3" x="572.97" y="11.4" width="11.7" height="11.41"/><rect class="cls-2" x="561.27" y="125.45" width="11.7" height="11.4"/><rect class="cls-3" x="561.27" y="114.05" width="11.7" height="11.4"/><rect class="cls-3" x="561.27" y="102.64" width="11.7" height="11.41"/><rect class="cls-2" x="561.27" y="91.24" width="11.7" height="11.4"/><rect class="cls-3" x="561.27" y="79.83" width="11.7" height="11.4"/><rect class="cls-3" x="561.27" y="68.43" width="11.7" height="11.4"/><rect class="cls-2" x="561.27" y="57.02" width="11.7" height="11.4"/><rect class="cls-3" x="561.27" y="45.62" width="11.7" height="11.4"/><rect class="cls-3" x="561.27" y="34.22" width="11.7" height="11.4"/><rect class="cls-2" x="561.27" y="22.81" width="11.7" height="11.4"/><rect class="cls-3" x="561.27" y="11.4" width="11.7" height="11.41"/><rect class="cls-2" x="549.58" y="114.05" width="11.7" height="11.4"/><rect class="cls-2" x="549.58" y="102.64" width="11.7" height="11.41"/><rect class="cls-2" x="549.58" y="91.24" width="11.7" height="11.4"/><rect class="cls-2" x="549.58" y="79.83" width="11.7" height="11.4"/><rect class="cls-2" x="549.58" y="68.43" width="11.7" height="11.4"/><rect class="cls-2" x="549.58" y="57.02" width="11.7" height="11.4"/><rect class="cls-2" x="549.58" y="45.62" width="11.7" height="11.4"/><rect class="cls-2" x="549.58" y="34.22" width="11.7" height="11.4"/><rect class="cls-2" x="549.58" y="22.81" width="11.7" height="11.4"/><rect class="cls-2" x="549.58" y="11.4" width="11.7" height="11.41"/><rect class="cls-2" x="537.89" y="125.45" width="11.69" height="11.4"/><rect class="cls-4" x="537.89" y="114.05" width="11.69" height="11.4"/><rect class="cls-4" x="537.89" y="102.64" width="11.69" height="11.41"/><rect class="cls-4" x="537.89" y="91.24" width="11.69" height="11.4"/><rect class="cls-4" x="537.89" y="79.83" width="11.69" height="11.4"/><rect class="cls-4" x="537.89" y="68.43" width="11.69" height="11.4"/><rect class="cls-4" x="537.89" y="57.02" width="11.69" height="11.4"/><rect class="cls-4" x="537.89" y="45.62" width="11.69" height="11.4"/><rect class="cls-4" x="537.89" y="34.22" width="11.69" height="11.4"/><rect class="cls-4" x="537.89" y="22.81" width="11.69" height="11.4"/><rect class="cls-4" x="537.89" y="11.4" width="11.69" height="11.41"/><rect class="cls-3" x="537.89" width="11.69" height="11.4"/><rect class="cls-2" x="526.19" y="125.45" width="11.7" height="11.4"/><rect class="cls-4" x="526.19" y="114.05" width="11.7" height="11.4"/><rect class="cls-2" x="526.19" y="102.64" width="11.7" height="11.41"/><rect class="cls-4" x="526.19" y="91.24" width="11.7" height="11.4"/><rect class="cls-4" x="526.19" y="79.83" width="11.7" height="11.4"/><rect class="cls-4" x="526.19" y="68.43" width="11.7" height="11.4"/><rect class="cls-4" x="526.19" y="57.02" width="11.7" height="11.4"/><rect class="cls-4" x="526.19" y="45.62" width="11.7" height="11.4"/><rect class="cls-4" x="526.19" y="34.22" width="11.7" height="11.4"/><rect class="cls-2" x="526.19" y="22.81" width="11.7" height="11.4"/><rect class="cls-4" x="526.19" y="11.4" width="11.7" height="11.41"/><rect class="cls-3" x="526.19" width="11.7" height="11.4"/><rect class="cls-2" x="514.5" y="125.45" width="11.7" height="11.4"/><rect class="cls-4" x="514.5" y="114.05" width="11.7" height="11.4"/><rect class="cls-4" x="514.5" y="102.64" width="11.7" height="11.41"/><rect class="cls-4" x="514.5" y="91.24" width="11.7" height="11.4"/><rect class="cls-4" x="514.5" y="79.83" width="11.7" height="11.4"/><rect class="cls-2" x="514.5" y="68.43" width="11.7" height="11.4"/><rect class="cls-2" x="514.5" y="57.02" width="11.7" height="11.4"/><rect class="cls-2" x="514.5" y="45.62" width="11.7" height="11.4"/><rect class="cls-4" x="514.5" y="34.22" width="11.7" height="11.4"/><rect class="cls-4" x="514.5" y="22.81" width="11.7" height="11.4"/><rect class="cls-4" x="514.5" y="11.4" width="11.7" height="11.41"/><rect class="cls-3" x="514.5" width="11.7" height="11.4"/><rect class="cls-2" x="502.8" y="125.45" width="11.7" height="11.4"/><rect class="cls-4" x="502.8" y="114.05" width="11.7" height="11.4"/><rect class="cls-4" x="502.8" y="102.64" width="11.7" height="11.41"/><rect class="cls-4" x="502.8" y="91.24" width="11.7" height="11.4"/><rect class="cls-4" x="502.8" y="79.83" width="11.7" height="11.4"/><rect class="cls-2" x="502.8" y="68.43" width="11.7" height="11.4"/><rect class="cls-3" x="502.8" y="57.02" width="11.7" height="11.4"/><rect class="cls-3" x="502.8" y="45.62" width="11.7" height="11.4"/><rect class="cls-3" x="502.8" y="34.22" width="11.7" height="11.4"/><rect class="cls-4" x="502.8" y="22.81" width="11.7" height="11.4"/><rect class="cls-4" x="502.8" y="11.4" width="11.7" height="11.41"/><rect class="cls-3" x="502.8" width="11.7" height="11.4"/><rect class="cls-2" x="491.12" y="125.45" width="11.69" height="11.4"/><rect class="cls-4" x="491.12" y="114.05" width="11.69" height="11.4"/><rect class="cls-2" x="491.12" y="102.64" width="11.69" height="11.41"/><rect class="cls-4" x="491.12" y="91.24" width="11.69" height="11.4"/><rect class="cls-2" x="491.12" y="79.83" width="11.69" height="11.4"/><rect class="cls-3" x="491.12" y="68.43" width="11.69" height="11.4"/><rect class="cls-3" x="491.12" y="57.02" width="11.69" height="11.4"/><rect class="cls-4" x="491.12" y="45.62" width="11.69" height="11.4"/><rect class="cls-2" x="491.12" y="34.22" width="11.69" height="11.4"/><rect class="cls-3" x="491.12" y="22.81" width="11.69" height="11.4"/><rect class="cls-4" x="491.12" y="11.4" width="11.69" height="11.41"/><rect class="cls-3" x="491.12" width="11.69" height="11.4"/><rect class="cls-2" x="479.42" y="125.45" width="11.7" height="11.4"/><rect class="cls-4" x="479.42" y="114.05" width="11.7" height="11.4"/><rect class="cls-3" x="479.42" y="102.64" width="11.7" height="11.41"/><rect class="cls-4" x="479.42" y="91.24" width="11.7" height="11.4"/><rect class="cls-3" x="479.42" y="79.83" width="11.7" height="11.4"/><rect class="cls-3" x="479.42" y="68.43" width="11.7" height="11.4"/><rect class="cls-4" x="479.42" y="57.02" width="11.7" height="11.4"/><rect class="cls-4" x="479.42" y="45.62" width="11.7" height="11.4"/><rect class="cls-2" x="479.42" y="34.22" width="11.7" height="11.4"/><rect class="cls-3" x="479.42" y="22.81" width="11.7" height="11.4"/><rect class="cls-4" x="479.42" y="11.4" width="11.7" height="11.41"/><rect class="cls-3" x="479.42" width="11.7" height="11.4"/><rect class="cls-2" x="467.73" y="125.45" width="11.7" height="11.4"/><rect class="cls-4" x="467.73" y="114.05" width="11.7" height="11.4"/><rect class="cls-4" x="467.73" y="102.64" width="11.7" height="11.41"/><rect class="cls-4" x="467.73" y="91.24" width="11.7" height="11.4"/><rect class="cls-4" x="467.73" y="79.83" width="11.7" height="11.4"/><rect class="cls-4" x="467.73" y="68.43" width="11.7" height="11.4"/><rect class="cls-2" x="467.73" y="57.02" width="11.7" height="11.4"/><rect class="cls-2" x="467.73" y="45.62" width="11.7" height="11.4"/><rect class="cls-2" x="467.73" y="34.22" width="11.7" height="11.4"/><rect class="cls-3" x="467.73" y="22.81" width="11.7" height="11.4"/><rect class="cls-4" x="467.73" y="11.4" width="11.7" height="11.41"/><rect class="cls-3" x="467.73" width="11.7" height="11.4"/><rect class="cls-2" x="456.03" y="125.45" width="11.7" height="11.4"/><rect class="cls-4" x="456.03" y="114.05" width="11.7" height="11.4"/><rect class="cls-4" x="456.03" y="102.64" width="11.7" height="11.41"/><rect class="cls-4" x="456.03" y="91.24" width="11.7" height="11.4"/><rect class="cls-4" x="456.03" y="79.83" width="11.7" height="11.4"/><rect class="cls-4" x="456.03" y="68.43" width="11.7" height="11.4"/><rect class="cls-2" x="456.03" y="57.02" width="11.7" height="11.4"/><rect class="cls-3" x="456.03" y="45.62" width="11.7" height="11.4"/><rect class="cls-3" x="456.03" y="34.22" width="11.7" height="11.4"/><rect class="cls-4" x="456.03" y="22.81" width="11.7" height="11.4"/><rect class="cls-4" x="456.03" y="11.4" width="11.7" height="11.41"/><rect class="cls-3" x="456.03" width="11.7" height="11.4"/><rect class="cls-2" x="444.34" y="125.45" width="11.69" height="11.4"/><rect class="cls-4" x="444.34" y="114.05" width="11.69" height="11.4"/><rect class="cls-4" x="444.34" y="102.64" width="11.69" height="11.41"/><rect class="cls-4" x="444.34" y="91.24" width="11.69" height="11.4"/><rect class="cls-4" x="444.34" y="79.83" width="11.69" height="11.4"/><rect class="cls-4" x="444.34" y="68.43" width="11.69" height="11.4"/><rect class="cls-4" x="444.34" y="57.02" width="11.69" height="11.4"/><rect class="cls-4" x="444.34" y="45.62" width="11.69" height="11.4"/><rect class="cls-4" x="444.34" y="34.22" width="11.69" height="11.4"/><rect class="cls-4" x="444.34" y="22.81" width="11.69" height="11.4"/><rect class="cls-4" x="444.34" y="11.4" width="11.69" height="11.41"/><rect class="cls-3" x="444.34" width="11.69" height="11.4"/><rect class="cls-2" x="432.65" y="125.45" width="11.7" height="11.4"/><rect class="cls-4" x="432.65" y="114.05" width="11.7" height="11.4"/><rect class="cls-2" x="432.65" y="102.64" width="11.7" height="11.41"/><rect class="cls-4" x="432.65" y="91.24" width="11.7" height="11.4"/><rect class="cls-4" x="432.65" y="79.83" width="11.7" height="11.4"/><rect class="cls-4" x="432.65" y="68.43" width="11.7" height="11.4"/><rect class="cls-4" x="432.65" y="57.02" width="11.7" height="11.4"/><rect class="cls-4" x="432.65" y="45.62" width="11.7" height="11.4"/><rect class="cls-4" x="432.65" y="34.22" width="11.7" height="11.4"/><rect class="cls-2" x="432.65" y="22.81" width="11.7" height="11.4"/><rect class="cls-4" x="432.65" y="11.4" width="11.7" height="11.41"/><rect class="cls-3" x="432.65" width="11.7" height="11.4"/><rect class="cls-2" x="420.95" y="125.45" width="11.7" height="11.4"/><rect class="cls-4" x="420.95" y="114.05" width="11.7" height="11.4"/><rect class="cls-4" x="420.95" y="102.64" width="11.7" height="11.41"/><rect class="cls-4" x="420.95" y="91.24" width="11.7" height="11.4"/><rect class="cls-4" x="420.95" y="79.83" width="11.7" height="11.4"/><rect class="cls-4" x="420.95" y="68.43" width="11.7" height="11.4"/><rect class="cls-4" x="420.95" y="57.02" width="11.7" height="11.4"/><rect class="cls-4" x="420.95" y="45.62" width="11.7" height="11.4"/><rect class="cls-4" x="420.95" y="34.22" width="11.7" height="11.4"/><rect class="cls-4" x="420.95" y="22.81" width="11.7" height="11.4"/><rect class="cls-4" x="420.95" y="11.4" width="11.7" height="11.41"/><rect class="cls-3" x="420.95" width="11.7" height="11.4"/><rect class="cls-2" x="409.26" y="114.05" width="11.7" height="11.4"/><rect class="cls-2" x="409.26" y="102.64" width="11.7" height="11.41"/><rect class="cls-2" x="409.26" y="91.24" width="11.7" height="11.4"/><rect class="cls-2" x="409.26" y="79.83" width="11.7" height="11.4"/><rect class="cls-2" x="409.26" y="68.43" width="11.7" height="11.4"/><rect class="cls-2" x="409.26" y="57.02" width="11.7" height="11.4"/><rect class="cls-2" x="409.26" y="45.62" width="11.7" height="11.4"/><rect class="cls-2" x="409.26" y="34.22" width="11.7" height="11.4"/><rect class="cls-2" x="409.26" y="22.81" width="11.7" height="11.4"/><rect class="cls-2" x="409.26" y="11.4" width="11.7" height="11.41"/><rect class="cls-2" x="397.57" y="125.45" width="11.69" height="11.4"/><rect class="cls-3" x="397.57" y="114.05" width="11.69" height="11.4"/><rect class="cls-3" x="397.57" y="102.64" width="11.69" height="11.41"/><rect class="cls-2" x="397.57" y="91.24" width="11.69" height="11.4"/><rect class="cls-3" x="397.57" y="79.83" width="11.69" height="11.4"/><rect class="cls-3" x="397.57" y="68.43" width="11.69" height="11.4"/><rect class="cls-2" x="397.57" y="57.02" width="11.69" height="11.4"/><rect class="cls-3" x="397.57" y="45.62" width="11.69" height="11.4"/><rect class="cls-3" x="397.57" y="34.22" width="11.69" height="11.4"/><rect class="cls-2" x="397.57" y="22.81" width="11.69" height="11.4"/><rect class="cls-3" x="397.57" y="11.4" width="11.69" height="11.41"/><rect class="cls-2" x="385.87" y="125.45" width="11.7" height="11.4"/><rect class="cls-3" x="385.87" y="114.05" width="11.7" height="11.4"/><rect class="cls-3" x="385.87" y="102.64" width="11.7" height="11.41"/><rect class="cls-2" x="385.87" y="91.24" width="11.7" height="11.4"/><rect class="cls-3" x="385.87" y="79.83" width="11.7" height="11.4"/><rect class="cls-3" x="385.87" y="68.43" width="11.7" height="11.4"/><rect class="cls-2" x="385.87" y="57.02" width="11.7" height="11.4"/><rect class="cls-3" x="385.87" y="45.62" width="11.7" height="11.4"/><rect class="cls-3" x="385.87" y="34.22" width="11.7" height="11.4"/><rect class="cls-2" x="385.87" y="22.81" width="11.7" height="11.4"/><rect class="cls-3" x="385.87" y="11.4" width="11.7" height="11.41"/><rect class="cls-2" x="374.18" y="125.45" width="11.7" height="11.4"/><rect class="cls-2" x="374.18" y="114.05" width="11.7" height="11.4"/><rect class="cls-2" x="374.18" y="102.64" width="11.7" height="11.41"/><rect class="cls-2" x="374.18" y="91.24" width="11.7" height="11.4"/><rect class="cls-3" x="374.18" y="79.83" width="11.7" height="11.4"/><rect class="cls-3" x="374.18" y="68.43" width="11.7" height="11.4"/><rect class="cls-2" x="374.18" y="57.02" width="11.7" height="11.4"/><rect class="cls-2" x="374.18" y="45.62" width="11.7" height="11.4"/><rect class="cls-2" x="374.18" y="34.22" width="11.7" height="11.4"/><rect class="cls-2" x="374.18" y="22.81" width="11.7" height="11.4"/><rect class="cls-3" x="374.18" y="11.4" width="11.7" height="11.41"/><rect class="cls-2" x="362.48" y="125.45" width="11.7" height="11.4"/><rect class="cls-3" x="362.48" y="114.05" width="11.7" height="11.4"/><rect class="cls-3" x="362.48" y="102.64" width="11.7" height="11.41"/><rect class="cls-2" x="362.48" y="91.24" width="11.7" height="11.4"/><rect class="cls-3" x="362.48" y="79.83" width="11.7" height="11.4"/><rect class="cls-3" x="362.48" y="68.43" width="11.7" height="11.4"/><rect class="cls-2" x="362.48" y="57.02" width="11.7" height="11.4"/><rect class="cls-3" x="362.48" y="45.62" width="11.7" height="11.4"/><rect class="cls-3" x="362.48" y="34.22" width="11.7" height="11.4"/><rect class="cls-2" x="362.48" y="22.81" width="11.7" height="11.4"/><rect class="cls-3" x="362.48" y="11.4" width="11.7" height="11.41"/><rect class="cls-2" x="350.8" y="125.45" width="11.69" height="11.4"/><rect class="cls-3" x="350.8" y="114.05" width="11.69" height="11.4"/><rect class="cls-3" x="350.8" y="102.64" width="11.69" height="11.41"/><rect class="cls-2" x="350.8" y="91.24" width="11.69" height="11.4"/><rect class="cls-3" x="350.8" y="79.83" width="11.69" height="11.4"/><rect class="cls-3" x="350.8" y="68.43" width="11.69" height="11.4"/><rect class="cls-2" x="350.8" y="57.02" width="11.69" height="11.4"/><rect class="cls-3" x="350.8" y="45.62" width="11.69" height="11.4"/><rect class="cls-3" x="350.8" y="34.22" width="11.69" height="11.4"/><rect class="cls-2" x="350.8" y="22.81" width="11.69" height="11.4"/><rect class="cls-3" x="350.8" y="11.4" width="11.69" height="11.41"/><rect class="cls-2" x="339.1" y="125.45" width="11.7" height="11.4"/><rect class="cls-3" x="339.1" y="114.05" width="11.7" height="11.4"/><rect class="cls-3" x="339.1" y="102.64" width="11.7" height="11.41"/><rect class="cls-2" x="339.1" y="91.24" width="11.7" height="11.4"/><rect class="cls-2" x="339.1" y="79.83" width="11.7" height="11.4"/><rect class="cls-2" x="339.1" y="68.43" width="11.7" height="11.4"/><rect class="cls-2" x="339.1" y="57.02" width="11.7" height="11.4"/><rect class="cls-3" x="339.1" y="45.62" width="11.7" height="11.4"/><rect class="cls-3" x="339.1" y="34.22" width="11.7" height="11.4"/><rect class="cls-2" x="339.1" y="22.81" width="11.7" height="11.4"/><rect class="cls-2" x="339.1" y="11.4" width="11.7" height="11.41"/><rect class="cls-2" x="327.41" y="125.45" width="11.7" height="11.4"/><rect class="cls-3" x="327.41" y="114.05" width="11.7" height="11.4"/><rect class="cls-3" x="327.41" y="102.64" width="11.7" height="11.41"/><rect class="cls-2" x="327.41" y="91.24" width="11.7" height="11.4"/><rect class="cls-3" x="327.41" y="79.83" width="11.7" height="11.4"/><rect class="cls-3" x="327.41" y="68.43" width="11.7" height="11.4"/><rect class="cls-2" x="327.41" y="57.02" width="11.7" height="11.4"/><rect class="cls-3" x="327.41" y="45.62" width="11.7" height="11.4"/><rect class="cls-3" x="327.41" y="34.22" width="11.7" height="11.4"/><rect class="cls-2" x="327.41" y="22.81" width="11.7" height="11.4"/><rect class="cls-3" x="327.41" y="11.4" width="11.7" height="11.41"/><rect class="cls-2" x="315.71" y="125.45" width="11.7" height="11.4"/><rect class="cls-3" x="315.71" y="114.05" width="11.7" height="11.4"/><rect class="cls-3" x="315.71" y="102.64" width="11.7" height="11.41"/><rect class="cls-2" x="315.71" y="91.24" width="11.7" height="11.4"/><rect class="cls-3" x="315.71" y="79.83" width="11.7" height="11.4"/><rect class="cls-3" x="315.71" y="68.43" width="11.7" height="11.4"/><rect class="cls-2" x="315.71" y="57.02" width="11.7" height="11.4"/><rect class="cls-3" x="315.71" y="45.62" width="11.7" height="11.4"/><rect class="cls-3" x="315.71" y="34.22" width="11.7" height="11.4"/><rect class="cls-2" x="315.71" y="22.81" width="11.7" height="11.4"/><rect class="cls-3" x="315.71" y="11.4" width="11.7" height="11.41"/><rect class="cls-2" x="304.02" y="125.45" width="11.69" height="11.4"/><rect class="cls-2" x="304.02" y="114.05" width="11.69" height="11.4"/><rect class="cls-2" x="304.02" y="102.64" width="11.69" height="11.41"/><rect class="cls-2" x="304.02" y="91.24" width="11.69" height="11.4"/><rect class="cls-3" x="304.02" y="79.83" width="11.69" height="11.4"/><rect class="cls-3" x="304.02" y="68.43" width="11.69" height="11.4"/><rect class="cls-2" x="304.02" y="57.02" width="11.69" height="11.4"/><rect class="cls-2" x="304.02" y="45.62" width="11.69" height="11.4"/><rect class="cls-2" x="304.02" y="34.22" width="11.69" height="11.4"/><rect class="cls-2" x="304.02" y="22.81" width="11.69" height="11.4"/><rect class="cls-3" x="304.02" y="11.4" width="11.69" height="11.41"/><rect class="cls-2" x="292.33" y="125.45" width="11.7" height="11.4"/><rect class="cls-3" x="292.33" y="114.05" width="11.7" height="11.4"/><rect class="cls-3" x="292.33" y="102.64" width="11.7" height="11.41"/><rect class="cls-2" x="292.33" y="91.24" width="11.7" height="11.4"/><rect class="cls-3" x="292.33" y="79.83" width="11.7" height="11.4"/><rect class="cls-3" x="292.33" y="68.43" width="11.7" height="11.4"/><rect class="cls-2" x="292.33" y="57.02" width="11.7" height="11.4"/><rect class="cls-3" x="292.33" y="45.62" width="11.7" height="11.4"/><rect class="cls-3" x="292.33" y="34.22" width="11.7" height="11.4"/><rect class="cls-2" x="292.33" y="22.81" width="11.7" height="11.4"/><rect class="cls-3" x="292.33" y="11.4" width="11.7" height="11.41"/><rect class="cls-2" x="280.63" y="125.45" width="11.7" height="11.4"/><rect class="cls-3" x="280.63" y="114.05" width="11.7" height="11.4"/><rect class="cls-3" x="280.63" y="102.64" width="11.7" height="11.41"/><rect class="cls-2" x="280.63" y="91.24" width="11.7" height="11.4"/><rect class="cls-3" x="280.63" y="79.83" width="11.7" height="11.4"/><rect class="cls-3" x="280.63" y="68.43" width="11.7" height="11.4"/><rect class="cls-2" x="280.63" y="57.02" width="11.7" height="11.4"/><rect class="cls-3" x="280.63" y="45.62" width="11.7" height="11.4"/><rect class="cls-3" x="280.63" y="34.22" width="11.7" height="11.4"/><rect class="cls-2" x="280.63" y="22.81" width="11.7" height="11.4"/><rect class="cls-3" x="280.63" y="11.4" width="11.7" height="11.41"/><rect class="cls-2" x="268.94" y="114.05" width="11.7" height="11.4"/><rect class="cls-2" x="268.94" y="102.64" width="11.7" height="11.41"/><rect class="cls-2" x="268.94" y="91.24" width="11.7" height="11.4"/><rect class="cls-2" x="268.94" y="79.83" width="11.7" height="11.4"/><rect class="cls-2" x="268.94" y="68.43" width="11.7" height="11.4"/><rect class="cls-2" x="268.94" y="57.02" width="11.7" height="11.4"/><rect class="cls-2" x="268.94" y="45.62" width="11.7" height="11.4"/><rect class="cls-2" x="268.94" y="34.22" width="11.7" height="11.4"/><rect class="cls-2" x="268.94" y="22.81" width="11.7" height="11.4"/><rect class="cls-2" x="268.94" y="11.4" width="11.7" height="11.41"/><rect class="cls-2" x="257.25" y="125.45" width="11.69" height="11.4"/><rect class="cls-3" x="257.25" y="114.05" width="11.69" height="11.4"/><rect class="cls-3" x="257.25" y="102.64" width="11.69" height="11.41"/><rect class="cls-3" x="257.25" y="91.24" width="11.69" height="11.4"/><rect class="cls-3" x="257.25" y="79.83" width="11.69" height="11.4"/><rect class="cls-3" x="257.25" y="68.43" width="11.69" height="11.4"/><rect class="cls-3" x="257.25" y="57.02" width="11.69" height="11.4"/><rect class="cls-3" x="257.25" y="45.62" width="11.69" height="11.4"/><rect class="cls-3" x="257.25" y="34.22" width="11.69" height="11.4"/><rect class="cls-3" x="257.25" y="22.81" width="11.69" height="11.4"/><rect class="cls-3" x="257.25" y="11.4" width="11.69" height="11.41"/><rect class="cls-2" x="257.25" width="11.69" height="11.4"/><rect class="cls-2" x="245.56" y="125.45" width="11.7" height="11.4"/><rect class="cls-3" x="245.56" y="114.05" width="11.7" height="11.4"/><rect class="cls-2" x="245.56" y="102.64" width="11.7" height="11.41"/><rect class="cls-3" x="245.56" y="91.24" width="11.7" height="11.4"/><rect class="cls-3" x="245.56" y="79.83" width="11.7" height="11.4"/><rect class="cls-3" x="245.56" y="68.43" width="11.7" height="11.4"/><rect class="cls-3" x="245.56" y="57.02" width="11.7" height="11.4"/><rect class="cls-3" x="245.56" y="45.62" width="11.7" height="11.4"/><rect class="cls-3" x="245.56" y="34.22" width="11.7" height="11.4"/><rect class="cls-2" x="245.56" y="22.81" width="11.7" height="11.4"/><rect class="cls-3" x="245.56" y="11.4" width="11.7" height="11.41"/><rect class="cls-2" x="245.56" width="11.7" height="11.4"/><rect class="cls-2" x="233.86" y="125.45" width="11.7" height="11.4"/><rect class="cls-3" x="233.86" y="114.05" width="11.7" height="11.4"/><rect class="cls-3" x="233.86" y="102.64" width="11.7" height="11.41"/><rect class="cls-3" x="233.86" y="91.24" width="11.7" height="11.4"/><rect class="cls-3" x="233.86" y="79.83" width="11.7" height="11.4"/><rect class="cls-3" x="233.86" y="68.43" width="11.7" height="11.4"/><rect class="cls-3" x="233.86" y="57.02" width="11.7" height="11.4"/><rect class="cls-3" x="233.86" y="45.62" width="11.7" height="11.4"/><rect class="cls-3" x="233.86" y="34.22" width="11.7" height="11.4"/><rect class="cls-3" x="233.86" y="22.81" width="11.7" height="11.4"/><rect class="cls-3" x="233.86" y="11.4" width="11.7" height="11.41"/><rect class="cls-2" x="233.86" width="11.7" height="11.4"/><rect class="cls-2" x="222.17" y="125.45" width="11.7" height="11.4"/><rect class="cls-3" x="222.17" y="114.05" width="11.7" height="11.4"/><rect class="cls-3" x="222.17" y="102.64" width="11.7" height="11.41"/><rect class="cls-3" x="222.17" y="91.24" width="11.7" height="11.4"/><rect class="cls-3" x="222.17" y="79.83" width="11.7" height="11.4"/><rect class="cls-3" x="222.17" y="68.43" width="11.7" height="11.4"/><rect class="cls-3" x="222.17" y="57.02" width="11.7" height="11.4"/><rect class="cls-3" x="222.17" y="45.62" width="11.7" height="11.4"/><rect class="cls-3" x="222.17" y="34.22" width="11.7" height="11.4"/><rect class="cls-3" x="222.17" y="22.81" width="11.7" height="11.4"/><rect class="cls-3" x="222.17" y="11.4" width="11.7" height="11.41"/><rect class="cls-2" x="222.17" width="11.7" height="11.4"/><rect class="cls-2" x="210.48" y="125.45" width="11.69" height="11.4"/><rect class="cls-3" x="210.48" y="114.05" width="11.69" height="11.4"/><rect class="cls-3" x="210.48" y="102.64" width="11.69" height="11.41"/><rect class="cls-3" x="210.48" y="91.24" width="11.69" height="11.4"/><rect class="cls-3" x="210.48" y="79.83" width="11.69" height="11.4"/><rect class="cls-3" x="210.48" y="68.43" width="11.69" height="11.4"/><rect class="cls-3" x="210.48" y="57.02" width="11.69" height="11.4"/><rect class="cls-3" x="210.48" y="45.62" width="11.69" height="11.4"/><rect class="cls-3" x="210.48" y="34.22" width="11.69" height="11.4"/><rect class="cls-3" x="210.48" y="22.81" width="11.69" height="11.4"/><rect class="cls-3" x="210.48" y="11.4" width="11.69" height="11.41"/><rect class="cls-2" x="210.48" width="11.69" height="11.4"/><rect class="cls-2" x="198.78" y="125.45" width="11.7" height="11.4"/><rect class="cls-3" x="198.78" y="114.05" width="11.7" height="11.4"/><rect class="cls-3" x="198.78" y="102.64" width="11.7" height="11.41"/><rect class="cls-3" x="198.78" y="91.24" width="11.7" height="11.4"/><rect class="cls-3" x="198.78" y="79.83" width="11.7" height="11.4"/><rect class="cls-3" x="198.78" y="68.43" width="11.7" height="11.4"/><rect class="cls-3" x="198.78" y="57.02" width="11.7" height="11.4"/><rect class="cls-3" x="198.78" y="45.62" width="11.7" height="11.4"/><rect class="cls-3" x="198.78" y="34.22" width="11.7" height="11.4"/><rect class="cls-3" x="198.78" y="22.81" width="11.7" height="11.4"/><rect class="cls-3" x="198.78" y="11.4" width="11.7" height="11.41"/><rect class="cls-2" x="198.78" width="11.7" height="11.4"/><rect class="cls-2" x="187.09" y="125.45" width="11.7" height="11.4"/><rect class="cls-3" x="187.09" y="114.05" width="11.7" height="11.4"/><rect class="cls-3" x="187.09" y="102.64" width="11.7" height="11.41"/><rect class="cls-3" x="187.09" y="91.24" width="11.7" height="11.4"/><rect class="cls-3" x="187.09" y="79.83" width="11.7" height="11.4"/><rect class="cls-3" x="187.09" y="68.43" width="11.7" height="11.4"/><rect class="cls-3" x="187.09" y="57.02" width="11.7" height="11.4"/><rect class="cls-3" x="187.09" y="45.62" width="11.7" height="11.4"/><rect class="cls-3" x="187.09" y="34.22" width="11.7" height="11.4"/><rect class="cls-3" x="187.09" y="22.81" width="11.7" height="11.4"/><rect class="cls-3" x="187.09" y="11.4" width="11.7" height="11.41"/><rect class="cls-2" x="187.09" width="11.7" height="11.4"/><rect class="cls-2" x="175.39" y="125.45" width="11.7" height="11.4"/><rect class="cls-3" x="175.39" y="114.05" width="11.7" height="11.4"/><rect class="cls-3" x="175.39" y="102.64" width="11.7" height="11.41"/><rect class="cls-3" x="175.39" y="91.24" width="11.7" height="11.4"/><rect class="cls-3" x="175.39" y="79.83" width="11.7" height="11.4"/><rect class="cls-3" x="175.39" y="68.43" width="11.7" height="11.4"/><rect class="cls-3" x="175.39" y="57.02" width="11.7" height="11.4"/><rect class="cls-3" x="175.39" y="45.62" width="11.7" height="11.4"/><rect class="cls-3" x="175.39" y="34.22" width="11.7" height="11.4"/><rect class="cls-3" x="175.39" y="22.81" width="11.7" height="11.4"/><rect class="cls-3" x="175.39" y="11.4" width="11.7" height="11.41"/><rect class="cls-2" x="175.39" width="11.7" height="11.4"/><rect class="cls-2" x="163.71" y="125.45" width="11.69" height="11.4"/><rect class="cls-3" x="163.71" y="114.05" width="11.69" height="11.4"/><rect class="cls-2" x="163.71" y="102.64" width="11.69" height="11.41"/><rect class="cls-3" x="163.71" y="91.24" width="11.69" height="11.4"/><rect class="cls-3" x="163.71" y="79.83" width="11.69" height="11.4"/><rect class="cls-3" x="163.71" y="68.43" width="11.69" height="11.4"/><rect class="cls-3" x="163.71" y="57.02" width="11.69" height="11.4"/><rect class="cls-3" x="163.71" y="45.62" width="11.69" height="11.4"/><rect class="cls-3" x="163.71" y="34.22" width="11.69" height="11.4"/><rect class="cls-2" x="163.71" y="22.81" width="11.69" height="11.4"/><rect class="cls-3" x="163.71" y="11.4" width="11.69" height="11.41"/><rect class="cls-2" x="163.71" width="11.69" height="11.4"/><rect class="cls-2" x="152.01" y="125.45" width="11.7" height="11.4"/><rect class="cls-3" x="152.01" y="114.05" width="11.7" height="11.4"/><rect class="cls-3" x="152.01" y="102.64" width="11.7" height="11.41"/><rect class="cls-3" x="152.01" y="91.24" width="11.7" height="11.4"/><rect class="cls-3" x="152.01" y="79.83" width="11.7" height="11.4"/><rect class="cls-3" x="152.01" y="68.43" width="11.7" height="11.4"/><rect class="cls-3" x="152.01" y="57.02" width="11.7" height="11.4"/><rect class="cls-3" x="152.01" y="45.62" width="11.7" height="11.4"/><rect class="cls-3" x="152.01" y="34.22" width="11.7" height="11.4"/><rect class="cls-3" x="152.01" y="22.81" width="11.7" height="11.4"/><rect class="cls-3" x="152.01" y="11.4" width="11.7" height="11.41"/><rect class="cls-2" x="152.01" width="11.7" height="11.4"/><rect class="cls-2" x="140.32" y="114.05" width="11.7" height="11.4"/><rect class="cls-2" x="140.32" y="102.64" width="11.7" height="11.41"/><rect class="cls-2" x="140.32" y="91.24" width="11.7" height="11.4"/><rect class="cls-2" x="140.32" y="79.83" width="11.7" height="11.4"/><rect class="cls-2" x="140.32" y="68.43" width="11.7" height="11.4"/><rect class="cls-2" x="140.32" y="57.02" width="11.7" height="11.4"/><rect class="cls-2" x="140.32" y="45.62" width="11.7" height="11.4"/><rect class="cls-2" x="140.32" y="34.22" width="11.7" height="11.4"/><rect class="cls-2" x="140.32" y="22.81" width="11.7" height="11.4"/><rect class="cls-2" x="140.32" y="11.4" width="11.7" height="11.41"/><rect class="cls-2" x="128.62" y="125.45" width="11.7" height="11.4"/><rect class="cls-3" x="128.62" y="114.05" width="11.7" height="11.4"/><rect class="cls-3" x="128.62" y="102.64" width="11.7" height="11.41"/><rect class="cls-2" x="128.62" y="91.24" width="11.7" height="11.4"/><rect class="cls-3" x="128.62" y="79.83" width="11.7" height="11.4"/><rect class="cls-3" x="128.62" y="68.43" width="11.7" height="11.4"/><rect class="cls-2" x="128.62" y="57.02" width="11.7" height="11.4"/><rect class="cls-3" x="128.62" y="45.62" width="11.7" height="11.4"/><rect class="cls-3" x="128.62" y="34.22" width="11.7" height="11.4"/><rect class="cls-2" x="128.62" y="22.81" width="11.7" height="11.4"/><rect class="cls-3" x="128.62" y="11.4" width="11.7" height="11.41"/><rect class="cls-2" x="116.93" y="125.45" width="11.69" height="11.4"/><rect class="cls-3" x="116.93" y="114.05" width="11.69" height="11.4"/><rect class="cls-3" x="116.93" y="102.64" width="11.69" height="11.41"/><rect class="cls-2" x="116.93" y="91.24" width="11.69" height="11.4"/><rect class="cls-3" x="116.93" y="79.83" width="11.69" height="11.4"/><rect class="cls-3" x="116.93" y="68.43" width="11.69" height="11.4"/><rect class="cls-2" x="116.93" y="57.02" width="11.69" height="11.4"/><rect class="cls-3" x="116.93" y="45.62" width="11.69" height="11.4"/><rect class="cls-3" x="116.93" y="34.22" width="11.69" height="11.4"/><rect class="cls-2" x="116.93" y="22.81" width="11.69" height="11.4"/><rect class="cls-3" x="116.93" y="11.4" width="11.69" height="11.41"/><rect class="cls-2" x="105.24" y="125.45" width="11.7" height="11.4"/><rect class="cls-2" x="105.24" y="114.05" width="11.7" height="11.4"/><rect class="cls-2" x="105.24" y="102.64" width="11.7" height="11.41"/><rect class="cls-2" x="105.24" y="91.24" width="11.7" height="11.4"/><rect class="cls-3" x="105.24" y="79.83" width="11.7" height="11.4"/><rect class="cls-3" x="105.24" y="68.43" width="11.7" height="11.4"/><rect class="cls-2" x="105.24" y="57.02" width="11.7" height="11.4"/><rect class="cls-2" x="105.24" y="45.62" width="11.7" height="11.4"/><rect class="cls-2" x="105.24" y="34.22" width="11.7" height="11.4"/><rect class="cls-2" x="105.24" y="22.81" width="11.7" height="11.4"/><rect class="cls-3" x="105.24" y="11.4" width="11.7" height="11.41"/><rect class="cls-2" x="93.54" y="125.45" width="11.7" height="11.4"/><rect class="cls-3" x="93.54" y="114.05" width="11.7" height="11.4"/><rect class="cls-3" x="93.54" y="102.64" width="11.7" height="11.41"/><rect class="cls-2" x="93.54" y="91.24" width="11.7" height="11.4"/><rect class="cls-3" x="93.54" y="79.83" width="11.7" height="11.4"/><rect class="cls-3" x="93.54" y="68.43" width="11.7" height="11.4"/><rect class="cls-2" x="93.54" y="57.02" width="11.7" height="11.4"/><rect class="cls-3" x="93.54" y="45.62" width="11.7" height="11.4"/><rect class="cls-3" x="93.54" y="34.22" width="11.7" height="11.4"/><rect class="cls-2" x="93.54" y="22.81" width="11.7" height="11.4"/><rect class="cls-3" x="93.54" y="11.4" width="11.7" height="11.41"/><rect class="cls-2" x="81.85" y="125.45" width="11.7" height="11.4"/><rect class="cls-3" x="81.85" y="114.05" width="11.7" height="11.4"/><rect class="cls-3" x="81.85" y="102.64" width="11.7" height="11.41"/><rect class="cls-2" x="81.85" y="91.24" width="11.7" height="11.4"/><rect class="cls-3" x="81.85" y="79.83" width="11.7" height="11.4"/><rect class="cls-3" x="81.85" y="68.43" width="11.7" height="11.4"/><rect class="cls-2" x="81.85" y="57.02" width="11.7" height="11.4"/><rect class="cls-3" x="81.85" y="45.62" width="11.7" height="11.4"/><rect class="cls-3" x="81.85" y="34.22" width="11.7" height="11.4"/><rect class="cls-2" x="81.85" y="22.81" width="11.7" height="11.4"/><rect class="cls-3" x="81.85" y="11.4" width="11.7" height="11.41"/><rect class="cls-2" x="70.16" y="125.45" width="11.69" height="11.4"/><rect class="cls-3" x="70.16" y="114.05" width="11.69" height="11.4"/><rect class="cls-3" x="70.16" y="102.64" width="11.69" height="11.41"/><rect class="cls-2" x="70.16" y="91.24" width="11.69" height="11.4"/><rect class="cls-2" x="70.16" y="79.83" width="11.69" height="11.4"/><rect class="cls-2" x="70.16" y="68.43" width="11.69" height="11.4"/><rect class="cls-2" x="70.16" y="57.02" width="11.69" height="11.4"/><rect class="cls-3" x="70.16" y="45.62" width="11.69" height="11.4"/><rect class="cls-3" x="70.16" y="34.22" width="11.69" height="11.4"/><rect class="cls-2" x="70.16" y="22.81" width="11.69" height="11.4"/><rect class="cls-2" x="70.16" y="11.4" width="11.69" height="11.41"/><rect class="cls-2" x="58.46" y="125.45" width="11.7" height="11.4"/><rect class="cls-3" x="58.46" y="114.05" width="11.7" height="11.4"/><rect class="cls-3" x="58.46" y="102.64" width="11.7" height="11.41"/><rect class="cls-2" x="58.46" y="91.24" width="11.7" height="11.4"/><rect class="cls-3" x="58.46" y="79.83" width="11.7" height="11.4"/><rect class="cls-3" x="58.46" y="68.43" width="11.7" height="11.4"/><rect class="cls-2" x="58.46" y="57.02" width="11.7" height="11.4"/><rect class="cls-3" x="58.46" y="45.62" width="11.7" height="11.4"/><rect class="cls-3" x="58.46" y="34.22" width="11.7" height="11.4"/><rect class="cls-2" x="58.46" y="22.81" width="11.7" height="11.4"/><rect class="cls-3" x="58.46" y="11.4" width="11.7" height="11.41"/><rect class="cls-2" x="46.77" y="125.45" width="11.7" height="11.4"/><rect class="cls-3" x="46.77" y="114.05" width="11.7" height="11.4"/><rect class="cls-3" x="46.77" y="102.64" width="11.7" height="11.41"/><rect class="cls-2" x="46.77" y="91.24" width="11.7" height="11.4"/><rect class="cls-3" x="46.77" y="79.83" width="11.7" height="11.4"/><rect class="cls-3" x="46.77" y="68.43" width="11.7" height="11.4"/><rect class="cls-2" x="46.77" y="57.02" width="11.7" height="11.4"/><rect class="cls-3" x="46.77" y="45.62" width="11.7" height="11.4"/><rect class="cls-3" x="46.77" y="34.22" width="11.7" height="11.4"/><rect class="cls-2" x="46.77" y="22.81" width="11.7" height="11.4"/><rect class="cls-3" x="46.77" y="11.4" width="11.7" height="11.41"/><rect class="cls-2" x="35.07" y="125.45" width="11.7" height="11.4"/><rect class="cls-2" x="35.07" y="114.05" width="11.7" height="11.4"/><rect class="cls-2" x="35.07" y="102.64" width="11.7" height="11.41"/><rect class="cls-2" x="35.07" y="91.24" width="11.7" height="11.4"/><rect class="cls-3" x="35.07" y="79.83" width="11.7" height="11.4"/><rect class="cls-3" x="35.07" y="68.43" width="11.7" height="11.4"/><rect class="cls-2" x="35.07" y="57.02" width="11.7" height="11.4"/><rect class="cls-2" x="35.07" y="45.62" width="11.7" height="11.4"/><rect class="cls-2" x="35.07" y="34.22" width="11.7" height="11.4"/><rect class="cls-2" x="35.07" y="22.81" width="11.7" height="11.4"/><rect class="cls-3" x="35.07" y="11.4" width="11.7" height="11.41"/><rect class="cls-2" x="23.39" y="125.45" width="11.69" height="11.4"/><rect class="cls-3" x="23.39" y="114.05" width="11.69" height="11.4"/><rect class="cls-3" x="23.39" y="102.64" width="11.69" height="11.41"/><rect class="cls-2" x="23.39" y="91.24" width="11.69" height="11.4"/><rect class="cls-3" x="23.39" y="79.83" width="11.69" height="11.4"/><rect class="cls-3" x="23.39" y="68.43" width="11.69" height="11.4"/><rect class="cls-2" x="23.39" y="57.02" width="11.69" height="11.4"/><rect class="cls-3" x="23.39" y="45.62" width="11.69" height="11.4"/><rect class="cls-3" x="23.39" y="34.22" width="11.69" height="11.4"/><rect class="cls-2" x="23.39" y="22.81" width="11.69" height="11.4"/><rect class="cls-3" x="23.39" y="11.4" width="11.69" height="11.41"/><rect class="cls-2" x="11.69" y="125.45" width="11.7" height="11.4"/><rect class="cls-3" x="11.69" y="114.05" width="11.7" height="11.4"/><rect class="cls-3" x="11.69" y="102.64" width="11.7" height="11.41"/><rect class="cls-2" x="11.69" y="91.24" width="11.7" height="11.4"/><rect class="cls-3" x="11.69" y="79.83" width="11.7" height="11.4"/><rect class="cls-3" x="11.69" y="68.43" width="11.7" height="11.4"/><rect class="cls-2" x="11.69" y="57.02" width="11.7" height="11.4"/><rect class="cls-3" x="11.69" y="45.62" width="11.7" height="11.4"/><rect class="cls-3" x="11.69" y="34.22" width="11.7" height="11.4"/><rect class="cls-2" x="11.69" y="22.81" width="11.7" height="11.4"/><rect class="cls-3" x="11.69" y="11.4" width="11.7" height="11.41"/><rect class="cls-2" y="114.05" width="11.7" height="11.4"/><rect class="cls-2" y="102.64" width="11.7" height="11.41"/><rect class="cls-2" y="91.24" width="11.7" height="11.4"/><rect class="cls-2" y="79.83" width="11.7" height="11.4"/><rect class="cls-2" y="68.43" width="11.7" height="11.4"/><rect class="cls-2" y="57.02" width="11.7" height="11.4"/><rect class="cls-2" y="45.62" width="11.7" height="11.4"/><rect class="cls-2" y="34.22" width="11.7" height="11.4"/><rect class="cls-2" y="22.81" width="11.7" height="11.4"/><rect class="cls-2" y="11.4" width="11.7" height="11.41"/></svg>