<svg xmlns="http://www.w3.org/2000/svg" viewBox="0 0 353.65 372.55"><defs><style>.cls-1{fill:#010101;}.cls-2{fill:#c4d93b;}.cls-3{fill:#44b549;}</style></defs><g id="Layer_2" data-name="Layer 2"><g id="Layer_1-2" data-name="Layer 1"><rect class="cls-1" x="334" y="156.86" width="19.65" height="19.61"/><rect class="cls-1" x="334" y="137.25" width="19.65" height="19.61"/><rect class="cls-1" x="334" y="117.65" width="19.65" height="19.6"/><rect class="cls-1" x="334" y="98.04" width="19.65" height="19.61"/><rect class="cls-1" x="334" y="78.43" width="19.65" height="19.61"/><rect class="cls-1" x="334" y="58.82" width="19.65" height="19.61"/><rect class="cls-1" x="334" y="39.22" width="19.65" height="19.6"/><rect class="cls-1" x="334" y="19.61" width="19.65" height="19.61"/><rect class="cls-1" x="314.35" y="352.94" width="19.65" height="19.61"/><rect class="cls-1" x="314.35" y="333.33" width="19.65" height="19.61"/><rect class="cls-1" x="314.35" y="313.73" width="19.65" height="19.6"/><rect class="cls-1" x="314.35" y="294.12" width="19.65" height="19.61"/><rect class="cls-1" x="314.35" y="274.51" width="19.65" height="19.61"/><rect class="cls-1" x="314.35" y="254.9" width="19.65" height="19.61"/><rect class="cls-1" x="314.35" y="235.29" width="19.65" height="19.61"/><rect class="cls-1" x="314.35" y="215.69" width="19.65" height="19.6"/><rect class="cls-1" x="314.35" y="196.08" width="19.65" height="19.61"/><rect class="cls-1" x="314.35" y="176.47" width="19.65" height="19.61"/><rect class="cls-2" x="314.35" y="156.86" width="19.65" height="19.61"/><rect class="cls-2" x="314.35" y="137.25" width="19.65" height="19.61"/><rect class="cls-2" x="314.35" y="117.65" width="19.65" height="19.6"/><rect class="cls-2" x="314.35" y="98.04" width="19.65" height="19.61"/><rect class="cls-2" x="314.35" y="78.43" width="19.65" height="19.61"/><rect class="cls-2" x="314.35" y="58.82" width="19.65" height="19.61"/><rect class="cls-3" x="314.35" y="39.22" width="19.65" height="19.6"/><rect class="cls-2" x="314.35" y="19.61" width="19.65" height="19.61"/><rect class="cls-1" x="314.35" width="19.65" height="19.61"/><rect class="cls-2" x="294.71" y="352.94" width="19.64" height="19.61"/><rect class="cls-2" x="294.71" y="333.33" width="19.64" height="19.61"/><rect class="cls-2" x="294.71" y="313.73" width="19.64" height="19.6"/><rect class="cls-2" x="294.71" y="294.12" width="19.64" height="19.61"/><rect class="cls-2" x="294.71" y="274.51" width="19.64" height="19.61"/><rect class="cls-2" x="294.71" y="254.9" width="19.64" height="19.61"/><rect class="cls-2" x="294.71" y="235.29" width="19.64" height="19.61"/><rect class="cls-2" x="294.71" y="215.69" width="19.64" height="19.6"/><rect class="cls-1" x="294.71" y="196.08" width="19.64" height="19.61"/><rect class="cls-2" x="294.71" y="176.47" width="19.64" height="19.61"/><rect class="cls-2" x="294.71" y="156.86" width="19.64" height="19.61"/><rect class="cls-2" x="294.71" y="137.25" width="19.64" height="19.61"/><rect class="cls-2" x="294.71" y="117.65" width="19.64" height="19.6"/><rect class="cls-2" x="294.71" y="98.04" width="19.64" height="19.61"/><rect class="cls-2" x="294.71" y="78.43" width="19.64" height="19.61"/><rect class="cls-2" x="294.71" y="58.82" width="19.64" height="19.61"/><rect class="cls-3" x="294.71" y="39.22" width="19.64" height="19.6"/><rect class="cls-2" x="294.71" y="19.61" width="19.64" height="19.61"/><rect class="cls-1" x="294.71" width="19.64" height="19.61"/><rect class="cls-2" x="275.06" y="352.94" width="19.65" height="19.61"/><rect class="cls-2" x="275.06" y="333.33" width="19.65" height="19.61"/><rect class="cls-2" x="275.06" y="313.73" width="19.65" height="19.6"/><rect class="cls-2" x="275.06" y="294.12" width="19.65" height="19.61"/><rect class="cls-2" x="275.06" y="274.51" width="19.65" height="19.61"/><rect class="cls-2" x="275.06" y="254.9" width="19.65" height="19.61"/><rect class="cls-2" x="275.06" y="235.29" width="19.65" height="19.61"/><rect class="cls-2" x="275.06" y="215.69" width="19.65" height="19.6"/><rect class="cls-1" x="275.06" y="196.08" width="19.65" height="19.61"/><rect class="cls-2" x="275.06" y="176.47" width="19.65" height="19.61"/><rect class="cls-2" x="275.06" y="156.86" width="19.65" height="19.61"/><rect class="cls-2" x="275.06" y="137.25" width="19.65" height="19.61"/><rect class="cls-2" x="275.06" y="117.65" width="19.65" height="19.6"/><rect class="cls-2" x="275.06" y="98.04" width="19.65" height="19.61"/><rect class="cls-2" x="275.06" y="78.43" width="19.65" height="19.61"/><rect class="cls-2" x="275.06" y="58.82" width="19.65" height="19.61"/><rect class="cls-3" x="275.06" y="39.22" width="19.65" height="19.6"/><rect class="cls-2" x="275.06" y="19.61" width="19.65" height="19.61"/><rect class="cls-1" x="275.06" width="19.65" height="19.61"/><rect class="cls-3" x="255.41" y="352.94" width="19.65" height="19.61"/><rect class="cls-3" x="255.41" y="333.33" width="19.65" height="19.61"/><rect class="cls-3" x="255.41" y="313.73" width="19.65" height="19.6"/><rect class="cls-3" x="255.41" y="294.12" width="19.65" height="19.61"/><rect class="cls-3" x="255.41" y="274.51" width="19.65" height="19.61"/><rect class="cls-3" x="255.41" y="254.9" width="19.65" height="19.61"/><rect class="cls-3" x="255.41" y="235.29" width="19.65" height="19.61"/><rect class="cls-3" x="255.41" y="215.69" width="19.65" height="19.6"/><rect class="cls-1" x="255.41" y="196.08" width="19.65" height="19.61"/><rect class="cls-3" x="255.41" y="176.47" width="19.65" height="19.61"/><rect class="cls-3" x="255.41" y="156.86" width="19.65" height="19.61"/><rect class="cls-3" x="255.41" y="137.25" width="19.65" height="19.61"/><rect class="cls-3" x="255.41" y="117.65" width="19.65" height="19.6"/><rect class="cls-3" x="255.41" y="98.04" width="19.65" height="19.61"/><rect class="cls-3" x="255.41" y="78.43" width="19.65" height="19.61"/><rect class="cls-3" x="255.41" y="58.82" width="19.65" height="19.61"/><rect class="cls-3" x="255.41" y="39.22" width="19.65" height="19.6"/><rect class="cls-2" x="255.41" y="19.61" width="19.65" height="19.61"/><rect class="cls-1" x="255.41" width="19.65" height="19.61"/><rect class="cls-3" x="235.76" y="352.94" width="19.65" height="19.61"/><rect class="cls-3" x="235.76" y="333.33" width="19.65" height="19.61"/><rect class="cls-3" x="235.76" y="313.73" width="19.65" height="19.6"/><rect class="cls-3" x="235.76" y="294.12" width="19.65" height="19.61"/><rect class="cls-3" x="235.76" y="274.51" width="19.65" height="19.61"/><rect class="cls-3" x="235.76" y="254.9" width="19.65" height="19.61"/><rect class="cls-3" x="235.76" y="235.29" width="19.65" height="19.61"/><rect class="cls-3" x="235.76" y="215.69" width="19.65" height="19.6"/><rect class="cls-1" x="235.76" y="196.08" width="19.65" height="19.61"/><rect class="cls-3" x="235.76" y="176.47" width="19.65" height="19.61"/><rect class="cls-3" x="235.76" y="156.86" width="19.65" height="19.61"/><rect class="cls-3" x="235.76" y="137.25" width="19.65" height="19.61"/><rect class="cls-3" x="235.76" y="117.65" width="19.65" height="19.6"/><rect class="cls-3" x="235.76" y="98.04" width="19.65" height="19.61"/><rect class="cls-3" x="235.76" y="78.43" width="19.65" height="19.61"/><rect class="cls-3" x="235.76" y="58.82" width="19.65" height="19.61"/><rect class="cls-3" x="235.76" y="39.22" width="19.65" height="19.6"/><rect class="cls-2" x="235.76" y="19.61" width="19.65" height="19.61"/><rect class="cls-1" x="235.76" width="19.65" height="19.61"/><rect class="cls-3" x="216.12" y="352.94" width="19.64" height="19.61"/><rect class="cls-3" x="216.12" y="333.33" width="19.64" height="19.61"/><rect class="cls-3" x="216.12" y="313.73" width="19.64" height="19.6"/><rect class="cls-3" x="216.12" y="294.12" width="19.64" height="19.61"/><rect class="cls-3" x="216.12" y="274.51" width="19.64" height="19.61"/><rect class="cls-3" x="216.12" y="254.9" width="19.64" height="19.61"/><rect class="cls-3" x="216.12" y="235.29" width="19.64" height="19.61"/><rect class="cls-3" x="216.12" y="215.69" width="19.64" height="19.6"/><rect class="cls-1" x="216.12" y="196.08" width="19.64" height="19.61"/><rect class="cls-3" x="216.12" y="176.47" width="19.64" height="19.61"/><rect class="cls-3" x="216.12" y="156.86" width="19.64" height="19.61"/><rect class="cls-3" x="216.12" y="137.25" width="19.64" height="19.61"/><rect class="cls-3" x="216.12" y="117.65" width="19.64" height="19.6"/><rect class="cls-3" x="216.12" y="98.04" width="19.64" height="19.61"/><rect class="cls-3" x="216.12" y="78.43" width="19.64" height="19.61"/><rect class="cls-3" x="216.12" y="58.82" width="19.64" height="19.61"/><rect class="cls-3" x="216.12" y="39.22" width="19.64" height="19.6"/><rect class="cls-2" x="216.12" y="19.61" width="19.64" height="19.61"/><rect class="cls-1" x="216.12" width="19.64" height="19.61"/><rect class="cls-3" x="196.47" y="352.94" width="19.65" height="19.61"/><rect class="cls-3" x="196.47" y="333.33" width="19.65" height="19.61"/><rect class="cls-3" x="196.47" y="313.73" width="19.65" height="19.6"/><rect class="cls-3" x="196.47" y="294.12" width="19.65" height="19.61"/><rect class="cls-3" x="196.47" y="274.51" width="19.65" height="19.61"/><rect class="cls-3" x="196.47" y="254.9" width="19.65" height="19.61"/><rect class="cls-3" x="196.47" y="235.29" width="19.65" height="19.61"/><rect class="cls-3" x="196.47" y="215.69" width="19.65" height="19.6"/><rect class="cls-1" x="196.47" y="196.08" width="19.65" height="19.61"/><rect class="cls-3" x="196.47" y="176.47" width="19.65" height="19.61"/><rect class="cls-3" x="196.47" y="156.86" width="19.65" height="19.61"/><rect class="cls-3" x="196.47" y="137.25" width="19.65" height="19.61"/><rect class="cls-3" x="196.47" y="117.65" width="19.65" height="19.6"/><rect class="cls-3" x="196.47" y="98.04" width="19.65" height="19.61"/><rect class="cls-3" x="196.47" y="78.43" width="19.65" height="19.61"/><rect class="cls-3" x="196.47" y="58.82" width="19.65" height="19.61"/><rect class="cls-3" x="196.47" y="39.22" width="19.65" height="19.6"/><rect class="cls-2" x="196.47" y="19.61" width="19.65" height="19.61"/><rect class="cls-1" x="196.47" width="19.65" height="19.61"/><rect class="cls-3" x="176.82" y="352.94" width="19.65" height="19.61"/><rect class="cls-3" x="176.82" y="333.33" width="19.65" height="19.61"/><rect class="cls-3" x="176.82" y="313.73" width="19.65" height="19.6"/><rect class="cls-3" x="176.82" y="294.12" width="19.65" height="19.61"/><rect class="cls-3" x="176.82" y="274.51" width="19.65" height="19.61"/><rect class="cls-3" x="176.82" y="254.9" width="19.65" height="19.61"/><rect class="cls-3" x="176.82" y="235.29" width="19.65" height="19.61"/><rect class="cls-3" x="176.82" y="215.69" width="19.65" height="19.6"/><rect class="cls-1" x="176.82" y="196.08" width="19.65" height="19.61"/><rect class="cls-3" x="176.82" y="176.47" width="19.65" height="19.61"/><rect class="cls-3" x="176.82" y="156.86" width="19.65" height="19.61"/><rect class="cls-3" x="176.82" y="137.25" width="19.65" height="19.61"/><rect class="cls-3" x="176.82" y="117.65" width="19.65" height="19.6"/><rect class="cls-3" x="176.82" y="98.04" width="19.65" height="19.61"/><rect class="cls-3" x="176.82" y="78.43" width="19.65" height="19.61"/><rect class="cls-3" x="176.82" y="58.82" width="19.65" height="19.61"/><rect class="cls-3" x="176.82" y="39.22" width="19.65" height="19.6"/><rect class="cls-2" x="176.82" y="19.61" width="19.65" height="19.61"/><rect class="cls-1" x="176.82" width="19.65" height="19.61"/><rect class="cls-2" x="157.18" y="352.94" width="19.64" height="19.61"/><rect class="cls-2" x="157.18" y="333.33" width="19.64" height="19.61"/><rect class="cls-2" x="157.18" y="313.73" width="19.64" height="19.6"/><rect class="cls-2" x="157.18" y="294.12" width="19.64" height="19.61"/><rect class="cls-2" x="157.18" y="274.51" width="19.64" height="19.61"/><rect class="cls-2" x="157.18" y="254.9" width="19.64" height="19.61"/><rect class="cls-2" x="157.18" y="235.29" width="19.64" height="19.61"/><rect class="cls-2" x="157.18" y="215.69" width="19.64" height="19.6"/><rect class="cls-1" x="157.18" y="196.08" width="19.64" height="19.61"/><rect class="cls-2" x="157.18" y="176.47" width="19.64" height="19.61"/><rect class="cls-2" x="157.18" y="156.86" width="19.64" height="19.61"/><rect class="cls-2" x="157.18" y="137.25" width="19.64" height="19.61"/><rect class="cls-2" x="157.18" y="117.65" width="19.64" height="19.6"/><rect class="cls-2" x="157.18" y="98.04" width="19.64" height="19.61"/><rect class="cls-2" x="157.18" y="78.43" width="19.64" height="19.61"/><rect class="cls-2" x="157.18" y="58.82" width="19.64" height="19.61"/><rect class="cls-3" x="157.18" y="39.22" width="19.64" height="19.6"/><rect class="cls-2" x="157.18" y="19.61" width="19.64" height="19.61"/><rect class="cls-1" x="157.18" width="19.64" height="19.61"/><rect class="cls-3" x="137.53" y="352.94" width="19.65" height="19.61"/><rect class="cls-3" x="137.53" y="333.33" width="19.65" height="19.61"/><rect class="cls-3" x="137.53" y="313.73" width="19.65" height="19.6"/><rect class="cls-3" x="137.53" y="294.12" width="19.65" height="19.61"/><rect class="cls-3" x="137.53" y="274.51" width="19.65" height="19.61"/><rect class="cls-3" x="137.53" y="254.9" width="19.65" height="19.61"/><rect class="cls-3" x="137.53" y="235.29" width="19.65" height="19.61"/><rect class="cls-3" x="137.53" y="215.69" width="19.65" height="19.6"/><rect class="cls-1" x="137.53" y="196.08" width="19.65" height="19.61"/><rect class="cls-3" x="137.53" y="176.47" width="19.65" height="19.61"/><rect class="cls-3" x="137.53" y="156.86" width="19.65" height="19.61"/><rect class="cls-3" x="137.53" y="137.25" width="19.65" height="19.61"/><rect class="cls-3" x="137.53" y="117.65" width="19.65" height="19.6"/><rect class="cls-3" x="137.53" y="98.04" width="19.65" height="19.61"/><rect class="cls-3" x="137.53" y="78.43" width="19.65" height="19.61"/><rect class="cls-3" x="137.53" y="58.82" width="19.65" height="19.61"/><rect class="cls-3" x="137.53" y="39.22" width="19.65" height="19.6"/><rect class="cls-2" x="137.53" y="19.61" width="19.65" height="19.61"/><rect class="cls-1" x="137.53" width="19.65" height="19.61"/><rect class="cls-2" x="117.88" y="352.94" width="19.65" height="19.61"/><rect class="cls-2" x="117.88" y="333.33" width="19.65" height="19.61"/><rect class="cls-2" x="117.88" y="313.73" width="19.65" height="19.6"/><rect class="cls-2" x="117.88" y="294.12" width="19.65" height="19.61"/><rect class="cls-2" x="117.88" y="274.51" width="19.65" height="19.61"/><rect class="cls-2" x="117.88" y="254.9" width="19.65" height="19.61"/><rect class="cls-2" x="117.88" y="235.29" width="19.65" height="19.61"/><rect class="cls-2" x="117.88" y="215.69" width="19.65" height="19.6"/><rect class="cls-1" x="117.88" y="196.08" width="19.65" height="19.61"/><rect class="cls-2" x="117.88" y="176.47" width="19.65" height="19.61"/><rect class="cls-2" x="117.88" y="156.86" width="19.65" height="19.61"/><rect class="cls-2" x="117.88" y="137.25" width="19.65" height="19.61"/><rect class="cls-2" x="117.88" y="117.65" width="19.65" height="19.6"/><rect class="cls-2" x="117.88" y="98.04" width="19.65" height="19.61"/><rect class="cls-2" x="117.88" y="78.43" width="19.65" height="19.61"/><rect class="cls-2" x="117.88" y="58.82" width="19.65" height="19.61"/><rect class="cls-2" x="117.88" y="39.22" width="19.65" height="19.6"/><rect class="cls-2" x="117.88" y="19.61" width="19.65" height="19.61"/><rect class="cls-1" x="117.88" width="19.65" height="19.61"/><rect class="cls-2" x="98.24" y="352.94" width="19.64" height="19.61"/><rect class="cls-2" x="98.24" y="333.33" width="19.64" height="19.61"/><rect class="cls-2" x="98.24" y="313.73" width="19.64" height="19.6"/><rect class="cls-2" x="98.24" y="294.12" width="19.64" height="19.61"/><rect class="cls-2" x="98.24" y="274.51" width="19.64" height="19.61"/><rect class="cls-2" x="98.24" y="254.9" width="19.64" height="19.61"/><rect class="cls-2" x="98.24" y="235.29" width="19.64" height="19.61"/><rect class="cls-2" x="98.24" y="215.69" width="19.64" height="19.6"/><rect class="cls-1" x="98.24" y="196.08" width="19.64" height="19.61"/><rect class="cls-2" x="98.24" y="176.47" width="19.64" height="19.61"/><rect class="cls-2" x="98.24" y="156.86" width="19.64" height="19.61"/><rect class="cls-2" x="98.24" y="137.25" width="19.64" height="19.61"/><rect class="cls-2" x="98.24" y="117.65" width="19.64" height="19.6"/><rect class="cls-2" x="98.24" y="98.04" width="19.64" height="19.61"/><rect class="cls-2" x="98.24" y="78.43" width="19.64" height="19.61"/><rect class="cls-2" x="98.24" y="58.82" width="19.64" height="19.61"/><rect class="cls-2" x="98.24" y="39.22" width="19.64" height="19.6"/><rect class="cls-2" x="98.24" y="19.61" width="19.64" height="19.61"/><rect class="cls-1" x="98.24" width="19.64" height="19.61"/><rect class="cls-3" x="78.59" y="352.94" width="19.65" height="19.61"/><rect class="cls-3" x="78.59" y="333.33" width="19.65" height="19.61"/><rect class="cls-3" x="78.59" y="313.73" width="19.65" height="19.6"/><rect class="cls-3" x="78.59" y="294.12" width="19.65" height="19.61"/><rect class="cls-3" x="78.59" y="274.51" width="19.65" height="19.61"/><rect class="cls-3" x="78.59" y="254.9" width="19.65" height="19.61"/><rect class="cls-3" x="78.59" y="235.29" width="19.65" height="19.61"/><rect class="cls-3" x="78.59" y="215.69" width="19.65" height="19.6"/><rect class="cls-1" x="78.59" y="196.08" width="19.65" height="19.61"/><rect class="cls-3" x="78.59" y="176.47" width="19.65" height="19.61"/><rect class="cls-3" x="78.59" y="156.86" width="19.65" height="19.61"/><rect class="cls-3" x="78.59" y="137.25" width="19.65" height="19.61"/><rect class="cls-3" x="78.59" y="117.65" width="19.65" height="19.6"/><rect class="cls-3" x="78.59" y="98.04" width="19.65" height="19.61"/><rect class="cls-3" x="78.59" y="78.43" width="19.65" height="19.61"/><rect class="cls-3" x="78.59" y="58.82" width="19.65" height="19.61"/><rect class="cls-3" x="78.59" y="39.22" width="19.65" height="19.6"/><rect class="cls-2" x="78.59" y="19.61" width="19.65" height="19.61"/><rect class="cls-1" x="78.59" width="19.65" height="19.61"/><rect class="cls-2" x="58.94" y="352.94" width="19.65" height="19.61"/><rect class="cls-2" x="58.94" y="333.33" width="19.65" height="19.61"/><rect class="cls-2" x="58.94" y="313.73" width="19.65" height="19.6"/><rect class="cls-2" x="58.94" y="294.12" width="19.65" height="19.61"/><rect class="cls-2" x="58.94" y="274.51" width="19.65" height="19.61"/><rect class="cls-2" x="58.94" y="254.9" width="19.65" height="19.61"/><rect class="cls-2" x="58.94" y="235.29" width="19.65" height="19.61"/><rect class="cls-2" x="58.94" y="215.69" width="19.65" height="19.6"/><rect class="cls-1" x="58.94" y="196.08" width="19.65" height="19.61"/><rect class="cls-2" x="58.94" y="176.47" width="19.65" height="19.61"/><rect class="cls-2" x="58.94" y="156.86" width="19.65" height="19.61"/><rect class="cls-2" x="58.94" y="137.25" width="19.65" height="19.61"/><rect class="cls-2" x="58.94" y="117.65" width="19.65" height="19.6"/><rect class="cls-2" x="58.94" y="98.04" width="19.65" height="19.61"/><rect class="cls-2" x="58.94" y="78.43" width="19.65" height="19.61"/><rect class="cls-2" x="58.94" y="58.82" width="19.65" height="19.61"/><rect class="cls-3" x="58.94" y="39.22" width="19.65" height="19.6"/><rect class="cls-2" x="58.94" y="19.61" width="19.65" height="19.61"/><rect class="cls-1" x="58.94" width="19.65" height="19.61"/><rect class="cls-2" x="39.29" y="352.94" width="19.65" height="19.61"/><rect class="cls-2" x="39.29" y="333.33" width="19.65" height="19.61"/><rect class="cls-2" x="39.29" y="313.73" width="19.65" height="19.6"/><rect class="cls-2" x="39.29" y="294.12" width="19.65" height="19.61"/><rect class="cls-2" x="39.29" y="274.51" width="19.65" height="19.61"/><rect class="cls-2" x="39.29" y="254.9" width="19.65" height="19.61"/><rect class="cls-2" x="39.29" y="235.29" width="19.65" height="19.61"/><rect class="cls-2" x="39.29" y="215.69" width="19.65" height="19.6"/><rect class="cls-1" x="39.29" y="196.08" width="19.65" height="19.61"/><rect class="cls-2" x="39.29" y="176.47" width="19.65" height="19.61"/><rect class="cls-2" x="39.29" y="156.86" width="19.65" height="19.61"/><rect class="cls-2" x="39.29" y="137.25" width="19.65" height="19.61"/><rect class="cls-2" x="39.29" y="117.65" width="19.65" height="19.6"/><rect class="cls-2" x="39.29" y="98.04" width="19.65" height="19.61"/><rect class="cls-2" x="39.29" y="78.43" width="19.65" height="19.61"/><rect class="cls-2" x="39.29" y="58.82" width="19.65" height="19.61"/><rect class="cls-3" x="39.29" y="39.22" width="19.65" height="19.6"/><rect class="cls-2" x="39.29" y="19.61" width="19.65" height="19.61"/><rect class="cls-1" x="39.29" width="19.65" height="19.61"/><rect class="cls-1" x="19.65" y="352.94" width="19.64" height="19.61"/><rect class="cls-1" x="19.65" y="333.33" width="19.64" height="19.61"/><rect class="cls-1" x="19.65" y="313.73" width="19.64" height="19.6"/><rect class="cls-1" x="19.65" y="294.12" width="19.64" height="19.61"/><rect class="cls-1" x="19.65" y="274.51" width="19.64" height="19.61"/><rect class="cls-1" x="19.65" y="254.9" width="19.64" height="19.61"/><rect class="cls-1" x="19.65" y="235.29" width="19.64" height="19.61"/><rect class="cls-1" x="19.65" y="215.69" width="19.64" height="19.6"/><rect class="cls-1" x="19.65" y="196.08" width="19.64" height="19.61"/><rect class="cls-1" x="19.65" y="176.47" width="19.64" height="19.61"/><rect class="cls-2" x="19.65" y="156.86" width="19.64" height="19.61"/><rect class="cls-2" x="19.65" y="137.25" width="19.64" height="19.61"/><rect class="cls-2" x="19.65" y="117.65" width="19.64" height="19.6"/><rect class="cls-2" x="19.65" y="98.04" width="19.64" height="19.61"/><rect class="cls-2" x="19.65" y="78.43" width="19.64" height="19.61"/><rect class="cls-2" x="19.65" y="58.82" width="19.64" height="19.61"/><rect class="cls-3" x="19.65" y="39.22" width="19.64" height="19.6"/><rect class="cls-2" x="19.65" y="19.61" width="19.64" height="19.61"/><rect class="cls-1" x="19.65" width="19.64" height="19.61"/><rect class="cls-1" y="156.86" width="19.65" height="19.61"/><rect class="cls-1" y="137.25" width="19.65" height="19.61"/><rect class="cls-1" y="117.65" width="19.65" height="19.6"/><rect class="cls-1" y="98.04" width="19.65" height="19.61"/><rect class="cls-1" y="78.43" width="19.65" height="19.61"/><rect class="cls-1" y="58.82" width="19.65" height="19.61"/><rect class="cls-1" y="39.22" width="19.65" height="19.6"/><rect class="cls-1" y="19.61" width="19.65" height="19.61"/></g></g></svg>